<svg width="18" height="17" viewBox="0 0 18 17" fill="none" xmlns="http://www.w3.org/2000/svg">
<path d="M1.5 8.72949C1.5 10.7186 2.29018 12.6263 3.6967 14.0328C5.10322 15.4393 7.01088 16.2295 9 16.2295C10.9891 16.2295 12.8968 15.4393 14.3033 14.0328C15.7098 12.6263 16.5 10.7186 16.5 8.72949C16.5 6.74037 15.7098 4.83271 14.3033 3.42619C12.8968 2.01967 10.9891 1.22949 9 1.22949C7.01088 1.22949 5.10322 2.01967 3.6967 3.42619C2.29018 4.83271 1.5 6.74037 1.5 8.72949V8.72949Z" stroke="#989AAD" stroke-width="1.5" stroke-linecap="round" stroke-linejoin="round"/>
<path d="M7.5 10.2295C7.5 10.5262 7.58797 10.8162 7.7528 11.0628C7.91762 11.3095 8.15189 11.5018 8.42598 11.6153C8.70007 11.7288 9.00167 11.7585 9.29264 11.7007C9.58361 11.6428 9.85088 11.4999 10.0607 11.2902C10.2704 11.0804 10.4133 10.8131 10.4712 10.5221C10.5291 10.2312 10.4994 9.92956 10.3858 9.65547C10.2723 9.38138 10.08 9.14711 9.83336 8.98229C9.58668 8.81747 9.29667 8.72949 9 8.72949C8.70333 8.72949 8.41332 8.64152 8.16665 8.4767C7.91997 8.31188 7.72771 8.07761 7.61418 7.80352C7.50065 7.52943 7.47094 7.22783 7.52882 6.93686C7.5867 6.64589 7.72956 6.37861 7.93934 6.16883C8.14912 5.95905 8.41639 5.81619 8.70737 5.75831C8.99834 5.70044 9.29994 5.73014 9.57403 5.84367C9.84812 5.95721 10.0824 6.14946 10.2472 6.39614C10.412 6.64281 10.5 6.93282 10.5 7.22949" stroke="#989AAD" stroke-width="1.5" stroke-linecap="round" stroke-linejoin="round"/>
<path d="M9 4.72949V5.72949" stroke="#989AAD" stroke-width="1.5" stroke-linecap="round" stroke-linejoin="round"/>
<path d="M9 11.7295V12.7295" stroke="#989AAD" stroke-width="1.5" stroke-linecap="round" stroke-linejoin="round"/>
</svg>
