<svg width="50" height="50" viewBox="0 0 50 50" fill="none" xmlns="http://www.w3.org/2000/svg">
<rect width="50" height="50" rx="14" fill="#FFF7E8"/>
<path fill-rule="evenodd" clip-rule="evenodd" d="M35.8863 14.5854L14.5529 23.1192C14.5526 23.1194 14.5522 23.1195 14.5518 23.1197C14.423 23.1719 14.3117 23.2683 14.2331 23.3957C14.1543 23.5234 14.1124 23.6758 14.1133 23.8318L14.1133 23.8402H14.1133V26.1573L14.1132 26.1756C14.1114 26.3325 14.1528 26.4862 14.2316 26.6149C14.3102 26.7432 14.422 26.8404 14.5514 26.893C14.5519 26.8932 14.5524 26.8934 14.5529 26.8936L35.8863 35.4154V14.5854ZM35.8744 36.8854L35.4691 38.1981L13.7387 29.5177L13.7352 29.5163C13.1235 29.2696 12.595 28.8112 12.2241 28.2055C11.8548 27.6025 11.66 26.8838 11.6667 26.1492V23.844C11.6636 23.1118 11.8606 22.3965 12.2305 21.7971C12.6011 21.1964 13.127 20.7418 13.7351 20.4965L13.7381 20.4953L35.4686 11.8027L35.4796 11.7983C35.8051 11.6721 36.1524 11.6362 36.4925 11.6936C36.8327 11.751 37.1558 11.9001 37.435 12.1284C37.7143 12.3567 37.9414 12.6577 38.0976 13.0061C38.2534 13.3536 38.334 13.7382 38.3329 14.1281C38.3329 14.1293 38.3329 14.1304 38.3329 14.1316L37.1096 14.1253H38.3329V14.1281V35.8447C38.3329 35.8386 38.3328 35.8325 38.3327 35.8264L37.1097 35.8569H38.3329V35.8447C38.3379 36.2332 38.2616 36.6175 38.1104 36.9661C37.9568 37.3201 37.7303 37.6267 37.4502 37.8599C37.1701 38.0931 36.8447 38.246 36.5016 38.3056C36.1585 38.3651 35.8078 38.3297 35.4793 38.2021L35.8744 36.8854Z" fill="#FFB016"/>
<path fill-rule="evenodd" clip-rule="evenodd" d="M15.3382 29.096C16.0427 29.3602 16.3757 30.0879 16.082 30.7214C15.872 31.1743 15.7645 31.6602 15.7657 32.1509C15.7658 32.1614 15.7656 32.172 15.7654 32.1825C15.7427 33.0628 16.0815 33.9198 16.717 34.5899C17.3524 35.2599 18.2401 35.696 19.2104 35.8149C20.1807 35.9338 21.1658 35.7273 21.9775 35.2346C22.7892 34.7419 23.3707 33.9977 23.6109 33.1441C23.7982 32.4787 24.5499 32.0758 25.2899 32.2441C26.0299 32.4125 26.478 33.0884 26.2908 33.7538C25.8839 35.1998 24.8989 36.4603 23.5241 37.2948C22.1492 38.1292 20.4806 38.4792 18.8371 38.2777C17.1935 38.0763 15.69 37.3376 14.6136 36.2027C13.5411 35.0718 12.9676 33.6265 13.0014 32.1409C13.0016 31.3253 13.1814 30.5177 13.5306 29.7648C13.8244 29.1313 14.6337 28.8319 15.3382 29.096Z" fill="#FFB016"/>
</svg>
