<svg width="51" height="50" viewBox="0 0 51 50" fill="none" xmlns="http://www.w3.org/2000/svg">
<rect x="0.5" width="50" height="50" rx="14" fill="#F4F7FF"/>
<path d="M25.844 25.2419C26.4269 24.7347 26.8944 24.1075 27.2148 23.4027C27.5353 22.6979 27.7011 21.9321 27.7011 21.1572C27.7011 19.7011 27.1256 18.3046 26.1013 17.275C25.077 16.2454 23.6877 15.667 22.2391 15.667C20.7905 15.667 19.4013 16.2454 18.3769 17.275C17.3526 18.3046 16.7772 19.7011 16.7772 21.1572C16.7772 21.9321 16.943 22.6979 17.2634 23.4027C17.5839 24.1075 18.0514 24.7347 18.6342 25.2419C17.105 25.9379 15.8076 27.0619 14.8971 28.4795C13.9867 29.8971 13.5016 31.5483 13.5 33.2356C13.5 33.5268 13.6151 33.8061 13.82 34.0121C14.0248 34.218 14.3027 34.3337 14.5924 34.3337C14.8821 34.3337 15.16 34.218 15.3648 34.0121C15.5697 33.8061 15.6848 33.5268 15.6848 33.2356C15.6848 31.4883 16.3753 29.8126 17.6045 28.577C18.8337 27.3415 20.5008 26.6474 22.2391 26.6474C23.9775 26.6474 25.6446 27.3415 26.8738 28.577C28.1029 29.8126 28.7935 31.4883 28.7935 33.2356C28.7935 33.5268 28.9086 33.8061 29.1134 34.0121C29.3183 34.218 29.5962 34.3337 29.8859 34.3337C30.1756 34.3337 30.4535 34.218 30.6583 34.0121C30.8632 33.8061 30.9783 33.5268 30.9783 33.2356C30.9767 31.5483 30.4916 29.8971 29.5811 28.4795C28.6706 27.0619 27.3732 25.9379 25.844 25.2419V25.2419ZM22.2391 24.4513C21.591 24.4513 20.9574 24.2581 20.4184 23.8961C19.8795 23.5342 19.4595 23.0197 19.2114 22.4178C18.9634 21.8159 18.8985 21.1535 19.0249 20.5145C19.1514 19.8755 19.4635 19.2886 19.9218 18.8279C20.3801 18.3672 20.9641 18.0535 21.5998 17.9264C22.2355 17.7993 22.8944 17.8645 23.4933 18.1138C24.0921 18.3631 24.6039 18.7854 24.964 19.3271C25.3241 19.8688 25.5163 20.5057 25.5163 21.1572C25.5163 22.0308 25.171 22.8687 24.5565 23.4865C23.9419 24.1042 23.1083 24.4513 22.2391 24.4513ZM32.879 24.8027C33.5781 24.0114 34.0348 23.0338 34.1941 21.9877C34.3533 20.9416 34.2084 19.8715 33.7767 18.9062C33.3451 17.941 32.645 17.1217 31.7609 16.547C30.8768 15.9723 29.8463 15.6667 28.7935 15.667C28.5038 15.667 28.2259 15.7827 28.0211 15.9886C27.8162 16.1945 27.7011 16.4738 27.7011 16.765C27.7011 17.0562 27.8162 17.3355 28.0211 17.5415C28.2259 17.7474 28.5038 17.8631 28.7935 17.8631C29.6627 17.8631 30.4962 18.2101 31.1108 18.8279C31.7254 19.4457 32.0707 20.2835 32.0707 21.1572C32.0691 21.7339 31.917 22.3001 31.6294 22.7992C31.3419 23.2983 30.929 23.7127 30.4321 24.0011C30.2701 24.095 30.1349 24.2291 30.0392 24.3906C29.9436 24.5521 29.8908 24.7356 29.8859 24.9235C29.8813 25.1099 29.924 25.2944 30.0101 25.4596C30.0961 25.6248 30.2225 25.7653 30.3775 25.8678L30.8035 26.1533L30.9455 26.2301C32.2623 26.8579 33.3731 27.8508 34.1473 29.092C34.9214 30.3331 35.3266 31.7708 35.3151 33.2356C35.3151 33.5268 35.4302 33.8061 35.635 34.0121C35.8399 34.218 36.1177 34.3337 36.4075 34.3337C36.6972 34.3337 36.975 34.218 37.1799 34.0121C37.3848 33.8061 37.4999 33.5268 37.4999 33.2356C37.5088 31.5506 37.0889 29.8913 36.2802 28.4153C35.4714 26.9393 34.3006 25.6957 32.879 24.8027V24.8027Z" fill="#1476FF"/>
</svg>
