<svg width="51" height="50" viewBox="0 0 51 50" fill="none" xmlns="http://www.w3.org/2000/svg">
<rect x="0.5" width="50" height="50" rx="14" fill="#FFF4F4"/>
<path d="M12.167 24.0471C12.167 25.31 12.6687 26.5212 13.5617 27.4142C14.4548 28.3073 15.666 28.809 16.9289 28.809C18.1918 28.809 19.403 28.3073 20.2961 27.4142C21.1891 26.5212 21.6908 25.31 21.6908 24.0471C21.6908 22.7841 21.1891 21.5729 20.2961 20.6799C19.403 19.7869 18.1918 19.2852 16.9289 19.2852C15.666 19.2852 14.4548 19.7869 13.5617 20.6799C12.6687 21.5729 12.167 22.7841 12.167 24.0471V24.0471Z" stroke="#FF414C" stroke-width="3" stroke-linecap="round" stroke-linejoin="round"/>
<path d="M29.3105 17.3801C29.3105 18.643 29.8122 19.8542 30.7053 20.7472C31.5983 21.6403 32.8095 22.142 34.0725 22.142C35.3354 22.142 36.5466 21.6403 37.4396 20.7472C38.3327 19.8542 38.8344 18.643 38.8344 17.3801C38.8344 16.1171 38.3327 14.9059 37.4396 14.0129C36.5466 13.1199 35.3354 12.6182 34.0725 12.6182C32.8095 12.6182 31.5983 13.1199 30.7053 14.0129C29.8122 14.9059 29.3105 16.1171 29.3105 17.3801Z" stroke="#FF414C" stroke-width="3" stroke-linecap="round" stroke-linejoin="round"/>
<path d="M29.3105 32.6184C29.3105 33.8813 29.8122 35.0925 30.7053 35.9855C31.5983 36.8786 32.8095 37.3803 34.0725 37.3803C35.3354 37.3803 36.5466 36.8786 37.4396 35.9855C38.3327 35.0925 38.8344 33.8813 38.8344 32.6184C38.8344 31.3554 38.3327 30.1442 37.4396 29.2512C36.5466 28.3581 35.3354 27.8564 34.0725 27.8564C32.8095 27.8564 31.5983 28.3581 30.7053 29.2512C29.8122 30.1442 29.3105 31.3554 29.3105 32.6184Z" stroke="#FF414C" stroke-width="3" stroke-linecap="round" stroke-linejoin="round"/>
<path d="M21.3672 22.3214L29.6313 19.1074" stroke="#FF414C" stroke-width="3" stroke-linecap="round" stroke-linejoin="round"/>
<path d="M21.1895 26.1777L29.8117 30.4888" stroke="#FF414C" stroke-width="3" stroke-linecap="round" stroke-linejoin="round"/>
</svg>
