<svg width="24" height="24" viewBox="0 0 24 24" fill="none" xmlns="http://www.w3.org/2000/svg">
<path fill-rule="evenodd" clip-rule="evenodd" d="M7.70549 2.22366H14.1935C14.4291 2.22366 14.6546 2.31977 14.8178 2.48978L19.7584 7.63617C19.9132 7.79736 19.9996 8.01214 19.9996 8.23558V17.1734C20.0159 19.6834 18.0395 21.7544 15.5318 21.8561C15.5201 21.8566 15.5084 21.8569 15.4966 21.8569H7.71513C7.68954 21.8574 7.6674 21.8573 7.65194 21.8572C7.64061 21.8571 7.63403 21.857 7.62919 21.857C7.62343 21.8569 7.62012 21.8569 7.61417 21.8569C7.60775 21.8569 7.60133 21.8568 7.59492 21.8566C5.05921 21.8002 3.04873 19.7017 3.09856 17.1675V6.72658C3.09856 6.71978 3.09864 6.71299 3.0988 6.70619C3.1577 4.20728 5.20635 2.21498 7.70549 2.22366ZM4.82962 6.73744V17.1764C4.82962 17.1827 4.82955 17.189 4.82942 17.1952C4.795 18.7761 6.04605 20.0864 7.62549 20.1258C7.63301 20.1259 7.63984 20.1259 7.64552 20.126L7.66613 20.1262C7.67319 20.1263 7.67622 20.1262 7.67687 20.1262C7.68588 20.1259 7.69489 20.1258 7.70391 20.1258H15.478C17.0465 20.0535 18.2798 18.7547 18.2685 17.1826L18.2685 17.1764V8.58379L13.8246 3.95472H7.70058C6.14589 3.94874 4.87128 5.18555 4.82962 6.73744Z" fill="#1476FF"/>
<path fill-rule="evenodd" clip-rule="evenodd" d="M13.9378 2.21289C14.4158 2.21289 14.8033 2.6004 14.8033 3.07842V5.91596C14.8033 6.82351 15.5364 7.55898 16.444 7.56217H19.13C19.608 7.56217 19.9956 7.94968 19.9956 8.4277C19.9956 8.90572 19.608 9.29323 19.13 9.29323H16.4403C14.5782 9.28798 13.0723 7.77824 13.0723 5.91596V3.07842C13.0723 2.6004 13.4598 2.21289 13.9378 2.21289Z" fill="#1476FF"/>
<path fill-rule="evenodd" clip-rule="evenodd" d="M7.62305 15.3763C7.62305 14.8983 8.01056 14.5107 8.48858 14.5107H13.7559C14.2339 14.5107 14.6214 14.8983 14.6214 15.3763C14.6214 15.8543 14.2339 16.2418 13.7559 16.2418H8.48858C8.01056 16.2418 7.62305 15.8543 7.62305 15.3763Z" fill="#1476FF"/>
<path fill-rule="evenodd" clip-rule="evenodd" d="M7.62109 11.7171C7.62109 11.2391 8.0086 10.8516 8.48662 10.8516H11.7602C12.2382 10.8516 12.6257 11.2391 12.6257 11.7171C12.6257 12.1951 12.2382 12.5826 11.7602 12.5826H8.48662C8.0086 12.5826 7.62109 12.1951 7.62109 11.7171Z" fill="#1476FF"/>
</svg>
