<svg width="21" height="22" viewBox="0 0 21 22" fill="none" xmlns="http://www.w3.org/2000/svg">
<path fill-rule="evenodd" clip-rule="evenodd" d="M14.2577 2.03836H8.58072C8.3745 2.03836 8.1772 2.12645 8.03438 2.2823L3.71138 6.99982C3.57599 7.14758 3.50038 7.34446 3.50038 7.54928V15.7422C3.48612 18.0431 5.21544 19.9415 7.40972 20.0348C7.41995 20.0352 7.43019 20.0355 7.44043 20.0355H14.2493C14.2717 20.036 14.291 20.0359 14.3046 20.0358C14.3145 20.0357 14.3202 20.0356 14.3245 20.0356C14.3295 20.0355 14.3324 20.0355 14.3376 20.0355C14.3432 20.0355 14.3488 20.0354 14.3544 20.0353C16.5732 19.9836 18.3324 18.0599 18.2888 15.7368V6.16603C18.2888 6.1598 18.2887 6.15357 18.2885 6.14734C18.237 3.85667 16.4444 2.0304 14.2577 2.03836ZM16.7741 6.17599V15.745C16.7741 15.7508 16.7741 15.7566 16.7743 15.7623C16.8044 17.2114 15.7097 18.4125 14.3277 18.4487C14.3211 18.4487 14.3151 18.4488 14.3102 18.4488L14.2921 18.449C14.286 18.4491 14.2833 18.449 14.2827 18.449C14.2749 18.4488 14.267 18.4487 14.2591 18.4487H7.45679C6.08433 18.3824 5.00519 17.1918 5.01503 15.7507L5.01505 15.745V7.86848L8.90351 3.62516H14.262C15.6223 3.61968 16.7376 4.75342 16.7741 6.17599Z" fill="#1476FF"/>
<path fill-rule="evenodd" clip-rule="evenodd" d="M8.80467 2.0285C8.38641 2.0285 8.04734 2.38372 8.04734 2.8219V5.42298C8.04734 6.2549 7.40593 6.92909 6.61177 6.93201H4.26147C3.8432 6.93201 3.50413 7.28723 3.50413 7.72541C3.50413 8.16359 3.8432 8.51881 4.26147 8.51881H6.61501C8.24432 8.514 9.56201 7.13008 9.56201 5.42298V2.8219C9.56201 2.38372 9.22294 2.0285 8.80467 2.0285Z" fill="#1476FF"/>
<path fill-rule="evenodd" clip-rule="evenodd" d="M14.3301 14.0949C14.3301 13.6567 13.991 13.3015 13.5727 13.3015H8.96381C8.54555 13.3015 8.20648 13.6567 8.20648 14.0949C8.20648 14.5331 8.54555 14.8883 8.96381 14.8883H13.5727C13.991 14.8883 14.3301 14.5331 14.3301 14.0949Z" fill="#1476FF"/>
<path fill-rule="evenodd" clip-rule="evenodd" d="M14.3315 10.7407C14.3315 10.3025 13.9925 9.94727 13.5742 9.94727H10.7098C10.2916 9.94727 9.95251 10.3025 9.95251 10.7407C9.95251 11.1789 10.2916 11.5341 10.7098 11.5341H13.5742C13.9925 11.5341 14.3315 11.1789 14.3315 10.7407Z" fill="#1476FF"/>
</svg>
