<svg width="16" height="16" viewBox="0 0 16 16" fill="none" xmlns="http://www.w3.org/2000/svg">
<g clip-path="url(#clip0_1411_18349)">
<path d="M13.724 2.27615C13.5326 2.08562 13.3054 1.9349 13.0555 1.83267C12.8056 1.73045 12.5379 1.67876 12.2678 1.68059C11.9978 1.68242 11.7308 1.73773 11.4823 1.84332C11.2338 1.94892 11.0087 2.10271 10.8199 2.29581L2.67511 10.4406L1.68088 14.3192L5.55949 13.3245L13.7043 5.17964C13.8975 4.99098 14.0513 4.7659 14.1569 4.51742C14.2626 4.26894 14.3179 4.00199 14.3197 3.732C14.3215 3.462 14.2698 3.19432 14.1676 2.94444C14.0653 2.69455 13.9145 2.46741 13.724 2.27615V2.27615Z" stroke="#6F7182" stroke-width="1.4" stroke-linecap="round" stroke-linejoin="round"/>
</g>
<defs>
<clipPath id="clip0_1411_18349">
<rect width="15.1667" height="15.1667" fill="white" transform="translate(0.416992 0.416504)"/>
</clipPath>
</defs>
</svg>
