<svg width="18" height="18" viewBox="0 0 18 18" fill="none" xmlns="http://www.w3.org/2000/svg">
<path d="M1.5 8.46373C1.5 9.17413 1.78221 9.85543 2.28454 10.3578C2.78687 10.8601 3.46817 11.1423 4.17857 11.1423C4.88897 11.1423 5.57028 10.8601 6.07261 10.3578C6.57494 9.85543 6.85714 9.17413 6.85714 8.46373C6.85714 7.75333 6.57494 7.07202 6.07261 6.56969C5.57028 6.06736 4.88897 5.78516 4.17857 5.78516C3.46817 5.78516 2.78687 6.06736 2.28454 6.56969C1.78221 7.07202 1.5 7.75333 1.5 8.46373V8.46373Z" stroke="black" strokeWidth="1.5" strokeLinecap="round" strokeLinejoin="round"/>
<path d="M11.1431 4.71373C11.1431 5.42413 11.4253 6.10543 11.9276 6.60776C12.4299 7.11009 13.1112 7.3923 13.8216 7.3923C14.532 7.3923 15.2133 7.11009 15.7157 6.60776C16.218 6.10543 16.5002 5.42413 16.5002 4.71373C16.5002 4.00333 16.218 3.32202 15.7157 2.81969C15.2133 2.31736 14.532 2.03516 13.8216 2.03516C13.1112 2.03516 12.4299 2.31736 11.9276 2.81969C11.4253 3.32202 11.1431 4.00333 11.1431 4.71373Z" stroke="black" strokeWidth="1.5" strokeLinecap="round" strokeLinejoin="round"/>
<path d="M11.1431 13.285C11.1431 13.9954 11.4253 14.6767 11.9276 15.1791C12.4299 15.6814 13.1112 15.9636 13.8216 15.9636C14.532 15.9636 15.2133 15.6814 15.7157 15.1791C16.218 14.6767 16.5002 13.9954 16.5002 13.285C16.5002 12.5746 16.218 11.8933 15.7157 11.391C15.2133 10.8887 14.532 10.6064 13.8216 10.6064C13.1112 10.6064 12.4299 10.8887 11.9276 11.391C11.4253 11.8933 11.1431 12.5746 11.1431 13.285Z" stroke="black" strokeWidth="1.5" strokeLinecap="round" strokeLinejoin="round"/>
<path d="M6.67529 7.4934L11.3239 5.68555" stroke="black" strokeWidth="1.5" strokeLinecap="round" strokeLinejoin="round"/>
<path d="M6.5752 9.66211L11.4252 12.0871" stroke="black" strokeWidth="1.5" strokeLinecap="round" strokeLinejoin="round"/>
</svg>
