<svg width="17" height="16" viewBox="0 0 17 16" fill="none" xmlns="http://www.w3.org/2000/svg">
<path d="M14.5383 1.96159C14.3364 1.76059 14.0968 1.60158 13.8331 1.49374C13.5694 1.3859 13.287 1.33137 13.0022 1.3333C12.7173 1.33523 12.4357 1.39358 12.1735 1.50498C11.9113 1.61638 11.6738 1.77862 11.4747 1.98233L2.88235 10.5747L1.8335 14.6664L5.92522 13.6169L14.5176 5.02461C14.7213 4.82558 14.8836 4.58814 14.995 4.32601C15.1065 4.06387 15.1649 3.78225 15.1668 3.49742C15.1687 3.21259 15.1142 2.93021 15.0063 2.66659C14.8984 2.40297 14.7393 2.16335 14.5383 1.96159V1.96159Z" stroke="black" stroke-width="1.4" stroke-linecap="round" stroke-linejoin="round"/>
</svg>
