<svg width="117" height="121" viewBox="0 0 117 121" fill="none" xmlns="http://www.w3.org/2000/svg">
<path opacity="0.06" d="M57.6313 98.617C84.259 98.617 105.847 76.5835 105.847 49.3085C105.847 22.0335 84.1639 0 57.6313 0C31.0035 0 9.41602 22.0335 9.41602 49.3085C9.41602 76.5835 31.0035 98.617 57.6313 98.617Z" fill="#0257FB"/>
<path d="M89.2926 34.517C90.5814 34.517 91.6262 33.4507 91.6262 32.1352C91.6262 30.8198 90.5814 29.7534 89.2926 29.7534C88.0038 29.7534 86.959 30.8198 86.959 32.1352C86.959 33.4507 88.0038 34.517 89.2926 34.517Z" fill="#1476FF"/>
<path d="M106.376 61.2431C108.378 61.2431 110.001 59.5869 110.001 57.5439C110.001 55.5009 108.378 53.8447 106.376 53.8447C104.375 53.8447 102.752 55.5009 102.752 57.5439C102.752 59.5869 104.375 61.2431 106.376 61.2431Z" fill="#1476FF"/>
<path d="M89.2011 26.0354C90.0813 26.0354 90.7948 25.3072 90.7948 24.4088C90.7948 23.5105 90.0813 22.7822 89.2011 22.7822C88.3209 22.7822 87.6074 23.5105 87.6074 24.4088C87.6074 25.3072 88.3209 26.0354 89.2011 26.0354Z" fill="#1476FF"/>
<path d="M24.6581 31.3816C25.5383 31.3816 26.2518 30.6534 26.2518 29.755C26.2518 28.8567 25.5383 28.1284 24.6581 28.1284C23.778 28.1284 23.0645 28.8567 23.0645 29.755C23.0645 30.6534 23.778 31.3816 24.6581 31.3816Z" fill="#1476FF"/>
<path d="M10.7903 55.1844C12.8836 55.1844 14.5805 53.4524 14.5805 51.3158C14.5805 49.1793 12.8836 47.4473 10.7903 47.4473C8.69696 47.4473 7 49.1793 7 51.3158C7 53.4524 8.69696 55.1844 10.7903 55.1844Z" fill="#1476FF"/>
<g filter="url(#filter0_d_77_44769)">
<path d="M89.7375 41.6573V73.1093C89.7375 73.239 89.7375 73.3038 89.7375 73.4335C89.674 75.2493 88.848 76.8057 87.5773 77.9081C86.4972 78.8809 85.0358 79.5294 83.4474 79.5294H33.6982C32.6181 79.5294 31.6015 79.27 30.712 78.7512C30.3308 78.5566 29.9495 78.2972 29.6319 77.973C28.933 77.3893 28.2976 76.5463 27.9799 75.6384C27.7258 74.9899 27.5352 74.2766 27.5352 73.5632V41.6573C27.5352 41.6573 30.1402 39.3876 33.8888 36.2749C37.7646 32.9675 42.8475 28.6875 47.295 24.9262C49.8365 22.7213 49.5824 22.9807 53.5216 19.6086C56.5079 17.0146 60.8919 17.0146 63.8781 19.6086C64.6405 20.2571 65.4665 21.0353 66.229 21.6837C67.8809 23.0456 69.6599 24.602 71.566 26.2232C75.5688 29.5954 79.9529 33.3566 83.3839 36.2749C86.8784 39.1931 89.4198 41.3979 89.7375 41.6573Z" fill="white" fill-opacity="0.01"/>
</g>
<path d="M89.7375 41.6573V73.1093C89.7375 73.239 89.7375 73.3038 89.7375 73.4335C89.674 75.2493 88.848 76.8057 87.5773 77.9081C86.4972 78.8809 85.0358 79.5294 83.4474 79.5294H33.6982C32.6181 79.5294 31.6015 79.27 30.712 78.7512C30.3308 78.5566 29.9495 78.2972 29.6319 77.973C28.933 77.3893 28.2976 76.5463 27.9799 75.6384C27.7258 74.9899 27.5352 74.2766 27.5352 73.5632V41.6573C27.5352 41.6573 30.1402 39.3876 33.8888 36.2749C37.7646 32.9675 42.8475 28.6875 47.295 24.9262C49.8365 22.7213 49.5824 22.9807 53.5216 19.6086C56.5079 17.0146 60.8919 17.0146 63.8781 19.6086C64.6405 20.2571 65.4665 21.0353 66.229 21.6837C67.8809 23.0456 69.6599 24.602 71.566 26.2232C75.5688 29.5954 79.9529 33.3566 83.3839 36.2749C86.8784 39.1931 89.4198 41.3979 89.7375 41.6573Z" fill="#D3E2FF"/>
<g filter="url(#filter1_d_77_44769)">
<path d="M80.5608 28.259V47.5205L70.94 53.3745L68.103 55.137L61.9975 58.7879L59.1606 60.5503L57.9272 61.2427L56.7554 60.5503L54.0419 58.7879L48.2447 55.137L45.5311 53.3745L36.6504 47.7093V28.259C36.6504 26.2447 38.2539 24.6081 40.289 24.6081H76.9221C78.8956 24.5452 80.5608 26.2447 80.5608 28.259Z" fill="#FF000F" fill-opacity="0.01" shape-rendering="crispEdges"/>
</g>
<path d="M81.2244 27.262V47.1059L71.3127 53.1369L68.39 54.9527L62.0999 58.714L59.1772 60.5297L57.9065 61.2431L56.6993 60.5297L53.9037 58.714L47.9312 54.9527L45.1356 53.1369L35.9863 47.3005V27.262C35.9863 25.1869 37.6383 23.5008 39.735 23.5008H77.4758C79.5089 23.4359 81.2244 25.1869 81.2244 27.262Z" fill="url(#paint0_linear_77_44769)"/>
<path d="M89.7375 41.6582V73.4344C89.674 75.2502 88.848 76.8066 87.5773 77.909C86.4972 78.8817 85.0358 79.5302 83.4474 79.5302H33.6982C32.6181 79.5302 31.6015 79.2708 30.712 78.752C30.3308 78.5575 29.9495 78.2981 29.6319 77.9738C28.933 77.3902 28.2976 76.5472 27.9799 75.6393C27.7258 74.9908 27.5352 74.2774 27.5352 73.5641V73.4992V41.6582L55.3642 59.4269L57.7786 60.9833L58.6046 60.4645L59.367 60.0106L89.7375 41.6582Z" fill="#738DFF"/>
<path d="M87.6408 77.909C86.5607 78.8817 85.0993 79.5302 83.5109 79.5302H33.6982C32.6181 79.5302 31.6015 79.2708 30.712 78.752C30.3308 78.5575 29.9495 78.2981 29.6319 77.9738C28.933 77.3902 28.2976 76.5472 27.9799 75.6393C27.7258 74.9908 27.5352 74.2774 27.5352 73.5641V73.4992V41.6582L30.7755 43.6685L58.6046 60.4645L59.367 60.9185L59.4305 60.9833L84.4004 76.0284L87.6408 77.909Z" fill="#2E85FF"/>
<path d="M27.5352 41.6582L58.6046 60.4645Z" fill="#2E85FF"/>
<path d="M27.5352 41.6582L58.6046 60.4645" stroke="#3489FF" stroke-width="1.23093" stroke-miterlimit="10"/>
<path d="M89.7385 41.6582V73.4344C89.6749 75.2502 88.8489 76.8066 87.5782 77.909C86.4981 78.8817 85.0367 79.5302 83.4483 79.5302H33.6992C32.619 79.5302 31.6024 79.2708 30.7129 78.752C30.3317 78.5575 29.9505 78.2981 29.6328 77.9738L32.8096 76.0284L57.7795 60.9833L58.6055 60.4645L59.368 60.0106L86.4346 43.6037L89.7385 41.6582Z" fill="#1476FF"/>
<path d="M89.7385 41.6582L59.368 59.9457L58.6055 60.4645L57.7795 60.9833L29.6328 77.909" stroke="#1476FF" stroke-width="1.23093" stroke-miterlimit="10"/>
<path opacity="0.3" d="M82.2419 63.9008H65.7223C65.3411 63.9008 65.0234 63.5766 65.0234 63.1875C65.0234 62.7984 65.3411 62.4741 65.7223 62.4741H82.2419C82.6231 62.4741 82.9408 62.7984 82.9408 63.1875C83.0043 63.5766 82.6866 63.9008 82.2419 63.9008Z" fill="white"/>
<path opacity="0.3" d="M82.2419 68.7651H65.7223C65.3411 68.7651 65.0234 68.4408 65.0234 68.0517C65.0234 67.6626 65.3411 67.3384 65.7223 67.3384H82.2419C82.6231 67.3384 82.9408 67.6626 82.9408 68.0517C83.0043 68.4408 82.6866 68.7651 82.2419 68.7651Z" fill="white"/>
<path d="M85.6719 78.8828L87.705 77.8452C87.6415 77.9101 87.6415 77.9101 87.578 77.9749C87.578 77.9749 87.578 77.9749 87.5144 77.9749L85.6719 78.8828Z" fill="#526DFF"/>
<path d="M56.8081 47.2686C56.3956 47.2686 56.0074 47.1139 55.692 46.7787L50.3299 41.0798C49.7234 40.4351 49.7234 39.3521 50.3299 38.7074C50.9365 38.0627 51.9555 38.0627 52.5621 38.7074L56.8081 43.2201L66.8044 32.6217C67.4109 31.977 68.43 31.977 69.0365 32.6217C69.6431 33.2664 69.6431 34.3494 69.0365 34.9941L57.9242 46.7787C57.633 47.1139 57.2206 47.2686 56.8081 47.2686Z" fill="#1476FF"/>
<defs>
<filter id="filter0_d_77_44769" x="0.454689" y="4.12285" width="116.364" height="116.027" filterUnits="userSpaceOnUse" color-interpolation-filters="sRGB">
<feFlood flood-opacity="0" result="BackgroundImageFix"/>
<feColorMatrix in="SourceAlpha" type="matrix" values="0 0 0 0 0 0 0 0 0 0 0 0 0 0 0 0 0 0 127 0" result="hardAlpha"/>
<feOffset dy="13.5402"/>
<feGaussianBlur stdDeviation="13.5402"/>
<feColorMatrix type="matrix" values="0 0 0 0 0.00784314 0 0 0 0 0.341177 0 0 0 0 0.984314 0 0 0 0.19 0"/>
<feBlend mode="normal" in2="BackgroundImageFix" result="effect1_dropShadow_77_44769"/>
<feBlend mode="normal" in="SourceGraphic" in2="effect1_dropShadow_77_44769" result="shape"/>
</filter>
<filter id="filter1_d_77_44769" x="26.6504" y="16.6064" width="63.9102" height="56.6362" filterUnits="userSpaceOnUse" color-interpolation-filters="sRGB">
<feFlood flood-opacity="0" result="BackgroundImageFix"/>
<feColorMatrix in="SourceAlpha" type="matrix" values="0 0 0 0 0 0 0 0 0 0 0 0 0 0 0 0 0 0 127 0" result="hardAlpha"/>
<feOffset dy="2"/>
<feGaussianBlur stdDeviation="5"/>
<feComposite in2="hardAlpha" operator="out"/>
<feColorMatrix type="matrix" values="0 0 0 0 0.04375 0 0 0 0 0.233854 0 0 0 0 0.5 0 0 0 0.22 0"/>
<feBlend mode="normal" in2="BackgroundImageFix" result="effect1_dropShadow_77_44769"/>
<feBlend mode="normal" in="SourceGraphic" in2="effect1_dropShadow_77_44769" result="shape"/>
</filter>
<linearGradient id="paint0_linear_77_44769" x1="58.5906" y1="22.626" x2="58.6059" y2="69.9854" gradientUnits="userSpaceOnUse">
<stop stop-color="white"/>
<stop offset="0.9964" stop-color="#ECF0F5"/>
</linearGradient>
</defs>
</svg>
