<svg width="177" height="120" viewBox="0 0 177 120" fill="none" xmlns="http://www.w3.org/2000/svg">
<g opacity="0.2">
<mask id="mask0_36_23438" style="mask-type:alpha" maskUnits="userSpaceOnUse" x="-81" y="0" width="258" height="257">
<circle cx="48" cy="128.821" r="128.14" fill="#1476FF"/>
</mask>
<g mask="url(#mask0_36_23438)">
<path d="M175.538 9.49062C175.392 9.49039 175.249 9.44001 175.135 9.34784C172.512 7.22397 170.699 5.14345 168.598 2.73402L167.764 1.78045C167.652 1.65299 167.595 1.48615 167.606 1.31664C167.617 1.14714 167.694 0.988849 167.822 0.876597C167.949 0.764346 168.116 0.707326 168.285 0.718084C168.455 0.728842 168.613 0.806496 168.726 0.933962L169.564 1.89264C171.624 4.25617 173.404 6.29845 175.938 8.35092C176.041 8.43464 176.115 8.54787 176.15 8.67516C176.186 8.80246 176.181 8.93763 176.137 9.06225C176.093 9.18686 176.012 9.29486 175.904 9.37152C175.797 9.44818 175.668 9.48977 175.536 9.49062H175.538Z" fill="white"/>
<path d="M175.538 27.555C175.451 27.5563 175.364 27.5398 175.284 27.5065C164.766 23.1721 157.864 13.1162 151.776 4.24598C151.192 3.39695 150.613 2.55301 150.037 1.72182C149.94 1.58219 149.903 1.40986 149.933 1.24274C149.964 1.07563 150.059 0.927417 150.199 0.830718C150.338 0.73402 150.511 0.696752 150.678 0.727115C150.845 0.757478 150.993 0.852987 151.09 0.992624C151.669 1.82381 152.247 2.6703 152.831 3.52188C159.114 12.6701 165.608 22.1344 175.778 26.3235C175.916 26.3803 176.03 26.4835 176.099 26.6152C176.169 26.7469 176.191 26.8989 176.161 27.0448C176.131 27.1908 176.05 27.3217 175.934 27.4148C175.817 27.508 175.672 27.5575 175.523 27.555H175.538Z" fill="white"/>
<path d="M175.538 45.5513H175.472C157.548 43.6595 146.281 24.7716 137.227 9.60113C135.547 6.78375 133.958 4.12191 132.413 1.71248C132.321 1.56946 132.29 1.39577 132.326 1.22961C132.362 1.06345 132.463 0.918441 132.606 0.826476C132.749 0.734511 132.923 0.703128 133.089 0.739228C133.255 0.775329 133.4 0.875954 133.492 1.01897C135.047 3.44625 136.641 6.11829 138.336 8.94586C147.242 23.8767 158.328 42.4586 175.612 44.2841C175.773 44.3042 175.92 44.3843 176.023 44.5083C176.127 44.6322 176.18 44.7909 176.172 44.9524C176.163 45.1138 176.094 45.2662 175.978 45.3787C175.862 45.4912 175.708 45.5556 175.546 45.559L175.538 45.5513Z" fill="white"/>
<path d="M174.291 63.5073C162.463 63.5073 153.415 58.8746 145.088 48.6097C137.37 39.0943 130.858 28.1614 124.563 17.5905C121.416 12.3102 118.166 6.85136 114.838 1.7036C114.793 1.63295 114.762 1.55402 114.747 1.47133C114.732 1.38863 114.733 1.30378 114.751 1.22163C114.769 1.13947 114.802 1.06162 114.85 0.992511C114.898 0.923405 114.959 0.8644 115.03 0.818864C115.1 0.773328 115.179 0.742153 115.262 0.727119C115.345 0.712085 115.429 0.713486 115.512 0.731243C115.594 0.749 115.672 0.782765 115.741 0.830609C115.81 0.878454 115.869 0.93944 115.914 1.01009C119.254 6.1757 122.51 11.6447 125.662 16.9353C131.936 27.4679 138.41 38.3524 146.082 47.8014C154.429 58.0919 163.506 62.541 175.52 62.2096H175.538C175.698 62.2214 175.847 62.2926 175.957 62.4091C176.066 62.5255 176.128 62.6789 176.131 62.8388C176.133 62.9988 176.075 63.1538 175.969 63.2733C175.862 63.3927 175.715 63.4681 175.556 63.4844C175.13 63.4997 174.709 63.5073 174.291 63.5073Z" fill="white"/>
<path d="M167.769 81.9439C154.414 81.9439 144.478 76.4468 136.197 64.7031C132.268 59.1347 128.803 53.1251 125.47 47.3119C124.671 45.9249 123.873 44.5404 123.074 43.1585C116.248 31.4301 107.151 16.1168 97.3017 1.71888C97.2057 1.5789 97.1692 1.40651 97.2003 1.23964C97.2314 1.07276 97.3274 0.925066 97.4674 0.829044C97.6074 0.733022 97.7798 0.69654 97.9467 0.72762C98.1135 0.7587 98.2612 0.854799 98.3573 0.994774C108.232 15.4284 117.345 30.7646 124.18 42.516C124.986 43.8979 125.786 45.2841 126.582 46.6745C129.897 52.4596 133.349 58.4462 137.242 63.9637C146.763 77.4616 158.547 82.4385 175.451 80.1031C175.62 80.0801 175.792 80.1252 175.927 80.2284C176.063 80.3317 176.152 80.4847 176.175 80.6538C176.198 80.8228 176.153 80.9941 176.05 81.1299C175.947 81.2657 175.794 81.3549 175.625 81.3779C173.022 81.7465 170.398 81.9356 167.769 81.9439Z" fill="white"/>
<path d="M158.471 100.853C152.831 100.853 147.299 99.8996 142.113 96.8604C135.343 92.8982 130.828 86.2181 127.302 80.2035C124.211 74.9384 121.369 69.4235 118.618 64.0896C116.71 60.3952 114.742 56.5758 112.71 52.8711C102.667 34.5875 91.5733 17.3824 79.7403 1.73262C79.6562 1.5967 79.626 1.43421 79.6556 1.27713C79.6853 1.12006 79.7726 0.979764 79.9005 0.883854C80.0284 0.787945 80.1875 0.743364 80.3466 0.758885C80.5057 0.774406 80.6533 0.848904 80.7602 0.967721C92.6289 16.6634 103.756 33.9221 113.829 52.2592C115.869 55.9715 117.842 59.7986 119.752 63.5007C122.496 68.8167 125.331 74.3163 128.403 79.5635C131.845 85.4277 136.243 91.9498 142.755 95.7641C152.028 101.192 162.66 99.6625 172.946 98.1862C173.782 98.0639 174.616 97.9449 175.447 97.8293C175.531 97.8176 175.616 97.8224 175.698 97.8436C175.779 97.8649 175.856 97.902 175.924 97.9529C175.991 98.0038 176.048 98.0675 176.091 98.1403C176.134 98.2132 176.162 98.2938 176.174 98.3775C176.185 98.4612 176.18 98.5464 176.159 98.6282C176.138 98.71 176.101 98.7868 176.05 98.8543C175.999 98.9218 175.935 98.9786 175.862 99.0214C175.79 99.0643 175.709 99.0924 175.625 99.1041L173.127 99.4611C168.27 100.144 163.331 100.853 158.471 100.853Z" fill="white"/>
<path d="M154.924 117.566C152.749 117.566 150.59 117.525 148.438 117.426L147.125 117.37C142.706 117.186 137.691 116.98 133.866 114.93C125.998 110.712 121.429 100.906 118.405 94.4099C116.697 90.7435 115.032 86.9955 113.423 83.3699C110.249 76.2309 106.97 68.8369 103.225 61.8024C91.8619 40.3004 78.0883 20.1618 62.1699 1.77573C62.0688 1.64598 62.0213 1.48238 62.0372 1.31865C62.0531 1.15493 62.1312 1.00354 62.2554 0.895675C62.3796 0.787814 62.5405 0.731702 62.7048 0.738897C62.8691 0.746091 63.0245 0.816045 63.1388 0.934346C79.1229 19.3943 92.9545 39.6131 104.367 61.2006C108.122 68.281 111.411 75.6878 114.593 82.8498C116.2 86.4703 117.865 90.2132 119.565 93.8694C122.518 100.208 126.98 109.784 134.473 113.8C138.043 115.712 142.887 115.914 147.176 116.095L148.496 116.151C157.54 116.569 167.081 115.97 175.497 115.44C175.655 115.447 175.805 115.512 175.918 115.623C176.031 115.734 176.099 115.882 176.11 116.04C176.12 116.198 176.071 116.355 175.973 116.479C175.875 116.603 175.735 116.687 175.579 116.714C169.115 117.11 161.992 117.566 154.924 117.566Z" fill="white"/>
<path d="M175.538 134.319C173.442 134.291 171.338 134.283 169.112 134.273C154.873 134.214 138.736 134.148 125.495 128.789C115.774 124.852 112.836 116.311 109.728 107.267L109.522 106.665C105.221 94.1721 100.771 81.2504 94.7108 68.9687C83.3929 46.037 67.0037 24.0692 44.6126 1.81066C44.4922 1.69097 44.4243 1.52837 44.4238 1.35862C44.4234 1.18888 44.4903 1.0259 44.61 0.90553C44.7297 0.785164 44.8923 0.717278 45.0621 0.716799C45.2318 0.716321 45.3948 0.783292 45.5151 0.902982C68.0031 23.2609 84.4689 45.341 95.8505 68.4129C101.947 80.766 106.409 93.7259 110.725 106.26L110.932 106.859C114.073 116 116.796 123.893 125.975 127.611C138.978 132.878 154.992 132.945 169.115 133.003C171.343 133.003 173.449 133.021 175.55 133.049C175.71 133.064 175.858 133.137 175.966 133.255C176.073 133.373 176.133 133.527 176.133 133.687C176.133 133.847 176.073 134.001 175.966 134.119C175.858 134.237 175.71 134.31 175.55 134.324L175.538 134.319Z" fill="white"/>
<path d="M175.538 151.913H175.485C173.243 151.729 170.992 151.558 168.6 151.38C151.497 150.105 132.11 148.639 116.868 140.906C106.802 135.806 103.288 128.073 100.619 116.455C96.3559 97.8854 91.6951 84.1453 85.5071 71.9018C73.4192 47.9784 54.8347 25.7173 27.023 1.84482C26.8938 1.73426 26.8139 1.57692 26.8007 1.40742C26.7876 1.23791 26.8423 1.07013 26.9529 0.940969C27.0634 0.811813 27.2208 0.731868 27.3903 0.718718C27.5598 0.705569 27.7276 0.760295 27.8567 0.870855C55.8112 24.8581 74.4926 47.2491 86.6621 71.323C92.896 83.6608 97.5899 97.4927 101.878 116.164C104.461 127.413 107.84 134.881 117.459 139.761C132.472 147.377 151.722 148.825 168.708 150.1C171.094 150.278 173.345 150.449 175.592 150.635C175.751 150.655 175.898 150.734 176.002 150.856C176.107 150.979 176.161 151.137 176.154 151.297C176.147 151.458 176.08 151.611 175.966 151.724C175.852 151.838 175.699 151.904 175.538 151.91V151.913Z" fill="white"/>
<path d="M175.538 169.514H175.446C173.343 169.213 171.193 168.914 169.011 168.611C148.157 165.717 124.519 162.438 107.026 151.146C95.8943 143.961 93.0566 133.076 91.7511 123.375C89.1479 104.031 84.6452 88.6128 77.5801 74.8498C70.4411 60.9286 60.6759 47.7622 47.7491 34.5958C37.5352 24.1727 25.3631 13.7752 9.43794 1.86578C9.36238 1.81902 9.2974 1.75703 9.24712 1.68378C9.19683 1.61053 9.16235 1.52761 9.14587 1.4403C9.12939 1.35298 9.13127 1.2632 9.15139 1.17665C9.17152 1.09011 9.20944 1.00871 9.26276 0.937623C9.31607 0.866541 9.3836 0.807341 9.46104 0.763789C9.53849 0.720237 9.62417 0.693292 9.7126 0.684665C9.80104 0.676038 9.89029 0.685918 9.9747 0.71368C10.0591 0.741442 10.1368 0.786475 10.2028 0.845913C26.1764 12.7936 38.3995 23.2319 48.6695 33.6932C61.6728 46.9514 71.5094 60.2224 78.7173 74.2608C85.8563 88.1564 90.3947 103.707 93.0183 123.199C93.875 129.573 95.2238 134.417 97.261 138.497C99.6576 143.285 103.077 147.069 107.715 150.062C124.971 161.202 148.458 164.46 169.182 167.334C171.367 167.637 173.516 167.935 175.625 168.239C175.787 168.259 175.936 168.341 176.04 168.468C176.144 168.594 176.195 168.756 176.183 168.92C176.172 169.083 176.098 169.236 175.977 169.346C175.856 169.457 175.697 169.517 175.533 169.514H175.538Z" fill="white"/>
<path d="M175.538 187.063C175.489 187.063 175.441 187.057 175.393 187.045C171.145 186.066 166.865 185.153 162.331 184.189C139.494 179.322 115.876 174.307 97.7025 160.538C85.5126 151.306 83.376 139.175 82.8813 127.439C82.0374 107.391 77.5423 90.2545 69.1387 75.0509C61.2347 60.7728 50.0341 47.3667 34.861 34.083C21.6283 22.4973 6.86322 12.24 -8.36334 1.88587C-8.43299 1.83866 -8.49264 1.77819 -8.53891 1.70792C-8.58519 1.63765 -8.61718 1.55896 -8.63305 1.47633C-8.64891 1.3937 -8.64833 1.30876 -8.63137 1.22635C-8.6144 1.14394 -8.58138 1.06568 -8.53417 0.996037C-8.48696 0.926393 -8.42648 0.866732 -8.35622 0.820456C-8.28595 0.77418 -8.20725 0.742197 -8.12462 0.726334C-8.042 0.710471 -7.95705 0.711038 -7.87464 0.728003C-7.79223 0.744968 -7.71398 0.778 -7.64434 0.82521C7.61792 11.2049 22.4161 21.4774 35.6999 33.1192C50.9978 46.5049 62.2877 60.0181 70.2554 74.4237C78.756 89.8032 83.302 107.126 84.1562 127.378C84.9695 146.704 91.517 154.243 98.4699 159.503C116.42 173.098 139.892 178.093 162.594 182.922C167.13 183.886 171.418 184.798 175.679 185.783C175.762 185.792 175.843 185.818 175.917 185.859C175.991 185.9 176.056 185.955 176.108 186.021C176.161 186.087 176.2 186.162 176.223 186.243C176.246 186.324 176.253 186.409 176.243 186.493C176.234 186.576 176.208 186.657 176.167 186.731C176.126 186.805 176.071 186.87 176.005 186.922C175.939 186.975 175.864 187.014 175.783 187.037C175.702 187.06 175.617 187.067 175.533 187.057L175.538 187.063Z" fill="white"/>
<path d="M175.538 204.623C175.467 204.623 175.397 204.611 175.329 204.588C165.995 201.357 156.339 198.323 147.003 195.388C137.031 192.252 126.72 189.014 116.756 185.521C106.504 181.931 96.1905 175.792 87.7205 168.237C81.6727 162.845 77.5448 156.866 75.4465 150.471C73.5215 144.607 73.728 138.376 73.9167 132.348C73.9498 131.402 73.9804 130.456 74.0034 129.518C74.5413 107.555 70.2834 89.9983 60.6049 74.2261C43.1703 45.8178 13.8441 27.2869 -14.5183 9.36277C-18.3937 6.9151 -22.4018 4.38074 -26.2594 1.89482C-26.4021 1.80286 -26.5024 1.65798 -26.5383 1.49206C-26.5741 1.32614 -26.5426 1.15277 -26.4507 1.01009C-26.3587 0.86741 -26.2138 0.767107 -26.0479 0.731245C-25.882 0.695384 -25.7086 0.726902 -25.5659 0.818866C-21.7134 3.30223 -17.7079 5.83405 -13.8375 8.28172C14.6473 26.2823 44.101 44.8948 61.7013 73.553C71.5124 89.5368 75.8468 107.328 75.2935 129.549C75.2705 130.492 75.24 131.44 75.2094 132.391C75.013 138.307 74.8091 144.421 76.6627 150.071C78.6896 156.249 82.6977 162.039 88.5747 167.281C96.9222 174.726 107.08 180.776 117.179 184.313C127.123 187.796 137.426 191.034 147.388 194.167C156.732 197.104 166.395 200.141 175.747 203.377C175.892 203.425 176.015 203.523 176.093 203.654C176.171 203.785 176.201 203.939 176.175 204.089C176.15 204.24 176.072 204.376 175.955 204.474C175.839 204.572 175.691 204.625 175.538 204.623Z" fill="white"/>
<path d="M175.538 222.218C175.443 222.218 175.349 222.196 175.263 222.155C162.586 216.109 149.335 210.725 136.523 205.516C129.259 202.563 121.751 199.511 114.431 196.372L113.278 195.878C100.864 190.562 88.0366 185.067 78.2408 175.019C71.1017 167.679 66.8413 160.858 65.2375 154.168C63.7077 147.697 64.2763 140.69 64.8372 133.916C64.9469 132.593 65.0489 131.346 65.1381 130.092L65.2477 128.562C65.8367 120.319 66.4486 111.795 65.0642 103.644C63.4171 93.9552 59.0163 83.6597 52.3362 73.8613C43.0988 60.3125 30.1211 50.4759 16.511 40.7693C3.62756 31.5778 -10.0055 23.1767 -23.177 15.0484C-30.0968 10.7828 -37.2486 6.37951 -44.2321 1.88701C-44.3748 1.79505 -44.4751 1.65017 -44.5109 1.48425C-44.5468 1.31833 -44.5153 1.14496 -44.4233 1.00228C-44.3314 0.859598 -44.1865 0.759294 -44.0206 0.723433C-43.8546 0.687571 -43.6813 0.719089 -43.5386 0.811054C-36.5678 5.28826 -29.4186 9.69661 -22.5065 13.9596C-9.30941 22.0956 4.33636 30.5095 17.2682 39.7265C30.9727 49.5121 44.0499 59.4252 53.4097 73.1474C60.1943 83.0911 64.6664 93.5702 66.3415 103.437C67.7515 111.742 67.137 120.342 66.5404 128.661L66.4308 130.191C66.3415 131.45 66.2344 132.761 66.1299 134.028C65.5766 140.703 65.0055 147.608 66.4996 153.877C68.0294 160.338 72.1803 166.965 79.1638 174.132C88.7734 183.996 101.489 189.43 113.788 194.71L114.938 195.202C122.25 198.336 129.754 201.388 137.01 204.338C149.84 209.552 163.109 214.947 175.819 221.007C175.95 221.069 176.057 221.175 176.121 221.305C176.185 221.436 176.202 221.585 176.17 221.727C176.138 221.869 176.058 221.996 175.944 222.087C175.83 222.177 175.689 222.227 175.543 222.226L175.538 222.218Z" fill="white"/>
<path d="M175.538 239.859C175.415 239.859 175.295 239.824 175.192 239.757C160.184 230.102 143.912 222.231 128.176 214.618C124.017 212.606 119.716 210.538 115.497 208.44C113.95 207.675 112.385 206.91 110.803 206.145C96.4735 199.128 81.6574 191.867 70.1738 181.222C63.0704 174.634 58.6697 166.804 56.7192 157.283C54.8274 148.059 55.4444 138.161 56.2832 129.688C57.8921 113.61 56.7702 104.819 55.786 99.6025C53.81 89.1285 49.5496 80.4086 42.7598 72.9432C30.8198 59.8176 15.5855 49.7643 -0.280991 39.7773C-8.31242 34.7213 -16.6218 29.8897 -24.6557 25.2161C-37.1746 17.9369 -50.1217 10.4103 -62.2683 1.88677C-62.4076 1.7894 -62.5025 1.64067 -62.5322 1.47332C-62.5618 1.30596 -62.5238 1.13369 -62.4264 0.994389C-62.329 0.855089 -62.1803 0.760175 -62.0129 0.730529C-61.8456 0.700884 -61.6733 0.738937 -61.534 0.836311C-49.4308 9.32923 -36.5091 16.8431 -24.0132 24.1096C-15.969 28.7882 -7.64949 33.6249 0.39978 38.6937C16.3479 48.7291 31.6586 58.836 43.7083 72.0942C50.6612 79.7432 55.0237 88.667 57.0456 99.3755C59.1286 110.421 58.3357 122.042 57.5555 129.821C56.7192 138.194 56.1149 147.975 57.9711 157.031C59.868 166.281 64.1413 173.889 71.0432 180.289C82.3866 190.811 97.1185 198.024 111.363 205C112.944 205.774 114.511 206.539 116.063 207.295C120.277 209.378 124.576 211.456 128.732 213.468C144.501 221.096 160.809 228.985 175.883 238.684C175.999 238.759 176.088 238.869 176.136 238.999C176.184 239.128 176.189 239.27 176.15 239.403C176.111 239.535 176.03 239.652 175.919 239.734C175.809 239.817 175.674 239.862 175.536 239.862L175.538 239.859Z" fill="white"/>
<path d="M175.538 256.962C175.379 256.963 175.226 256.904 175.109 256.796C158.774 242.039 139.024 231.764 119.927 221.828C101.139 212.052 81.7101 201.941 65.3923 187.532C55.0815 178.423 49.0745 168.596 47.0348 157.49C45.2959 148.036 46.354 138.367 47.3764 129.036L47.4351 128.498C48.4549 119.25 49.4926 109.689 47.7895 100.421C45.8033 89.6077 39.934 80.0235 29.845 71.0997C13.6699 56.7987 -5.68964 46.7402 -24.4118 36.9853C-43.5801 27.0135 -63.3986 16.7002 -79.8567 1.83055C-79.9242 1.77583 -79.9799 1.70791 -80.0203 1.63096C-80.0608 1.554 -80.0851 1.46961 -80.0918 1.38295C-80.0986 1.29628 -80.0876 1.20915 -80.0595 1.12686C-80.0315 1.04458 -79.987 0.968875 -79.9287 0.904364C-79.8704 0.839853 -79.7996 0.78789 -79.7206 0.751644C-79.6416 0.715398 -79.556 0.695629 -79.4691 0.693544C-79.3822 0.691458 -79.2958 0.707099 -79.2152 0.739513C-79.1345 0.771928 -79.0613 0.820438 -79 0.88208C-62.6643 15.6344 -42.9172 25.9146 -23.8203 35.8507C-5.02928 45.6261 14.4017 55.738 30.7067 70.1436C41.0176 79.2561 47.0246 89.0825 49.0643 100.189C50.8006 109.643 49.745 119.311 48.7226 128.638L48.664 129.176C47.6441 138.423 46.6064 147.987 48.3096 157.26C50.2958 168.071 56.1651 177.658 66.2515 186.581C82.4393 200.885 101.799 210.959 120.521 220.698C139.689 230.673 159.513 240.986 175.968 255.856C176.064 255.942 176.131 256.056 176.161 256.182C176.191 256.307 176.182 256.439 176.136 256.56C176.09 256.68 176.008 256.784 175.902 256.857C175.795 256.93 175.669 256.97 175.54 256.97L175.538 256.962Z" fill="white"/>
<path d="M158.01 256.962C157.879 256.961 157.751 256.921 157.643 256.847C145.695 248.461 132.939 241.039 120.604 233.874C113.064 229.492 105.27 224.951 97.7103 220.236C80.2324 209.324 64.7611 199.184 52.4029 185.602C45.4474 177.953 41.085 169.029 39.0631 158.32C36.9826 147.275 37.7755 135.656 38.5531 127.875C39.3894 119.494 39.9962 109.709 38.1528 100.652C36.261 91.3587 31.9929 83.7479 25.068 77.4069C13.824 67.0885 -0.563728 59.9749 -14.4772 53.0959L-17.9601 51.3698C-22.7534 48.9884 -27.6488 46.6198 -32.386 44.3302C-48.2373 36.6659 -64.6392 28.739 -79.774 18.9968C-79.917 18.9048 -80.0176 18.7598 -80.0537 18.5936C-80.0898 18.4275 -80.0585 18.2538 -79.9665 18.1108C-79.8745 17.9678 -79.7295 17.8671 -79.5634 17.831C-79.3972 17.7949 -79.2235 17.8263 -79.0805 17.9183C-64.0018 27.6172 -47.6457 35.5211 -31.8276 43.1701C-27.0904 45.4648 -22.1899 47.8309 -17.3889 50.2174L-13.901 51.946C0.0915375 58.8658 14.5634 66.0227 25.9425 76.4636C33.0586 82.9932 37.467 90.8232 39.4149 100.395C41.294 109.617 40.6898 119.517 39.8331 128C38.5939 140.406 38.7469 149.672 40.3303 158.086C42.3062 168.56 46.5667 177.28 53.359 184.745C65.5974 198.207 81.0024 208.294 98.3962 219.165C105.938 223.877 113.725 228.403 121.254 232.781C133.612 239.966 146.394 247.395 158.387 255.812C158.499 255.89 158.583 256.002 158.627 256.131C158.671 256.26 158.673 256.4 158.632 256.53C158.59 256.661 158.508 256.774 158.398 256.855C158.287 256.935 158.154 256.978 158.017 256.977L158.01 256.962Z" fill="white"/>
<path d="M139.986 256.962C139.863 256.962 139.742 256.926 139.639 256.86C132.666 252.382 125.516 247.974 118.604 243.711C105.407 235.575 91.7614 227.161 78.8449 217.944C65.1226 208.156 52.0327 198.233 42.7009 184.531C35.9723 174.646 31.5002 164.172 29.7716 154.243C28.3438 146.051 28.9582 137.538 29.5523 129.303L29.6823 127.495C29.769 126.22 29.8787 124.917 29.9857 123.648C30.5365 116.975 31.1076 110.078 29.616 103.809C28.0863 97.4167 23.8309 90.6014 16.9493 83.5542C7.30653 73.6768 -5.43922 68.218 -17.7668 62.9376L-18.8275 62.4838C-26.1348 59.3503 -33.6359 56.3009 -40.8922 53.3509C-53.7247 48.1343 -66.9931 42.7418 -79.7057 36.6787C-79.8592 36.6057 -79.9774 36.4746 -80.0343 36.3145C-80.0912 36.1543 -80.0822 35.9781 -80.0091 35.8246C-79.9361 35.6711 -79.8051 35.5529 -79.6449 35.496C-79.4847 35.4391 -79.3085 35.4481 -79.155 35.5212C-66.4755 41.5689 -53.2249 46.9564 -40.4002 52.1653C-33.1413 55.1178 -25.6351 58.1698 -18.315 61.3059L-17.2543 61.7622C-4.812 67.091 8.05357 72.6008 17.8749 82.6694C24.9196 89.885 29.2922 96.9017 30.8781 103.521C32.4079 109.992 31.8393 116.993 31.2784 123.762C31.1688 125.088 31.0643 126.34 30.9776 127.587L30.8475 129.397C30.2586 137.556 29.6492 145.99 31.0515 154.027C32.7496 163.777 37.1503 174.077 43.7794 183.814C52.9888 197.328 65.9793 207.185 79.6021 216.904C92.4855 226.083 106.119 234.497 119.29 242.622C126.21 246.89 133.364 251.291 140.348 255.786C140.464 255.861 140.553 255.972 140.601 256.101C140.649 256.231 140.654 256.372 140.615 256.505C140.576 256.637 140.495 256.754 140.384 256.837C140.274 256.919 140.139 256.964 140.001 256.964L139.986 256.962Z" fill="white"/>
<path d="M122.023 256.962C121.9 256.963 121.78 256.927 121.677 256.86C117.819 254.375 113.808 251.84 109.93 249.39C81.4507 231.395 52.0021 212.785 34.4018 184.119C24.5984 168.143 20.2639 150.351 20.8172 128.131C20.8402 127.126 20.8759 126.114 20.9115 125.099C21.1053 119.49 21.3093 113.674 19.6775 108.312C17.7143 101.89 13.6348 95.8622 7.53605 90.3983C-0.755447 82.9737 -10.9133 76.9259 -21.0686 73.3666C-31.0123 69.8838 -41.3129 66.6457 -51.2719 63.5147C-60.6189 60.575 -70.2847 57.5383 -79.6368 54.3028C-79.7974 54.2474 -79.9294 54.1304 -80.0038 53.9776C-80.0781 53.8248 -80.0887 53.6488 -80.0333 53.4882C-79.9778 53.3276 -79.8609 53.1956 -79.7081 53.1212C-79.5553 53.0469 -79.3793 53.0363 -79.2187 53.0917C-69.8818 56.3221 -60.2263 59.3562 -50.8894 62.2934C-40.9177 65.427 -30.6069 68.6676 -20.6453 72.1581C-10.3345 75.7709 -0.0237045 81.9105 8.39017 89.4448C14.67 95.054 18.8795 101.29 20.9039 107.94C22.5969 113.506 22.3904 119.413 22.1787 125.143C22.143 126.162 22.1073 127.162 22.0844 128.161C21.5464 150.124 25.8043 167.681 35.4803 183.453C52.9251 211.862 82.2462 230.39 110.603 248.306C114.484 250.759 118.495 253.296 122.357 255.785C122.474 255.859 122.562 255.97 122.611 256.099C122.659 256.229 122.664 256.371 122.625 256.503C122.586 256.636 122.505 256.752 122.394 256.835C122.283 256.918 122.149 256.963 122.011 256.962H122.023Z" fill="white"/>
<path d="M104.115 256.962C103.987 256.962 103.862 256.924 103.755 256.852C88.7125 246.62 74.1182 236.49 60.99 225.073C45.8858 211.937 34.6367 198.699 26.6002 184.605C17.6203 168.853 12.8321 151.087 11.9499 130.297C11.6388 122.903 10.6878 117.5 8.86477 112.771C6.7205 107.202 3.28868 102.615 -1.62451 98.7475C-19.4721 84.704 -43.2962 79.6557 -66.3451 74.7807C-70.9345 73.8068 -75.2689 72.8889 -79.5727 71.8971C-79.7296 71.8505 -79.8628 71.7457 -79.9451 71.6042C-80.0274 71.4626 -80.0526 71.295 -80.0155 71.1356C-79.9784 70.9761 -79.8819 70.8369 -79.7455 70.7462C-79.6092 70.6555 -79.4434 70.6203 -79.282 70.6478C-75.0012 71.637 -70.6693 72.5549 -66.0799 73.5289C-43.9693 78.2126 -18.9112 83.5235 -0.834129 97.7506C10.7056 106.833 12.7454 118.739 13.2298 130.254C14.0992 150.842 18.839 168.42 27.7144 183.988C35.677 197.957 46.8369 211.086 61.8289 224.125C74.9061 235.496 89.4621 245.6 104.474 255.809C104.544 255.856 104.603 255.917 104.65 255.987C104.696 256.058 104.727 256.137 104.743 256.219C104.759 256.302 104.758 256.387 104.741 256.469C104.723 256.551 104.69 256.63 104.643 256.699C104.583 256.782 104.503 256.85 104.411 256.896C104.319 256.941 104.218 256.964 104.115 256.962Z" fill="white"/>
<path d="M86.3011 256.963C86.1623 256.963 86.0272 256.918 85.9161 256.835C70.2076 245.089 58.1631 234.832 48.0154 224.562C35.1753 211.559 25.4101 198.578 18.1538 184.846C10.5788 170.504 5.79561 154.505 3.11082 134.482C2.27453 128.271 0.994598 123.519 -0.915092 119.554C-3.12146 114.894 -6.56003 110.927 -10.8588 108.081C-27.9415 96.5561 -51.7094 93.2773 -72.6778 90.386C-75.0464 90.0596 -77.2825 89.7511 -79.5083 89.4298C-79.6774 89.4055 -79.8299 89.315 -79.9322 89.1783C-80.0345 89.0415 -80.0783 88.8697 -80.054 88.7006C-80.0296 88.5316 -79.9391 88.3791 -79.8024 88.2768C-79.6656 88.1745 -79.4938 88.1307 -79.3248 88.155C-77.104 88.4737 -74.868 88.7822 -72.5019 89.1086C-51.3958 92.0203 -27.4723 95.3196 -10.1449 107.01C0.362282 114.098 3.08787 124.781 4.37035 134.291C7.04239 154.156 11.7848 170.022 19.2859 184.226C26.481 197.849 36.1773 210.743 48.9256 223.641C59.0197 233.886 71.0159 244.102 86.6734 255.813C86.7809 255.893 86.8604 256.006 86.9007 256.134C86.9409 256.262 86.9397 256.4 86.8974 256.527C86.8551 256.654 86.7738 256.765 86.6649 256.844C86.5561 256.923 86.4252 256.965 86.2909 256.965L86.3011 256.963Z" fill="white"/>
<path d="M68.6592 256.961C68.5069 256.961 68.3595 256.907 68.2436 256.808C40.7659 233.221 22.3242 211.31 10.2031 187.853C3.57404 175.01 -1.35701 160.717 -5.76537 141.51C-9.10033 126.977 -13.733 122.005 -20.6095 118.308C-35.4842 110.313 -54.9865 108.875 -72.1942 107.6C-74.7209 107.414 -77.1099 107.238 -79.4811 107.041C-79.6463 107.022 -79.7976 106.94 -79.903 106.811C-80.0084 106.682 -80.0595 106.518 -80.0456 106.352C-80.0317 106.186 -79.9538 106.032 -79.8284 105.923C-79.7031 105.814 -79.5401 105.758 -79.374 105.767C-77.0105 105.963 -74.624 106.139 -72.0998 106.325C-54.7622 107.6 -35.1298 109.058 -20.0027 117.181C-9.50571 122.824 -6.68834 131.773 -4.51859 141.225C-0.133171 160.322 4.75708 174.521 11.3403 187.264C23.3798 210.57 41.7246 232.36 69.0748 255.834C69.1746 255.919 69.2458 256.033 69.2789 256.16C69.312 256.287 69.3052 256.421 69.2596 256.544C69.214 256.667 69.1317 256.773 69.0238 256.848C68.916 256.922 68.7878 256.962 68.6566 256.961H68.6592Z" fill="white"/>
</g>
</g>
</svg>
