<svg width="236" height="208" viewBox="0 0 236 208" fill="none" xmlns="http://www.w3.org/2000/svg">
<g opacity="0.2">
<mask id="mask0_36_23470" style="mask-type:alpha" maskUnits="userSpaceOnUse" x="0" y="-49" width="258" height="257">
<circle cx="129.037" cy="79.2959" r="128.14" fill="#1476FF"/>
</mask>
<g mask="url(#mask0_36_23470)">
<path d="M255.328 13.982C243.501 13.982 234.452 9.34922 226.125 -0.91571C218.407 -10.431 211.895 -21.364 205.6 -31.9349C202.454 -37.2152 199.203 -42.674 195.875 -47.8218C195.83 -47.8924 195.799 -47.9714 195.784 -48.0541C195.769 -48.1368 195.77 -48.2216 195.788 -48.3038C195.806 -48.3859 195.839 -48.4638 195.887 -48.5329C195.935 -48.602 195.996 -48.661 196.067 -48.7065C196.137 -48.7521 196.216 -48.7832 196.299 -48.7983C196.382 -48.8133 196.467 -48.8119 196.549 -48.7941C196.631 -48.7764 196.709 -48.7426 196.778 -48.6948C196.847 -48.6469 196.906 -48.586 196.951 -48.5153C200.292 -43.3497 203.547 -37.8807 206.699 -32.5901C212.974 -22.0575 219.447 -11.173 227.119 -1.72395C235.467 8.56648 244.543 13.0156 256.557 12.6842H256.575C256.735 12.696 256.884 12.7672 256.994 12.8837C257.103 13.0002 257.165 13.1535 257.168 13.3134C257.17 13.4734 257.112 13.6284 257.006 13.7479C256.899 13.8674 256.752 13.9427 256.593 13.959C256.167 13.9743 255.747 13.982 255.328 13.982Z" fill="white"/>
<path d="M248.806 32.4185C235.451 32.4185 225.515 26.9215 217.234 15.1777C213.305 9.60927 209.84 3.59972 206.507 -2.21351C205.709 -3.60052 204.91 -4.98498 204.111 -6.3669C197.285 -18.0953 188.188 -33.4086 178.339 -47.8065C178.243 -47.9465 178.206 -48.1189 178.237 -48.2858C178.268 -48.4526 178.365 -48.6003 178.505 -48.6963C178.645 -48.7924 178.817 -48.8289 178.984 -48.7978C179.151 -48.7667 179.298 -48.6706 179.394 -48.5306C189.269 -34.097 198.382 -18.7608 205.217 -7.00941C206.023 -5.6275 206.824 -4.24134 207.619 -2.85092C210.934 2.93425 214.386 8.92085 218.279 14.4383C227.8 27.9362 239.584 32.9131 256.488 30.5777C256.657 30.5547 256.829 30.5998 256.965 30.7031C257.1 30.8063 257.19 30.9593 257.213 31.1284C257.236 31.2974 257.19 31.4687 257.087 31.6045C256.984 31.7403 256.831 31.8295 256.662 31.8525C254.059 32.2211 251.435 32.4102 248.806 32.4185Z" fill="white"/>
<path d="M239.508 51.3278C233.869 51.3278 228.336 50.3742 223.15 47.335C216.38 43.3729 211.865 36.6927 208.339 30.6781C205.249 25.413 202.406 19.8981 199.655 14.5642C197.747 10.8698 195.779 7.0504 193.747 3.34575C183.704 -14.9379 172.61 -32.143 160.777 -47.7928C160.693 -47.9287 160.663 -48.0912 160.693 -48.2483C160.722 -48.4053 160.81 -48.5456 160.938 -48.6415C161.066 -48.7374 161.225 -48.782 161.384 -48.7665C161.543 -48.751 161.69 -48.6765 161.797 -48.5577C173.666 -32.862 184.793 -15.6033 194.866 2.73383C196.906 6.44613 198.88 10.2732 200.789 13.9753C203.533 19.2913 206.368 24.7909 209.44 30.0381C212.882 35.9023 217.28 42.4244 223.792 46.2387C233.065 51.6669 243.697 50.1371 253.983 48.6609C254.819 48.5385 255.653 48.4195 256.484 48.3039C256.568 48.2922 256.653 48.2971 256.735 48.3183C256.817 48.3395 256.893 48.3766 256.961 48.4275C257.028 48.4784 257.085 48.5421 257.128 48.6149C257.171 48.6878 257.199 48.7684 257.211 48.8521C257.222 48.9358 257.217 49.021 257.196 49.1028C257.175 49.1846 257.138 49.2614 257.087 49.3289C257.036 49.3964 256.972 49.4532 256.9 49.4961C256.827 49.5389 256.746 49.567 256.662 49.5787L254.164 49.9357C249.307 50.619 244.368 51.3278 239.508 51.3278Z" fill="white"/>
<path d="M235.961 68.0406C233.786 68.0406 231.627 67.9998 229.475 67.9003L228.162 67.8443C223.743 67.6607 218.728 67.4541 214.903 65.4042C207.035 61.1871 202.466 51.3811 199.442 44.8846C197.734 41.2181 196.069 37.4701 194.46 33.8445C191.286 26.7055 188.007 19.3115 184.262 12.277C172.899 -9.22502 159.125 -29.3636 143.207 -47.7497C143.106 -47.8794 143.058 -48.043 143.074 -48.2067C143.09 -48.3705 143.168 -48.5219 143.293 -48.6297C143.417 -48.7376 143.578 -48.7937 143.742 -48.7865C143.906 -48.7793 144.062 -48.7093 144.176 -48.591C160.16 -30.1311 173.992 -9.91229 185.404 11.6753C189.16 18.7557 192.449 26.1624 195.631 33.3244C197.237 36.9449 198.902 40.6878 200.602 44.344C203.555 50.6825 208.017 60.259 215.51 64.2747C219.08 66.187 223.924 66.3884 228.213 66.5694L229.533 66.6255C238.577 67.0436 248.118 66.4445 256.534 65.9142C256.692 65.9212 256.842 65.9865 256.955 66.0974C257.068 66.2083 257.137 66.357 257.147 66.515C257.157 66.673 257.108 66.8292 257.01 66.9536C256.912 67.0779 256.772 67.1618 256.616 67.189C250.152 67.5842 243.029 68.0406 235.961 68.0406Z" fill="white"/>
<path d="M256.575 84.7936C254.479 84.7656 252.375 84.7579 250.15 84.7477C235.91 84.6891 219.773 84.6228 206.533 79.2634C196.811 75.3267 193.873 66.7854 190.765 57.7417L190.559 57.14C186.258 44.6467 181.808 31.725 175.748 19.4433C164.43 -3.48835 148.041 -25.4562 125.65 -47.7147C125.529 -47.8344 125.461 -47.997 125.461 -48.1668C125.46 -48.3365 125.527 -48.4995 125.647 -48.6199C125.767 -48.7402 125.929 -48.8081 126.099 -48.8086C126.269 -48.8091 126.432 -48.7421 126.552 -48.6224C149.04 -26.2644 165.506 -4.1844 176.888 18.8875C182.984 31.2406 187.446 44.2005 191.762 56.7346L191.969 57.3338C195.11 66.4743 197.833 74.368 207.012 78.0855C220.015 83.3531 236.03 83.4194 250.152 83.478C252.381 83.478 254.487 83.4958 256.587 83.5239C256.747 83.5381 256.895 83.6115 257.003 83.7294C257.111 83.8474 257.17 84.0014 257.17 84.1613C257.17 84.3212 257.111 84.4752 257.003 84.5932C256.895 84.7111 256.747 84.7845 256.587 84.7987L256.575 84.7936Z" fill="white"/>
<path d="M256.575 102.387H256.522C254.281 102.204 252.029 102.033 249.638 101.854C232.534 100.58 213.147 99.1135 197.905 91.3804C187.839 86.2811 184.326 78.548 181.656 66.9292C177.393 48.36 172.732 34.6199 166.544 22.3764C154.456 -1.54704 135.872 -23.8081 108.06 -47.6806C107.931 -47.7911 107.851 -47.9485 107.838 -48.118C107.825 -48.2875 107.879 -48.4553 107.99 -48.5844C108.101 -48.7136 108.258 -48.7935 108.427 -48.8067C108.597 -48.8198 108.765 -48.7651 108.894 -48.6545C136.848 -24.6673 155.53 -2.27624 167.699 21.7976C173.933 34.1354 178.627 47.9673 182.916 66.6385C185.498 77.8876 188.877 85.3556 198.497 90.2356C213.509 97.8514 232.759 99.2996 249.745 100.574C252.131 100.753 254.382 100.924 256.629 101.11C256.789 101.129 256.935 101.208 257.039 101.331C257.144 101.454 257.198 101.611 257.191 101.772C257.184 101.933 257.117 102.085 257.003 102.199C256.889 102.312 256.736 102.379 256.575 102.385V102.387Z" fill="white"/>
<path d="M256.575 119.988H256.483C254.38 119.687 252.231 119.389 250.048 119.086C229.194 116.192 205.556 112.913 188.063 101.62C176.931 94.4354 174.094 83.5509 172.788 73.8495C170.185 54.5052 165.682 39.0874 158.617 25.3244C151.478 11.4032 141.713 -1.7632 128.786 -14.9296C118.572 -25.3526 106.4 -35.7502 90.475 -47.6596C90.3995 -47.7064 90.3345 -47.7684 90.2842 -47.8416C90.2339 -47.9149 90.1995 -47.9978 90.183 -48.0851C90.1665 -48.1724 90.1684 -48.2622 90.1885 -48.3487C90.2086 -48.4353 90.2466 -48.5167 90.2999 -48.5878C90.3532 -48.6588 90.4207 -48.718 90.4982 -48.7616C90.5756 -48.8052 90.6613 -48.8321 90.7497 -48.8407C90.8381 -48.8494 90.9274 -48.8395 91.0118 -48.8117C91.0962 -48.7839 91.1739 -48.7389 91.2399 -48.6795C107.214 -36.7318 119.437 -26.2935 129.707 -15.8322C142.71 -2.57399 152.547 10.697 159.754 24.7354C166.893 38.6311 171.432 54.1814 174.055 73.6736C174.912 80.0477 176.261 84.8921 178.298 88.9715C180.695 93.7598 184.114 97.5435 188.752 100.537C206.008 111.676 229.495 114.935 250.219 117.808C252.404 118.112 254.553 118.41 256.662 118.713C256.824 118.734 256.973 118.816 257.077 118.942C257.181 119.069 257.232 119.231 257.22 119.394C257.209 119.558 257.135 119.71 257.014 119.821C256.893 119.931 256.734 119.991 256.57 119.988H256.575Z" fill="white"/>
<path d="M256.576 137.537C256.527 137.537 256.478 137.531 256.43 137.519C252.183 136.54 247.902 135.627 243.368 134.664C220.531 129.796 196.914 124.781 178.74 111.013C166.55 101.781 164.413 89.6494 163.918 77.9134C163.075 57.8654 158.579 40.7291 150.176 25.5255C142.272 11.2474 131.071 -2.1587 115.898 -15.4424C102.665 -27.0281 87.9003 -37.2854 72.6738 -47.6395C72.6041 -47.6867 72.5445 -47.7472 72.4982 -47.8175C72.4519 -47.8877 72.4199 -47.9664 72.4041 -48.0491C72.3882 -48.1317 72.3888 -48.2166 72.4057 -48.299C72.4227 -48.3814 72.4557 -48.4597 72.5029 -48.5294C72.5502 -48.599 72.6106 -48.6587 72.6809 -48.7049C72.7512 -48.7512 72.8299 -48.7832 72.9125 -48.7991C72.9951 -48.8149 73.0801 -48.8144 73.1625 -48.7974C73.2449 -48.7804 73.3231 -48.7474 73.3928 -48.7002C88.655 -38.3205 103.453 -28.0479 116.737 -16.4062C132.035 -3.02048 143.325 10.4927 151.293 24.8983C159.793 40.2778 164.339 57.6002 165.193 77.8522C166.007 97.1786 172.554 104.718 179.507 109.978C197.457 123.573 220.929 128.567 243.631 133.396C248.167 134.36 252.455 135.273 256.716 136.257C256.8 136.267 256.881 136.293 256.954 136.334C257.028 136.374 257.093 136.429 257.145 136.495C257.198 136.561 257.237 136.637 257.26 136.718C257.283 136.799 257.29 136.884 257.281 136.967C257.271 137.051 257.245 137.132 257.204 137.206C257.163 137.279 257.108 137.344 257.043 137.397C256.977 137.449 256.901 137.488 256.82 137.511C256.739 137.535 256.654 137.542 256.57 137.532L256.576 137.537Z" fill="white"/>
<path d="M256.576 155.098C256.504 155.097 256.434 155.085 256.366 155.062C247.032 151.832 237.377 148.798 228.04 145.863C218.068 142.727 207.757 139.489 197.793 135.996C187.541 132.406 177.228 126.266 168.758 118.712C162.71 113.319 158.582 107.34 156.484 100.946C154.559 95.0815 154.765 88.8501 154.954 82.8228C154.987 81.8768 155.018 80.9309 155.04 79.9926C155.578 58.0299 151.321 40.4729 141.642 24.7007C124.207 -3.70759 94.8813 -22.2385 66.5188 -40.1626C62.6434 -42.6103 58.6353 -45.1446 54.7777 -47.6306C54.635 -47.7225 54.5347 -47.8674 54.4988 -48.0333C54.463 -48.1992 54.4945 -48.3726 54.5864 -48.5153C54.6784 -48.658 54.8233 -48.7583 54.9892 -48.7941C55.1551 -48.83 55.3285 -48.7985 55.4712 -48.7065C59.3237 -46.2232 63.3292 -43.6913 67.1996 -41.2437C95.6844 -23.2431 125.138 -4.63057 142.738 24.0276C152.549 40.0114 156.884 57.8029 156.331 80.0232C156.308 80.9666 156.277 81.9151 156.246 82.8661C156.05 88.7813 155.846 94.8954 157.7 100.545C159.727 106.723 163.735 112.514 169.612 117.756C177.959 125.201 188.117 131.251 198.216 134.787C208.16 138.27 218.463 141.508 228.425 144.642C237.769 147.579 247.432 150.616 256.785 153.851C256.929 153.9 257.052 153.998 257.13 154.129C257.209 154.259 257.238 154.414 257.213 154.564C257.187 154.714 257.109 154.851 256.993 154.948C256.876 155.046 256.728 155.099 256.576 155.098Z" fill="white"/>
<path d="M256.575 172.693C256.48 172.693 256.386 172.671 256.3 172.629C243.623 166.584 230.373 161.199 217.561 155.99C210.297 153.038 202.788 149.986 195.468 146.847L194.315 146.352C181.901 141.036 169.074 135.542 159.278 125.494C152.139 118.153 147.878 111.333 146.275 104.643C144.745 98.1716 145.313 91.1651 145.874 84.3906C145.984 83.0674 146.086 81.8206 146.175 80.5661L146.285 79.0363C146.874 70.7933 147.486 62.2698 146.101 54.1185C144.454 44.4298 140.053 34.1343 133.373 24.3359C124.136 10.7871 111.158 0.950474 97.5481 -8.75608C84.6647 -17.9476 71.0316 -26.3487 57.8601 -34.477C50.9403 -38.7426 43.7885 -43.1459 36.805 -47.6384C36.6623 -47.7303 36.562 -47.8752 36.5262 -48.0411C36.4903 -48.2071 36.5218 -48.3804 36.6138 -48.5231C36.7058 -48.6658 36.8506 -48.7661 37.0165 -48.802C37.1825 -48.8378 37.3558 -48.8063 37.4985 -48.7143C44.4693 -44.2371 51.6185 -39.8288 58.5307 -35.5657C71.7277 -27.4298 85.3735 -19.0159 98.3053 -9.79889C112.01 -0.0132942 125.087 9.89978 134.447 23.622C141.231 33.5657 145.704 44.0448 147.379 53.912C148.789 62.2162 148.174 70.8162 147.578 79.1358L147.468 80.6656C147.379 81.9251 147.272 83.2356 147.167 84.5028C146.614 91.1778 146.043 98.0823 147.537 104.352C149.067 110.813 153.217 117.439 160.201 124.606C169.811 134.471 182.526 139.904 194.825 145.185L195.975 145.677C203.288 148.81 210.791 151.862 218.048 154.812C230.877 160.026 244.146 165.421 256.856 171.482C256.988 171.544 257.094 171.649 257.158 171.78C257.222 171.911 257.239 172.06 257.207 172.202C257.175 172.344 257.095 172.471 256.981 172.561C256.868 172.652 256.726 172.701 256.581 172.701L256.575 172.693Z" fill="white"/>
<path d="M256.576 190.334C256.453 190.334 256.332 190.299 256.229 190.232C241.221 180.576 224.95 172.705 209.213 165.092C205.055 163.081 200.753 161.013 196.534 158.914C194.987 158.149 193.422 157.385 191.84 156.62C177.511 149.603 162.695 142.342 151.211 131.697C144.108 125.108 139.707 117.278 137.756 107.758C135.864 98.5333 136.481 88.6356 137.32 80.1631C138.929 64.0849 137.807 55.2937 136.823 50.0771C134.847 39.6031 130.587 30.8832 123.797 23.4178C111.857 10.2922 96.6227 0.238884 80.7561 -9.74813C72.7247 -14.8041 64.4154 -19.6357 56.3814 -24.3092C43.8626 -31.5885 30.9154 -39.1151 18.7688 -47.6386C18.6295 -47.736 18.5346 -47.8847 18.5049 -48.0521C18.4753 -48.2194 18.5133 -48.3917 18.6107 -48.531C18.7081 -48.6703 18.8568 -48.7652 19.0242 -48.7949C19.1915 -48.8245 19.3638 -48.7865 19.5031 -48.6891C31.6063 -40.1962 44.528 -32.6823 57.0239 -25.4158C65.0681 -20.7372 73.3876 -15.9005 81.4369 -10.8317C97.385 -0.79628 112.696 9.31057 124.745 22.5688C131.698 30.2178 136.061 39.1416 138.083 49.8502C140.166 60.8953 139.373 72.5166 138.593 80.2956C137.756 88.6687 137.152 98.4492 139.008 107.506C140.905 116.756 145.178 124.364 152.08 130.764C163.424 141.286 178.156 148.499 192.401 155.475C193.981 156.248 195.548 157.013 197.1 157.77C201.314 159.853 205.613 161.931 209.769 163.942C225.539 171.571 241.846 179.46 256.92 189.158C257.036 189.233 257.125 189.344 257.173 189.473C257.221 189.603 257.226 189.745 257.187 189.877C257.148 190.01 257.067 190.126 256.956 190.209C256.846 190.292 256.711 190.336 256.573 190.336L256.576 190.334Z" fill="white"/>
<path d="M256.575 207.437C256.416 207.437 256.263 207.378 256.146 207.271C239.811 192.514 220.061 182.239 200.964 172.303C182.176 162.527 162.747 152.415 146.429 138.007C136.119 128.897 130.112 119.071 128.072 107.964C126.333 98.5103 127.391 88.842 128.414 79.5102L128.472 78.9722C129.492 69.7246 130.53 60.1634 128.827 50.8954C126.84 40.0823 120.971 30.4981 110.882 21.5743C94.707 7.27327 75.3475 -2.78514 56.6253 -12.5401C37.457 -22.5119 17.6385 -32.8252 1.18044 -47.6948C1.1129 -47.7496 1.05721 -47.8175 1.01678 -47.8944C0.976352 -47.9714 0.952027 -48.0558 0.945286 -48.1424C0.938546 -48.2291 0.949532 -48.3162 0.977577 -48.3985C1.00562 -48.4808 1.05013 -48.5565 1.1084 -48.621C1.16667 -48.6855 1.23747 -48.7375 1.31648 -48.7737C1.3955 -48.81 1.48107 -48.8298 1.56797 -48.8318C1.65488 -48.8339 1.7413 -48.8183 1.82196 -48.7859C1.90262 -48.7535 1.97582 -48.705 2.03712 -48.6433C18.3728 -33.891 38.1199 -23.6108 57.2168 -13.6747C76.0078 -3.89934 95.4388 6.2126 111.744 20.6182C122.055 29.7307 128.062 39.5571 130.101 50.6634C131.838 60.1175 130.782 69.7858 129.76 79.1125L129.701 79.6505C128.681 88.8981 127.644 98.4618 129.347 107.735C131.333 118.545 137.202 128.132 147.289 137.056C163.476 151.36 182.836 161.433 201.558 171.173C220.726 181.147 240.55 191.461 257.006 206.33C257.101 206.417 257.168 206.531 257.198 206.656C257.228 206.782 257.22 206.914 257.173 207.034C257.127 207.155 257.045 207.258 256.939 207.332C256.832 207.405 256.706 207.444 256.577 207.444L256.575 207.437Z" fill="white"/>
<path d="M239.047 207.436C238.916 207.436 238.788 207.396 238.68 207.321C226.732 198.936 213.976 191.514 201.641 184.349C194.102 179.966 186.307 175.425 178.747 170.711C161.27 159.798 145.798 149.658 133.44 136.076C126.485 128.427 122.122 119.504 120.1 108.795C118.02 97.7498 118.813 86.131 119.59 78.3495C120.427 69.9688 121.033 60.1832 119.19 51.1268C117.298 41.8333 113.03 34.2225 106.105 27.8815C94.8611 17.5631 80.4734 10.4495 66.5599 3.57053L63.0771 1.84442C58.2837 -0.536964 53.3884 -2.90561 48.6511 -5.1952C32.7999 -12.8595 16.3979 -20.7864 1.26312 -30.5286C1.1201 -30.6206 1.01947 -30.7656 0.983369 -30.9317C0.947268 -31.0979 0.978652 -31.2716 1.07062 -31.4146C1.16258 -31.5576 1.3076 -31.6583 1.47376 -31.6944C1.63991 -31.7305 1.81361 -31.6991 1.95662 -31.6071C17.0353 -21.9082 33.3914 -14.0043 49.2095 -6.35529C53.9467 -4.0606 58.8472 -1.69451 63.6482 0.691971L67.1361 2.42064C81.1286 9.34042 95.6005 16.4973 106.98 26.9382C114.096 33.4678 118.504 41.2978 120.452 50.8693C122.331 60.0914 121.727 69.9917 120.87 78.4744C119.631 90.8811 119.784 100.147 121.367 108.56C123.343 119.034 127.604 127.754 134.396 135.22C146.634 148.682 162.04 158.768 179.433 169.64C186.975 174.352 194.762 178.877 202.291 183.255C214.649 190.44 227.431 197.87 239.424 206.286C239.536 206.364 239.621 206.476 239.665 206.606C239.709 206.735 239.71 206.875 239.669 207.005C239.627 207.135 239.545 207.249 239.435 207.329C239.324 207.41 239.191 207.452 239.055 207.451L239.047 207.436Z" fill="white"/>
<path d="M221.023 207.436C220.9 207.436 220.779 207.401 220.676 207.334C213.703 202.857 206.553 198.449 199.641 194.186C186.444 186.05 172.799 177.636 159.882 168.419C146.16 158.631 133.07 148.707 123.738 135.005C117.009 125.12 112.537 114.646 110.809 104.718C109.381 96.526 109.995 88.0127 110.589 79.7773L110.719 77.9696C110.806 76.6948 110.916 75.3919 111.023 74.1222C111.574 67.4497 112.145 60.5529 110.653 54.2833C109.123 47.8913 104.868 41.0761 97.9864 34.0288C88.3436 24.1514 75.5979 18.6926 63.2703 13.4122L62.2096 12.9584C54.9023 9.82488 47.4012 6.77548 40.1449 3.82553C27.3124 -1.39108 14.044 -6.7836 1.3314 -12.8467C1.1779 -12.9197 1.05969 -13.0507 1.00279 -13.2109C0.945893 -13.3711 0.954957 -13.5473 1.02799 -13.7008C1.10102 -13.8543 1.23204 -13.9725 1.39222 -14.0294C1.5524 -14.0863 1.72863 -14.0773 1.88213 -14.0042C14.5616 -7.95645 27.8122 -2.56902 40.637 2.63994C47.8958 5.59244 55.402 8.64439 62.7221 11.7805L63.7828 12.2369C76.2251 17.5656 89.0907 23.0755 98.912 33.1441C105.957 40.3596 110.329 47.3763 111.915 53.9952C113.445 60.4662 112.876 67.4676 112.316 74.2369C112.206 75.5628 112.101 76.8146 112.015 78.0614L111.885 79.8717C111.296 88.0306 110.686 96.4648 112.089 104.501C113.787 114.251 118.187 124.552 124.817 134.289C134.026 147.802 147.016 157.659 160.639 167.379C173.523 176.557 187.156 184.971 200.327 193.097C207.247 197.365 214.401 201.766 221.385 206.261C221.501 206.336 221.59 206.446 221.638 206.576C221.686 206.705 221.691 206.847 221.652 206.98C221.613 207.112 221.532 207.229 221.422 207.311C221.311 207.394 221.176 207.439 221.038 207.439L221.023 207.436Z" fill="white"/>
<path d="M203.061 207.437C202.938 207.437 202.817 207.402 202.714 207.335C198.856 204.849 194.846 202.315 190.967 199.865C162.488 181.869 133.039 163.259 115.439 134.593C105.635 118.617 101.301 100.826 101.854 78.6053C101.877 77.6008 101.913 76.5886 101.949 75.5738C102.142 69.9646 102.346 64.1488 100.715 58.7868C98.7514 52.3643 94.6719 46.3369 88.5732 40.8729C80.2817 33.4483 70.1238 27.4005 59.9685 23.8412C50.0249 20.3584 39.7242 17.1203 29.7653 13.9893C20.4182 11.0496 10.7524 8.01293 1.4003 4.77742C1.2397 4.72197 1.1077 4.60499 1.03335 4.45222C0.958998 4.29945 0.948377 4.1234 1.00383 3.9628C1.05928 3.8022 1.17625 3.6702 1.32902 3.59585C1.48179 3.5215 1.65784 3.51088 1.81844 3.56633C11.1553 6.79675 20.8109 9.83084 30.1477 12.768C40.1194 15.9016 50.4302 19.1422 60.3918 22.6327C70.7026 26.2455 81.0134 32.3851 89.4273 39.9194C95.7071 45.5286 99.9166 51.7651 101.941 58.4146C103.634 63.9805 103.427 69.8881 103.216 75.6171C103.18 76.637 103.144 77.6365 103.122 78.6359C102.584 100.599 106.841 118.156 116.517 133.928C133.962 162.336 163.283 180.865 191.641 198.781C195.521 201.234 199.532 203.771 203.395 206.259C203.511 206.334 203.6 206.444 203.648 206.574C203.696 206.704 203.701 206.845 203.662 206.978C203.623 207.11 203.542 207.227 203.431 207.31C203.32 207.392 203.186 207.437 203.048 207.437H203.061Z" fill="white"/>
<path d="M185.152 207.436C185.024 207.436 184.899 207.398 184.793 207.327C169.75 197.095 155.155 186.965 142.027 175.548C126.923 162.412 115.674 149.174 107.637 135.079C98.6574 119.328 93.8692 101.562 92.987 80.7716C92.6759 73.3776 91.7249 67.9749 89.9019 63.2453C87.7576 57.6768 84.3258 53.09 79.4126 49.2222C61.565 35.1786 37.741 30.1303 14.692 25.2554C10.1027 24.2814 5.76823 23.3635 1.4644 22.3717C1.30747 22.3251 1.17426 22.2203 1.09196 22.0788C1.00967 21.9372 0.984501 21.7697 1.0216 21.6102C1.0587 21.4508 1.15526 21.3115 1.29157 21.2208C1.42789 21.1301 1.59367 21.0949 1.75507 21.1224C6.03595 22.1116 10.3678 23.0295 14.9572 24.0035C37.0679 28.6872 62.1259 33.9981 80.203 48.2252C91.7427 57.3071 93.7825 69.214 94.2669 80.7283C95.1363 101.317 99.8761 118.894 108.752 134.462C116.714 148.432 127.874 161.56 142.866 174.599C155.943 185.971 170.499 196.075 185.512 206.284C185.581 206.331 185.641 206.392 185.687 206.462C185.733 206.532 185.765 206.611 185.78 206.694C185.796 206.776 185.795 206.861 185.778 206.944C185.761 207.026 185.727 207.104 185.68 207.174C185.62 207.257 185.54 207.324 185.448 207.37C185.356 207.416 185.255 207.439 185.152 207.436Z" fill="white"/>
<path d="M167.338 207.437C167.199 207.438 167.064 207.393 166.953 207.31C151.245 195.564 139.2 185.306 129.053 175.036C116.212 162.033 106.447 149.053 99.1909 135.32C91.6159 120.979 86.8327 104.979 84.1479 84.9569C83.3116 78.746 82.0317 73.9934 80.122 70.0287C77.9156 65.369 74.4771 61.4015 70.1783 58.5552C53.0956 47.0308 29.3277 43.7519 8.35931 40.8606C5.99067 40.5342 3.75462 40.2257 1.52877 39.9045C1.35971 39.8801 1.20726 39.7896 1.10493 39.6529C1.00261 39.5161 0.958796 39.3443 0.98314 39.1753C1.00748 39.0062 1.09799 38.8537 1.23474 38.7514C1.37149 38.6491 1.54329 38.6053 1.71234 38.6296C3.9331 38.9483 6.16915 39.2568 8.53523 39.5832C29.6413 42.4949 53.5648 45.7942 70.8923 57.4844C81.3994 64.5724 84.125 75.2555 85.4075 84.7657C88.0795 104.63 92.8219 120.497 100.323 134.701C107.518 148.324 117.214 161.217 129.963 174.116C140.057 184.36 152.053 194.577 167.71 206.288C167.818 206.368 167.898 206.48 167.938 206.608C167.978 206.737 167.977 206.874 167.935 207.002C167.892 207.129 167.811 207.24 167.702 207.319C167.593 207.397 167.462 207.44 167.328 207.44L167.338 207.437Z" fill="white"/>
<path d="M149.696 207.436C149.544 207.436 149.397 207.382 149.281 207.283C121.803 183.696 103.361 161.784 91.2403 138.327C84.6111 125.485 79.6801 111.191 75.2717 91.9848C71.9368 77.4518 67.3041 72.4799 60.4276 68.7829C45.5529 60.7872 26.0506 59.3492 8.84292 58.0743C6.31621 57.8882 3.92718 57.7123 1.556 57.516C1.39078 57.4969 1.23946 57.4143 1.13409 57.2857C1.02872 57.157 0.977584 56.9924 0.991505 56.8266C1.00543 56.6609 1.08331 56.5071 1.20867 56.3978C1.33403 56.2885 1.49701 56.2323 1.66309 56.2411C4.02662 56.4375 6.4131 56.6134 8.93726 56.7995C26.2749 58.0743 45.9073 59.5327 61.0345 67.656C71.5314 73.2984 74.3488 82.2477 76.5185 91.6992C80.9039 110.796 85.7942 124.995 92.3774 137.738C104.417 161.045 122.762 182.834 150.112 206.309C150.212 206.394 150.283 206.508 150.316 206.635C150.349 206.762 150.342 206.896 150.297 207.019C150.251 207.142 150.169 207.248 150.061 207.322C149.953 207.397 149.825 207.437 149.694 207.436H149.696Z" fill="white"/>
<path d="M132.088 207.436C132.004 207.437 131.921 207.42 131.844 207.388C131.766 207.356 131.696 207.309 131.637 207.25C109.605 185.349 93.3917 163.781 82.0662 141.308C75.5161 128.305 70.6845 114.282 66.424 101.903L66.0925 100.945C63.2089 92.5308 60.4833 84.6014 51.9292 80.8763C38.9769 75.2339 22.7305 75.1957 8.39884 75.1574C6.04041 75.1574 3.80945 75.1447 1.60145 75.1166C1.44224 75.1024 1.29412 75.029 1.18625 74.9111C1.07838 74.7931 1.01855 74.6391 1.01855 74.4792C1.01855 74.3194 1.07838 74.1653 1.18625 74.0473C1.29412 73.9294 1.44224 73.8561 1.60145 73.8418C3.8069 73.8698 6.03275 73.875 8.38609 73.8826C22.8452 73.9208 39.237 73.9616 52.4264 79.706C61.5261 83.6478 64.3307 91.8501 67.3062 100.529L67.6453 101.495C71.893 113.836 76.7093 127.823 83.2186 140.742C94.4805 163.09 110.617 184.551 132.549 206.353C132.639 206.442 132.701 206.556 132.726 206.68C132.751 206.805 132.738 206.933 132.69 207.051C132.641 207.168 132.559 207.268 132.454 207.338C132.349 207.409 132.225 207.447 132.098 207.447L132.088 207.436Z" fill="white"/>
<path d="M114.493 207.435C114.401 207.436 114.311 207.416 114.227 207.378C114.144 207.34 114.069 207.285 114.009 207.216C98.0237 188.756 84.192 168.536 72.7808 146.947C69.0277 139.869 65.7386 132.468 62.5592 125.308C60.9503 121.685 59.2854 117.94 57.5822 114.281C54.6425 107.943 50.1704 98.3687 42.6744 94.3555C39.0896 92.4331 34.2962 92.2393 30.0638 92.0608L28.6513 92.0022C19.6102 91.584 10.0693 92.1832 1.65036 92.7135C1.56144 92.729 1.47026 92.7256 1.38274 92.7035C1.29523 92.6815 1.21335 92.6412 1.14244 92.5853C1.07153 92.5295 1.01319 92.4593 0.971202 92.3794C0.929218 92.2995 0.904537 92.2117 0.898773 92.1216C0.893008 92.0315 0.906288 91.9412 0.937744 91.8566C0.969199 91.772 1.01813 91.695 1.08134 91.6306C1.14455 91.5661 1.22062 91.5158 1.30461 91.4827C1.38859 91.4496 1.4786 91.4346 1.56877 91.4387C10.0209 90.9084 19.6 90.3066 28.7099 90.7273L30.1173 90.786C34.4849 90.9619 39.4363 91.1633 43.2812 93.2234C51.152 97.4406 55.721 107.247 58.7423 113.741C60.4531 117.41 62.1181 121.16 63.7295 124.788C66.9012 131.927 70.1801 139.309 73.9128 146.348C85.2741 167.85 99.0459 187.988 114.962 206.375C115.043 206.467 115.095 206.581 115.113 206.703C115.131 206.824 115.114 206.948 115.063 207.06C115.012 207.172 114.93 207.267 114.827 207.333C114.723 207.4 114.603 207.435 114.48 207.435H114.493Z" fill="white"/>
<path d="M96.8953 207.437C96.7963 207.437 96.6986 207.414 96.61 207.37C96.5214 207.326 96.4445 207.261 96.3854 207.182C84.5142 191.484 73.3875 174.225 63.3163 155.89C61.2766 152.178 59.3006 148.348 57.3935 144.646C54.65 139.33 51.8148 133.831 48.7425 128.583C45.3004 122.719 40.9023 116.2 34.3904 112.385C25.1148 106.957 14.5031 108.485 4.22541 109.961C3.38147 110.083 2.53753 110.216 1.69869 110.323C1.52964 110.346 1.35811 110.302 1.22183 110.199C1.08556 110.096 0.995707 109.944 0.972039 109.775C0.948372 109.606 0.992829 109.434 1.09563 109.298C1.19843 109.162 1.35116 109.072 1.52021 109.048L4.04438 108.688C14.5311 107.182 25.3748 105.629 35.038 111.276C41.8048 115.239 46.3228 121.919 49.849 127.931C52.9366 133.198 55.7795 138.711 58.5306 144.045C60.4352 147.739 62.4061 151.561 64.4382 155.263C74.4813 173.544 85.5723 190.749 97.4052 206.402C97.4763 206.496 97.5195 206.609 97.5302 206.727C97.5408 206.845 97.5184 206.963 97.4654 207.069C97.4125 207.175 97.3311 207.264 97.2304 207.326C97.1297 207.389 97.0137 207.421 96.8953 207.421V207.437Z" fill="white"/>
<path d="M79.3176 207.436C79.2136 207.436 79.1111 207.411 79.0191 207.363C78.927 207.314 78.8483 207.244 78.7898 207.158C72.1225 197.413 66.0262 186.934 60.1314 176.799C53.7726 165.869 47.1996 154.566 39.905 144.186C30.4177 130.673 18.6332 125.709 1.69579 128.05C1.61209 128.061 1.52696 128.056 1.44527 128.034C1.36357 128.013 1.28692 127.975 1.21968 127.924C1.08389 127.821 0.994682 127.668 0.971691 127.499C0.948699 127.33 0.993807 127.159 1.09709 127.023C1.20037 126.887 1.35337 126.798 1.52242 126.775C18.9927 124.36 31.1546 129.503 40.9529 143.444C48.2781 153.867 54.8664 165.196 61.238 176.152C67.1226 186.263 73.2061 196.722 79.8505 206.429C79.9164 206.525 79.9549 206.637 79.9617 206.753C79.9685 206.87 79.9433 206.986 79.889 207.089C79.8347 207.192 79.7532 207.278 79.6534 207.339C79.5536 207.399 79.4393 207.431 79.3227 207.431L79.3176 207.436Z" fill="white"/>
<path d="M61.7821 207.438C61.675 207.438 61.5696 207.411 61.4755 207.36C61.3815 207.309 61.3019 207.234 61.2441 207.144C57.904 201.979 54.6481 196.51 51.4967 191.219C45.222 180.687 38.7357 169.802 31.0765 160.35C22.7289 150.063 13.647 145.611 1.63815 145.945H1.61011C1.45057 145.933 1.30127 145.862 1.19161 145.745C1.08195 145.629 1.01988 145.476 1.01764 145.316C1.0154 145.156 1.07315 145.001 1.17951 144.881C1.28587 144.762 1.43312 144.686 1.59226 144.67C14.0371 144.328 23.4377 148.92 32.0607 159.55C39.7785 169.065 46.2878 179.998 52.5854 190.569C55.7317 195.849 58.9825 201.308 62.3098 206.456C62.4021 206.598 62.434 206.771 62.3986 206.937C62.3632 207.103 62.2634 207.248 62.1212 207.341C62.0192 207.403 61.9018 207.437 61.7821 207.438Z" fill="white"/>
<path d="M44.1893 207.436C44.0823 207.436 43.977 207.409 43.8831 207.358C43.7892 207.306 43.7095 207.233 43.6513 207.143C42.0782 204.687 40.4821 202.021 38.7942 199.196C29.9418 184.392 18.9247 165.971 1.52839 163.875C1.44468 163.865 1.36377 163.839 1.29028 163.797C1.21679 163.756 1.15216 163.701 1.10007 163.634C1.04799 163.568 1.00947 163.492 0.986713 163.411C0.963961 163.33 0.957419 163.245 0.967463 163.161C0.977508 163.077 1.00394 162.997 1.04526 162.923C1.08657 162.85 1.14195 162.785 1.20824 162.733C1.27454 162.681 1.35044 162.642 1.43162 162.62C1.5128 162.597 1.59766 162.59 1.68137 162.6C19.7024 164.767 30.8979 183.49 39.8931 198.533C41.5759 201.337 43.1669 204.007 44.7375 206.437C44.7998 206.533 44.8349 206.645 44.8391 206.76C44.8433 206.875 44.8165 206.989 44.7615 207.09C44.7064 207.191 44.6252 207.275 44.5263 207.334C44.4274 207.392 44.3145 207.423 44.1995 207.423L44.1893 207.436Z" fill="white"/>
<path d="M26.5758 207.437C26.4722 207.437 26.37 207.412 26.2781 207.364C26.1862 207.316 26.1073 207.247 26.0481 207.162C25.4616 206.318 24.8752 205.461 24.2837 204.612C18.0166 195.482 11.5354 186.04 1.3648 181.844C1.21755 181.772 1.10315 181.647 1.04493 181.494C0.986722 181.341 0.989093 181.172 1.05156 181.02C1.11403 180.869 1.23189 180.747 1.38108 180.68C1.53027 180.613 1.69954 180.605 1.85434 180.658C12.3768 184.992 19.2634 195.035 25.3392 203.888C25.9274 204.748 26.5146 205.598 27.1011 206.438C27.1976 206.577 27.2349 206.749 27.2048 206.916C27.1747 207.083 27.0796 207.231 26.9404 207.327C26.8331 207.401 26.7058 207.439 26.5758 207.437Z" fill="white"/>
<path d="M8.90362 207.437C8.8125 207.437 8.72238 207.418 8.63927 207.381C8.55617 207.343 8.482 207.289 8.42174 207.22C8.13363 206.894 7.85571 206.573 7.5829 206.259C5.52278 203.896 3.74311 201.856 1.20875 199.803C1.07655 199.697 0.992212 199.542 0.974281 199.373C0.95635 199.204 1.0063 199.034 1.11314 198.902C1.21999 198.77 1.37497 198.686 1.54399 198.668C1.71302 198.65 1.88225 198.7 2.01445 198.807C4.63804 200.93 6.45086 203.011 8.55178 205.418L9.38551 206.374C9.46692 206.466 9.51997 206.58 9.53831 206.702C9.55665 206.824 9.5395 206.948 9.4889 207.06C9.43831 207.172 9.35643 207.268 9.25307 207.334C9.14972 207.401 9.02927 207.437 8.90617 207.437H8.90362Z" fill="white"/>
</g>
</g>
</svg>
