
    <svg
      width="23"
      height="25"
      viewBox="0 0 23 25"
      fill="none"
      xmlns="http://www.w3.org/2000/svg"
    >
      <path
        fillRule="evenodd"
        clipRule="evenodd"
        d="M15.1199 3.63765L3.52028 18.146C3.36437 18.3405 3.30923 18.5893 3.3651 18.8271C3.36512 18.8272 3.36507 18.827 3.3651 18.8271L4.15164 22.1562L7.66324 22.1121L7.66529 22.1121C7.93732 22.1091 8.18411 21.9862 8.34365 21.7876L8.34422 21.7869L8.34536 21.7855L10.1736 19.4984C11.2721 18.1241 12.7372 16.291 14.2036 14.4558C15.6701 12.6206 17.1377 10.7834 18.2413 9.40091C18.7931 8.70961 19.2537 8.13226 19.5776 7.72575C19.7396 7.5224 19.867 7.36232 19.9543 7.25225C19.9923 7.2044 20.0221 7.1667 20.0438 7.13931C20.432 6.4724 20.2222 5.61195 19.529 5.19288C19.4886 5.16843 19.4496 5.14165 19.4123 5.11266L18.3684 4.30166C17.8464 3.89601 17.3064 3.47635 17.2698 3.44755L17.2611 3.44058C16.6105 2.91812 15.6506 3.01321 15.1199 3.63765ZM20.851 3.15541C22.6525 4.29239 23.2173 6.66006 22.0714 8.47808C22.0594 8.49675 22.0424 8.52192 22.0361 8.53099L22.0216 8.5512C22.0155 8.5594 22.0104 8.56613 22.0078 8.5696C22.0021 8.57711 21.9965 8.58432 21.9924 8.58959L21.9606 8.6302C21.9358 8.66163 21.9007 8.70602 21.8564 8.76181C21.7676 8.87371 21.6391 9.03523 21.4768 9.23886C21.1522 9.64631 20.691 10.2244 20.1391 10.9158C19.0351 12.2988 17.5672 14.1364 16.1007 15.9716C14.6342 17.807 13.169 19.6402 12.0704 21.0145L10.24 23.3043C10.24 23.3044 10.2399 23.3045 9.29157 22.5463L10.24 23.3043L10.2389 23.3057C9.61942 24.0785 8.684 24.5292 7.69256 24.5402C7.69226 24.5402 7.69196 24.5402 7.69167 24.5402L3.20902 24.5965C2.64036 24.6036 2.14293 24.2151 2.01217 23.6616L1.00148 19.3838C0.774442 18.4192 1.00223 17.4053 1.62507 16.6279C1.62524 16.6277 1.62541 16.6274 1.62559 16.6272L13.233 2.10916C13.2386 2.10211 13.2443 2.09513 13.2501 2.08821C14.6309 0.437942 17.0972 0.199953 18.7754 1.54234C18.7766 1.54323 18.7781 1.54443 18.7801 1.54599L20.851 3.15541ZM20.0752 7.09926C20.0822 7.08984 20.0868 7.08402 20.0872 7.08355C20.0877 7.08309 20.0841 7.08781 20.0752 7.09926Z"
        fill="#1476FF"
      />
      <path
        fillRule="evenodd"
        clipRule="evenodd"
        d="M11.0511 4.84579C11.4595 4.31397 12.2217 4.21393 12.7535 4.62235L19.4722 9.78202C20.004 10.1904 20.104 10.9527 19.6956 11.4845C19.2872 12.0163 18.525 12.1163 17.9931 11.7079L11.2745 6.54826C10.7427 6.13983 10.6426 5.37761 11.0511 4.84579Z"
        fill="#1476FF"
      />
    </svg>
