<svg width="56" height="56" viewBox="0 0 56 56" fill="none" xmlns="http://www.w3.org/2000/svg">
<g clip-path="url(#clip0_37_26169)">
<path d="M54.916 28.6212C54.916 26.8107 54.7556 25.0919 54.4806 23.4189H28.584V33.7547H43.4115C42.7469 37.1464 40.7989 40.0111 37.9113 41.9591V48.8343H46.7574C51.9368 44.0446 54.916 36.986 54.916 28.6212Z" fill="#4285F4"/>
<path d="M28.5845 55.4959C36.0097 55.4959 42.2203 53.0208 46.758 48.827L37.9119 41.9518C35.4368 43.6018 32.2971 44.6102 28.5845 44.6102C21.4114 44.6102 15.3383 39.7746 13.1611 33.2432H4.04004V40.3246C8.55476 49.3082 17.8363 55.4959 28.5845 55.4959Z" fill="#34A853"/>
<path d="M13.1585 33.2426C12.5856 31.5926 12.2876 29.828 12.2876 27.9946C12.2876 26.1612 12.6085 24.3965 13.1585 22.7465V15.665H4.03739C2.15817 19.3776 1.08105 23.5486 1.08105 27.9946C1.08105 32.4405 2.15817 36.6115 4.03739 40.3241L13.1585 33.2426Z" fill="#FBBC05"/>
<path d="M28.5845 11.3799C32.6409 11.3799 36.2618 12.7778 39.1265 15.505L46.9642 7.66727C42.2203 3.22131 36.0097 0.494141 28.5845 0.494141C17.8363 0.494141 8.55476 6.68183 4.04004 15.6654L13.1611 22.7469C15.3383 16.2154 21.4114 11.3799 28.5845 11.3799Z" fill="#EA4335"/>
</g>
<defs>
<clipPath id="clip0_37_26169">
<rect width="55.0016" height="55.0016" fill="white" transform="translate(0.498047 0.5)"/>
</clipPath>
</defs>
</svg>
