<svg width="346" height="346" viewBox="0 0 346 346" fill="none" xmlns="http://www.w3.org/2000/svg">
<ellipse opacity="0.8" cx="189.164" cy="158.367" rx="155.787" ry="155.059" fill="#F7F9FC"/>
<path d="M338.55 40.5674H242.364C238.253 40.5674 234.92 43.8845 234.92 47.9763V119.414C234.92 123.506 238.253 126.823 242.364 126.823H338.55C342.661 126.823 345.993 123.506 345.993 119.414V47.9763C345.993 43.8845 342.661 40.5674 338.55 40.5674Z" fill="#E9EAF3"/>
<path d="M234.92 58.0146H345.999" stroke="#D0D6FA" stroke-width="0.874557" stroke-miterlimit="10"/>
<path d="M244.573 51.7275C245.742 51.7275 246.69 50.7844 246.69 49.6211C246.69 48.4577 245.742 47.5146 244.573 47.5146C243.405 47.5146 242.457 48.4577 242.457 49.6211C242.457 50.7844 243.405 51.7275 244.573 51.7275Z" fill="#FF414C"/>
<path d="M251.028 51.7275C252.197 51.7275 253.145 50.7844 253.145 49.6211C253.145 48.4577 252.197 47.5146 251.028 47.5146C249.86 47.5146 248.912 48.4577 248.912 49.6211C248.912 50.7844 249.86 51.7275 251.028 51.7275Z" fill="#FFC147" stroke="#FFC147" stroke-width="0.87865" stroke-miterlimit="10"/>
<path d="M257.483 51.7275C258.652 51.7275 259.6 50.7844 259.6 49.6211C259.6 48.4577 258.652 47.5146 257.483 47.5146C256.315 47.5146 255.367 48.4577 255.367 49.6211C255.367 50.7844 256.315 51.7275 257.483 51.7275Z" fill="#66DD63"/>
<path d="M309.278 100.415H63.6138C60.769 100.415 58.4629 102.71 58.4629 105.542V309.201C58.4629 312.033 60.769 314.328 63.6138 314.328H309.278C312.123 314.328 314.429 312.033 314.429 309.201V105.542C314.429 102.71 312.123 100.415 309.278 100.415Z" fill="white"/>
<path d="M58.4629 126.158H314.429" stroke="#E9EAF3" stroke-width="1.49848" stroke-miterlimit="10"/>
<path d="M309.278 100.415H63.6138C60.769 100.415 58.4629 102.71 58.4629 105.542V309.201C58.4629 312.033 60.769 314.328 63.6138 314.328H309.278C312.123 314.328 314.429 312.033 314.429 309.201V105.542C314.429 102.71 312.123 100.415 309.278 100.415Z" stroke="#E9EAF3" stroke-width="1.49848" stroke-miterlimit="10"/>
<path d="M199.82 238.267L199.287 231.097L154.226 233.298V240.246C154.226 240.246 144.09 249.84 140.092 313.685H221.202C221.202 313.685 230.099 257.161 199.82 238.267Z" fill="#1476FF"/>
<path d="M154.227 240.216L199.821 238.266" stroke="#1045CC" stroke-width="1.19724" stroke-miterlimit="10"/>
<path d="M163.541 269.658L172.885 273.444L177.884 313.663" stroke="#1045CC" stroke-width="1.19724" stroke-miterlimit="10"/>
<path d="M104.966 224.378L117.415 183.507L144.79 193.717L131.65 232.889C130.474 236.359 127.974 239.229 124.69 240.88C121.405 242.531 117.601 242.83 114.097 241.712C110.593 240.594 107.672 238.15 105.964 234.907C104.255 231.664 103.897 227.882 104.966 224.378Z" fill="#FFE3D3"/>
<path d="M124.172 161.616C124.732 159.727 125.665 157.969 126.916 156.444C128.168 154.92 129.713 153.659 131.461 152.737C133.208 151.814 135.123 151.248 137.094 151.073C139.064 150.897 141.05 151.115 142.934 151.713C144.819 152.311 146.564 153.278 148.068 154.557C149.572 155.836 150.805 157.401 151.693 159.16C152.581 160.92 153.107 162.838 153.241 164.802C153.374 166.767 153.112 168.738 152.469 170.6L144.797 193.66L117.422 183.449L124.172 161.616Z" fill="#FFB016"/>
<path d="M126.11 221.293L94.8376 162.274C94.8376 162.274 95.558 151.612 77.7569 150.974C77.5191 150.974 77.2742 150.938 77.0365 150.938H71.0931C70.5541 150.927 70.0291 151.109 69.6139 151.452C69.1986 151.794 68.9208 152.273 68.8311 152.802C68.7822 153.092 68.7934 153.388 68.8638 153.673C68.9342 153.957 69.0625 154.225 69.2406 154.459C69.4187 154.692 69.643 154.887 69.8997 155.032C70.1563 155.176 70.4399 155.266 70.7329 155.298L76.7339 156.144L68.5717 158.295L67.0445 158.854L55.9287 151.547C55.5499 151.277 55.0805 151.163 54.6192 151.23C54.1579 151.297 53.7406 151.539 53.4551 151.906C53.1696 152.273 53.0382 152.736 53.0883 153.197C53.1385 153.658 53.3665 154.082 53.7242 154.38C54.4446 154.953 55.518 155.893 56.7211 156.932L54.2645 155.498C53.8643 155.239 53.3768 155.148 52.9093 155.246C52.4419 155.344 52.0328 155.623 51.772 156.022C51.5112 156.42 51.42 156.905 51.5187 157.371C51.6173 157.836 51.8976 158.243 52.2978 158.503L54.459 160.037L53.609 159.707C53.1563 159.512 52.6501 159.476 52.1744 159.607C51.6986 159.737 51.2821 160.026 50.9939 160.424C50.8137 160.682 50.6938 160.977 50.6429 161.288C50.592 161.598 50.6115 161.916 50.6999 162.217C50.7883 162.519 50.9434 162.797 51.1538 163.032C51.3642 163.266 51.6247 163.451 51.916 163.572L64.062 168.634C66.1584 169.509 68.1683 170.068 70.6321 169.473L81.4381 166.928L105.708 234.415L126.11 221.293Z" fill="#FFE3D3"/>
<path d="M113.27 197.065L119.062 207.986" stroke="#FFADC1" stroke-width="1.15862" stroke-miterlimit="10"/>
<path d="M148.511 151.328L136.884 152.196C136.884 152.196 120.056 174.904 154.224 233.278L199.285 231.077L202.679 168.193L197.117 150.346H176.903L148.511 151.328Z" fill="#FFB016"/>
<path d="M135.325 190.139C135.325 190.139 131.968 183.12 134.122 167.574" stroke="#FFB016" stroke-width="1.19724" stroke-miterlimit="10"/>
<path d="M239.911 216.146L221.181 177.685L195.736 192.025L214.877 228.68C216.565 231.954 219.484 234.431 222.998 235.572C226.513 236.713 230.338 236.426 233.64 234.772C236.943 233.119 239.455 230.233 240.63 226.745C241.804 223.256 241.546 219.446 239.911 216.146Z" fill="#FFE3D3"/>
<path d="M211.103 157.161C210.24 155.405 209.035 153.838 207.558 152.549C206.081 151.26 204.363 150.275 202.501 149.651C200.64 149.028 198.673 148.778 196.714 148.916C194.755 149.054 192.843 149.577 191.088 150.456C189.333 151.334 187.771 152.55 186.492 154.033C185.213 155.516 184.242 157.237 183.635 159.097C183.028 160.956 182.798 162.916 182.957 164.865C183.117 166.813 183.663 168.711 184.564 170.447L195.759 192.03L221.203 177.69L211.103 157.161Z" fill="#FFB016"/>
<path d="M195.758 192.032L186.516 174.206" stroke="#FFB016" stroke-width="1.19724" stroke-miterlimit="10"/>
<path d="M278.97 150.344C278.678 149.952 278.263 149.669 277.79 149.539C277.318 149.409 276.815 149.44 276.362 149.627L270.923 151.735L276.031 147.433C276.451 147.096 276.728 146.614 276.81 146.084C276.891 145.553 276.77 145.011 276.47 144.565C276.3 144.332 276.085 144.136 275.838 143.987C275.59 143.839 275.315 143.741 275.029 143.7C274.743 143.66 274.451 143.676 274.172 143.75C273.892 143.823 273.63 143.952 273.401 144.127L268.654 147.935L272.717 142.636C273.047 142.219 273.21 141.696 273.175 141.166C273.141 140.637 272.911 140.139 272.53 139.768C272.317 139.57 272.066 139.418 271.792 139.321C271.517 139.225 271.226 139.186 270.936 139.207C270.646 139.228 270.363 139.308 270.105 139.443C269.848 139.578 269.621 139.764 269.439 139.99L261.443 148.25L253.281 146.099L259.282 145.253C259.572 145.217 259.852 145.124 260.106 144.978C260.359 144.833 260.581 144.639 260.758 144.407C260.935 144.175 261.064 143.911 261.137 143.629C261.21 143.347 261.226 143.053 261.183 142.765C261.092 142.237 260.814 141.758 260.399 141.416C259.984 141.074 259.46 140.891 258.921 140.901H252.971C249.46 140.872 246.061 142.134 243.426 144.443L243.296 144.536C239.651 147.404 240.976 153.27 240.976 153.27L218.564 216.426L240.774 226.235L253.569 158.411H261.745C262.251 158.454 262.76 158.454 263.265 158.411H263.352C264.236 158.332 265.104 158.119 265.924 157.78L278.07 153.477C278.352 153.348 278.603 153.159 278.805 152.924C279.007 152.689 279.156 152.414 279.241 152.116C279.327 151.819 279.347 151.506 279.3 151.201C279.253 150.895 279.141 150.603 278.97 150.344Z" fill="#FFE3D3"/>
<path d="M227.261 190.139L222.42 206.953" stroke="#FFADC1" stroke-width="1.15862" stroke-miterlimit="10"/>
<path d="M147.612 99.2251C146.207 100.186 136.806 102.617 136.626 104.309C136.626 104.309 139.716 116.334 136.554 118.578C127.995 124.644 125.258 136.54 125.258 136.54C125.258 136.54 147.835 153.39 207.881 135.701C207.881 135.701 208.601 128.53 197.687 123.346C194.513 121.92 191.849 119.567 190.051 116.599C189.011 114.944 188.354 113.081 188.127 111.142C187.09 105.241 170.737 83.436 147.612 99.2251Z" fill="#0B0E2C"/>
<path d="M148.499 117.253C148.6 118.668 148.277 120.081 147.57 121.313C146.864 122.546 145.806 123.542 144.53 124.175C143.255 124.809 141.819 125.051 140.405 124.872C138.991 124.693 137.662 124.101 136.586 123.17C135.51 122.239 134.737 121.011 134.362 119.642C133.988 118.273 134.03 116.824 134.483 115.479C134.937 114.134 135.781 112.953 136.909 112.085C138.037 111.218 139.398 110.703 140.82 110.606C142.723 110.476 144.601 111.102 146.041 112.349C147.48 113.595 148.365 115.358 148.499 117.253Z" fill="#FFADC1"/>
<path d="M151.748 134.798L152.742 150.372C153.081 155.843 155.328 159.572 160.739 159.199C165.356 158.876 170.824 155.198 171.098 150.594L168.346 126.144L151.748 134.798Z" fill="#FFE3D3"/>
<path d="M148.512 151.328L176.903 150.346C176.903 150.346 176.219 164.249 159.325 162.944C147.612 162.041 148.512 151.328 148.512 151.328Z" fill="#FFE3D3"/>
<path d="M152.571 147.625L170.733 129.95L151.613 133.198L152.571 147.625Z" fill="#FFADC1"/>
<path d="M156.509 137.315C147.266 137.315 139.63 130.094 139.349 122.579L138.809 104.84C138.642 100.309 140.252 95.8905 143.299 92.5188C146.345 89.1471 150.588 87.0859 155.133 86.7708C164.801 86.1039 174.879 93.2241 175.556 102.875L175.837 117.144C176.053 128.18 167.574 136.547 156.509 137.315Z" fill="#FFE3D3"/>
<path d="M160.855 83.7246C158.545 83.6036 156.231 83.8456 153.997 84.4417C148.457 85.8758 138.508 89.9915 136.808 100.575C136.239 103.371 136.628 104.304 136.628 104.304C136.628 104.304 155.207 105.021 166.164 99.8723C167.749 106.526 169.204 110.628 175.818 117.138L181.689 108.355L188.295 114.256C188.36 114.485 188.345 85.1802 160.855 83.7246Z" fill="#0B0E2C"/>
<path d="M185.478 117.323C185.579 118.738 185.255 120.151 184.549 121.384C183.842 122.616 182.784 123.612 181.509 124.245C180.233 124.879 178.798 125.122 177.383 124.943C175.969 124.764 174.64 124.171 173.565 123.24C172.489 122.309 171.715 121.081 171.341 119.712C170.966 118.343 171.009 116.895 171.462 115.549C171.915 114.204 172.759 113.023 173.887 112.156C175.015 111.288 176.376 110.773 177.798 110.676C179.702 110.546 181.579 111.173 183.019 112.419C184.459 113.665 185.343 115.429 185.478 117.323Z" fill="#FFE3D3"/>
<path d="M175.551 119.868C175.551 119.868 175.19 114.684 180.219 115.157" stroke="#E8AD8C" stroke-width="0.957793" stroke-linecap="round" stroke-linejoin="round"/>
<path d="M72.8893 117.14C74.8216 117.14 76.388 115.58 76.388 113.657C76.388 111.734 74.8216 110.175 72.8893 110.175C70.957 110.175 69.3906 111.734 69.3906 113.657C69.3906 115.58 70.957 117.14 72.8893 117.14Z" fill="#FF5F85"/>
<path d="M83.5612 117.14C85.4935 117.14 87.0599 115.58 87.0599 113.657C87.0599 111.734 85.4935 110.175 83.5612 110.175C81.6289 110.175 80.0625 111.734 80.0625 113.657C80.0625 115.58 81.6289 117.14 83.5612 117.14Z" fill="#FFC147"/>
<path d="M94.2331 117.14C96.1654 117.14 97.7318 115.58 97.7318 113.657C97.7318 111.734 96.1654 110.175 94.2331 110.175C92.3008 110.175 90.7344 111.734 90.7344 113.657C90.7344 115.58 92.3008 117.14 94.2331 117.14Z" fill="#66DD63"/>
<path d="M82.3051 263.85H18.9234C13.6338 263.85 9.3457 268.862 9.3457 275.045V334.806C9.3457 340.989 13.6338 346.001 18.9234 346.001H82.3051C87.5947 346.001 91.8828 340.989 91.8828 334.806V275.045C91.8828 268.862 87.5947 263.85 82.3051 263.85Z" fill="#FF414C"/>
<path d="M47.689 284.463C37.9499 284.463 30.0547 292.406 30.0547 302.204C30.0547 312.002 37.9499 319.944 47.689 319.944C57.4282 319.944 65.3234 312.002 65.3234 302.204C65.3234 297.498 63.4655 292.986 60.1584 289.659C56.8513 286.332 52.366 284.463 47.689 284.463Z" fill="white"/>
<path d="M70.288 320.714L65.036 316.494C64.2414 315.709 62.9676 315.709 62.1729 316.494C61.7609 316.908 61.5293 317.469 61.5293 318.054C61.5293 318.639 61.7609 319.2 62.1729 319.613L66.5314 324.585C67.5939 325.654 69.3166 325.654 70.3792 324.585C71.4417 323.516 71.4417 321.783 70.3792 320.714H70.288Z" fill="white"/>
<path d="M105.273 0H61.8485C54.5702 0 48.6699 6.41535 48.6699 14.3291V54.3653C48.6699 62.2791 54.5702 68.6944 61.8485 68.6944H105.273C112.552 68.6944 118.452 62.2791 118.452 54.3653V14.3291C118.452 6.41535 112.552 0 105.273 0Z" fill="#1476FF"/>
<path d="M75.0978 25.8246L75.098 25.8115V25.7984C75.098 21.1988 78.9205 17.3818 83.5628 17.3818C88.2051 17.3818 92.0276 21.1988 92.0276 25.7984C92.0276 29.322 89.8938 31.7024 88.1702 33.5629C88.0991 33.6396 88.028 33.7161 87.957 33.7925C87.242 34.5616 86.5415 35.3151 86.0517 36.116C85.4393 37.1174 85.1565 38.1634 85.1565 39.4763V39.4894L85.1567 39.5025C85.1597 39.7103 85.1211 39.9169 85.043 40.1103C84.965 40.3036 84.8488 40.4802 84.7009 40.6295C84.553 40.7788 84.3763 40.8978 84.1808 40.9792C83.9853 41.0606 83.7752 41.1027 83.5628 41.1027C83.3503 41.1027 83.1402 41.0606 82.9447 40.9792C82.7492 40.8978 82.5725 40.7788 82.4246 40.6295L81.1161 41.9257L82.4246 40.6295C82.2767 40.4802 82.1606 40.3036 82.0825 40.1103C82.0045 39.9169 81.9659 39.7103 81.9688 39.5025L81.969 39.4894V39.4763C81.969 35.8124 84.1053 33.2891 85.8264 31.4313C85.9156 31.3351 86.0045 31.2396 86.0928 31.1447C86.8 30.3847 87.4699 29.6649 87.9365 28.9408C88.546 27.995 88.8401 27.0209 88.8401 25.7984C88.8401 22.841 86.513 20.5372 83.5628 20.5372C80.6126 20.5372 78.2855 22.841 78.2855 25.7984V25.8115L78.2857 25.8246C78.2886 26.0325 78.25 26.239 78.172 26.4324C78.0939 26.6258 77.9778 26.8023 77.8299 26.9516C77.682 27.1009 77.5053 27.22 77.3098 27.3014C77.1143 27.3828 76.9042 27.4248 76.6917 27.4248C76.4793 27.4248 76.2692 27.3828 76.0737 27.3014C75.8782 27.22 75.7015 27.1009 75.5536 26.9516L74.2651 28.228L75.5536 26.9516C75.4057 26.8023 75.2896 26.6258 75.2115 26.4324C75.1334 26.239 75.0948 26.0325 75.0978 25.8246ZM82.4328 48.6221C82.731 48.3253 83.1373 48.157 83.5628 48.157C83.9882 48.157 84.3946 48.3253 84.6928 48.6221C84.9907 48.9187 85.1565 49.319 85.1565 49.7347C85.1565 50.1503 84.9907 50.5507 84.6928 50.8472C84.3945 51.1441 83.9882 51.3124 83.5628 51.3124C83.1373 51.3124 82.731 51.1441 82.4328 50.8472C82.1348 50.5507 81.969 50.1503 81.969 49.7347C81.969 49.319 82.1348 48.9187 82.4328 48.6221Z" fill="white" stroke="white" stroke-width="3.68356"/>
</svg>
