<svg width="18" height="18" viewBox="0 0 18 18" fill="none" xmlns="http://www.w3.org/2000/svg">
<path d="M6.44994 8.43872C5.98894 8.41164 5.52742 8.48227 5.09562 8.64598C4.66382 8.8097 4.27148 9.0628 3.94431 9.3887L3.16648 10.1665C2.54761 10.7854 2.19993 11.6248 2.19993 12.5C2.19993 13.3752 2.54761 14.2146 3.16648 14.8335C3.78536 15.4524 4.62473 15.8 5.49996 15.8C6.37518 15.8 7.21456 15.4524 7.83343 14.8335L8.61126 14.0557C8.93701 13.7284 9.19001 13.336 9.35371 12.9042C9.51741 12.4725 9.58813 12.011 9.56124 11.55" stroke="black" stroke-linecap="round" stroke-linejoin="round"/>
<path d="M8.43896 6.4497C8.41183 5.98869 8.48244 5.52716 8.64616 5.09535C8.80987 4.66354 9.063 4.27121 9.38894 3.94407L10.1668 3.16624C10.7856 2.54737 11.625 2.19969 12.5002 2.19969C13.3755 2.19969 14.2148 2.54737 14.8337 3.16624C15.4526 3.78512 15.8003 4.62449 15.8003 5.49972C15.8003 6.37494 15.4526 7.21432 14.8337 7.83319L14.0559 8.61102C13.7287 8.93684 13.3363 9.18989 12.9045 9.3536C12.4727 9.51731 12.0112 9.58798 11.5503 9.561" stroke="black" stroke-linecap="round" stroke-linejoin="round"/>
<path d="M6.27832 11.7217L11.7231 6.27691" stroke="black" stroke-linecap="round" stroke-linejoin="round"/>
</svg>
