<svg width="50" height="50" viewBox="0 0 50 50" fill="none" xmlns="http://www.w3.org/2000/svg">
<rect width="50" height="50" rx="14" fill="#EDFBEE"/>
<path fill-rule="evenodd" clip-rule="evenodd" d="M19.2741 11.9649H27.9248C28.239 11.9649 28.5397 12.093 28.7573 12.3197L35.3447 19.1816C35.551 19.3965 35.6663 19.6829 35.6663 19.9808V31.8978C35.688 35.2445 33.0528 38.0058 29.7092 38.1415C29.6936 38.1422 29.678 38.1425 29.6624 38.1425H19.287C19.2529 38.1432 19.2234 38.1431 19.2028 38.1429C19.1876 38.1428 19.1789 38.1427 19.1724 38.1426C19.1647 38.1425 19.1603 38.1425 19.1524 38.1425C19.1438 38.1425 19.1353 38.1424 19.1267 38.1422C15.7458 38.067 13.0651 35.2689 13.1316 31.89V17.9688C13.1316 17.9597 13.1317 17.9506 13.1319 17.9416C13.2104 14.6097 15.942 11.9533 19.2741 11.9649ZM15.4397 17.9833V31.9019C15.4397 31.9103 15.4396 31.9186 15.4394 31.927C15.3935 34.0348 17.0616 35.7819 19.1675 35.8344C19.1775 35.8345 19.1866 35.8346 19.1942 35.8346L19.2217 35.8349C19.2311 35.835 19.2351 35.835 19.236 35.835C19.248 35.8346 19.26 35.8344 19.272 35.8344H29.6374C31.7288 35.738 33.3732 34.0063 33.3582 31.9101L33.3582 31.9019V20.4451L27.4329 14.273H19.2676C17.1947 14.265 15.4952 15.9141 15.4397 17.9833Z" fill="#45C74E"/>
<path fill-rule="evenodd" clip-rule="evenodd" d="M27.5837 11.9502C28.2211 11.9502 28.7378 12.4669 28.7378 13.1042V16.8876C28.7378 18.0977 29.7151 19.0783 30.9253 19.0826H34.5067C35.1441 19.0826 35.6607 19.5992 35.6607 20.2366C35.6607 20.874 35.1441 21.3906 34.5067 21.3906H30.9204C28.4376 21.3837 26.4297 19.3707 26.4297 16.8876V13.1042C26.4297 12.4669 26.9464 11.9502 27.5837 11.9502Z" fill="#45C74E"/>
<path fill-rule="evenodd" clip-rule="evenodd" d="M19.1641 29.5017C19.1641 28.8643 19.6807 28.3477 20.3181 28.3477H27.3412C27.9786 28.3477 28.4953 28.8643 28.4953 29.5017C28.4953 30.1391 27.9786 30.6557 27.3412 30.6557H20.3181C19.6807 30.6557 19.1641 30.1391 19.1641 29.5017Z" fill="#45C74E"/>
<path fill-rule="evenodd" clip-rule="evenodd" d="M19.1611 24.6228C19.1611 23.9854 19.6778 23.4688 20.3152 23.4688H24.6799C25.3173 23.4688 25.834 23.9854 25.834 24.6228C25.834 25.2601 25.3173 25.7768 24.6799 25.7768H20.3152C19.6778 25.7768 19.1611 25.2601 19.1611 24.6228Z" fill="#45C74E"/>
</svg>
