<svg width="28" height="29" viewBox="0 0 28 29" fill="none" xmlns="http://www.w3.org/2000/svg">
<path d="M25.6665 14.5C25.6665 17.5942 24.4373 20.5616 22.2494 22.7496C20.0615 24.9375 17.094 26.1666 13.9998 26.1666C10.9056 26.1666 7.93818 24.9375 5.75026 22.7496C3.56234 20.5616 2.33317 17.5942 2.33317 14.5C2.33317 11.4058 3.56234 8.43832 5.75026 6.2504C7.93818 4.06248 10.9056 2.83331 13.9998 2.83331C17.094 2.83331 20.0615 4.06248 22.2494 6.2504C24.4373 8.43832 25.6665 11.4058 25.6665 14.5V14.5Z" stroke="#6F7182" stroke-width="1.5" stroke-linecap="round" stroke-linejoin="round"/>
<path d="M20.0996 17.0931C19.5553 18.2511 18.6925 19.2303 17.6123 19.9162C16.532 20.602 15.2788 20.9662 13.9992 20.9662C12.7196 20.9662 11.4665 20.602 10.3862 19.9162C9.30595 19.2303 8.44322 18.2511 7.89887 17.0931" stroke="#6F7182" stroke-width="1.5" stroke-linecap="round" stroke-linejoin="round"/>
<path d="M18.5366 11.2596C18.5366 11.4315 18.4683 11.5964 18.3468 11.7179C18.2252 11.8395 18.0604 11.9077 17.8885 11.9077C17.7166 11.9077 17.5517 11.8395 17.4302 11.7179C17.3086 11.5964 17.2403 11.4315 17.2403 11.2596C17.2403 11.0877 17.3086 10.9228 17.4302 10.8013C17.5517 10.6797 17.7166 10.6115 17.8885 10.6115C18.0604 10.6115 18.2252 10.6797 18.3468 10.8013C18.4683 10.9228 18.5366 11.0877 18.5366 11.2596Z" fill="#6F7182" stroke="#6F7182" stroke-width="1.5" stroke-linecap="round" stroke-linejoin="round"/>
<path d="M10.7598 11.2596C10.7598 11.4315 10.6915 11.5964 10.5699 11.7179C10.4484 11.8395 10.2835 11.9077 10.1116 11.9077C9.93972 11.9077 9.77486 11.8395 9.65331 11.7179C9.53175 11.5964 9.46347 11.4315 9.46347 11.2596C9.46347 11.0877 9.53175 10.9228 9.65331 10.8013C9.77486 10.6797 9.93972 10.6115 10.1116 10.6115C10.2835 10.6115 10.4484 10.6797 10.5699 10.8013C10.6915 10.9228 10.7598 11.0877 10.7598 11.2596Z" fill="#6F7182" stroke="#6F7182" stroke-width="1.5" stroke-linecap="round" stroke-linejoin="round"/>
</svg>
