<svg width="18" height="18" viewBox="0 0 18 18" fill="none" xmlns="http://www.w3.org/2000/svg">
<path d="M15.1755 8.0606C15.1755 12.9016 10.2173 15.8839 9.18687 16.452C9.12979 16.4835 9.06566 16.5 9.00047 16.5C8.93528 16.5 8.87115 16.4835 8.81407 16.452C7.7829 15.8839 2.82617 12.9016 2.82617 8.0606C2.82617 4.20142 5.14168 1.5 9.00086 1.5C12.86 1.5 15.1755 4.20142 15.1755 8.0606Z" stroke="#1476FF" stroke-width="1.5" stroke-linecap="round" stroke-linejoin="round"/>
<path d="M5.91309 7.67426C5.91309 8.49307 6.23836 9.27835 6.81735 9.85734C7.39634 10.4363 8.18161 10.7616 9.00043 10.7616C9.81924 10.7616 10.6045 10.4363 11.1835 9.85734C11.7625 9.27835 12.0878 8.49307 12.0878 7.67426C12.0878 6.85544 11.7625 6.07016 11.1835 5.49118C10.6045 4.91219 9.81924 4.58691 9.00043 4.58691C8.18161 4.58691 7.39634 4.91219 6.81735 5.49118C6.23836 6.07016 5.91309 6.85544 5.91309 7.67426V7.67426Z" stroke="#1476FF" stroke-width="1.5" stroke-linecap="round" stroke-linejoin="round"/>
</svg>
