<svg width="19" height="18" viewBox="0 0 19 18" fill="none" xmlns="http://www.w3.org/2000/svg">
<path fillRule="evenodd" clip-rule="evenodd" d="M14.8035 14.3024C12.5114 16.5948 9.11733 17.09 6.33981 15.8055C5.92978 15.6404 5.59361 15.507 5.27403 15.507C4.38387 15.5123 3.27587 16.3754 2.70002 15.8002C2.12417 15.2243 2.98795 14.1154 2.98795 13.2199C2.98795 12.9003 2.85981 12.5701 2.69474 12.1593C1.40962 9.38222 1.90558 5.98701 4.19769 3.6954C7.1237 0.768324 11.8775 0.768324 14.8035 3.69465C17.7348 6.62625 17.7295 11.3761 14.8035 14.3024Z" stroke="black" stroke-width="1.5" stroke-linecap="round" stroke-linejoin="round"/>
<path d="M12.4541 9.31055H12.4609" stroke="black" stroke-width="1.5" stroke-linecap="round" stroke-linejoin="round"/>
<path d="M9.44829 9.31055H9.45504" stroke="black" stroke-width="1.5" stroke-linecap="round" stroke-linejoin="round"/>
<path d="M6.44096 9.31055H6.44771" stroke="black" stroke-width="1.5" stroke-linecap="round" stroke-linejoin="round"/>
</svg>
