<svg width="103" height="100" viewBox="0 0 103 100" fill="none" xmlns="http://www.w3.org/2000/svg">
<path opacity="0.06" d="M50.6371 99.234C77.2648 99.234 98.8523 77.2005 98.8523 49.9256C98.8523 22.6507 77.1697 0.617188 50.6371 0.617188C24.0094 0.617188 2.42188 22.6507 2.42188 49.9256C2.42188 77.2005 24.0094 99.234 50.6371 99.234Z" fill="#0257FB"/>
<mask id="mask0_77_44800" style="mask-type:alpha" maskUnits="userSpaceOnUse" x="2" y="0" width="97" height="100">
<path d="M50.6371 99.234C77.2648 99.234 98.8523 77.2005 98.8523 49.9256C98.8523 22.6507 77.1697 0.617188 50.6371 0.617188C24.0094 0.617188 2.42188 22.6507 2.42188 49.9256C2.42188 77.2005 24.0094 99.234 50.6371 99.234Z" fill="#0257FB"/>
</mask>
<g mask="url(#mask0_77_44800)">
<g filter="url(#filter0_d_77_44800)">
<path d="M67.2847 23.1108H35.7904C29.6578 23.1108 26.5234 26.2868 26.5234 32.5693V93.6986C27.2787 94.1842 28.0566 94.6621 28.8496 95.1092V35.1671H74.014V95.063C74.8825 94.585 75.7284 94.0454 76.5592 93.5058V32.5693C76.5592 26.2868 73.4476 23.1108 67.2847 23.1108Z" fill="#FF000F" fill-opacity="0.01" shape-rendering="crispEdges"/>
</g>
<path d="M74.0062 93.8097V33.7749C74.0062 31.5658 72.2153 29.7749 70.0062 29.7749H32.8418C30.6327 29.7749 28.8418 31.5658 28.8418 33.7749V93.8592C35.5485 97.8727 43.237 100.18 51.4089 100.18C59.6034 100.156 67.307 97.848 74.0062 93.8097Z" fill="white"/>
<path d="M74.0062 94.211V38.1958C74.0062 35.9867 72.2153 34.1958 70.0062 34.1958H32.8418C30.6327 34.1958 28.8418 35.9867 28.8418 38.1958V94.2574C35.5485 98.0189 43.237 100.182 51.4089 100.182C59.6034 100.158 67.307 97.9958 74.0062 94.211Z" fill="white"/>
<g filter="url(#filter1_d_77_44800)">
<path d="M65.7502 70.1848H58.169C57.3206 70.1848 56.5074 70.5279 55.9055 71.1422L54.039 73.0473C50.3221 70.8547 47.223 67.6883 45.0748 63.8978L46.9413 61.9928C47.5431 61.3784 47.8793 60.5485 47.8793 59.6825V51.9447C47.8793 50.8304 46.9925 49.9253 45.9008 49.9253H38.9727C37.881 49.9253 36.9941 50.8304 36.9941 51.9447V53.242C36.9941 55.5457 37.2631 57.8461 37.9002 60.055C40.7239 69.8025 48.2539 77.488 57.804 80.3701C59.9682 81.0203 62.2221 81.2948 64.4792 81.2948H65.7502C66.8419 81.2948 67.7287 80.3897 67.7287 79.2754V72.2042C67.7287 71.0899 66.8419 70.1848 65.7502 70.1848Z" fill="#FF000F" fill-opacity="0.01" shape-rendering="crispEdges"/>
</g>
<path d="M65.7502 70.1848H58.169C57.3206 70.1848 56.5074 70.5279 55.9055 71.1422L54.039 73.0473C50.3221 70.8547 47.223 67.6883 45.0748 63.8978L46.9413 61.9928C47.5431 61.3784 47.8793 60.5485 47.8793 59.6825V51.9447C47.8793 50.8304 46.9925 49.9253 45.9008 49.9253H38.9727C37.881 49.9253 36.9941 50.8304 36.9941 51.9447V53.242C36.9941 55.5457 37.2631 57.8461 37.9002 60.055C40.7239 69.8025 48.2539 77.488 57.804 80.3701C59.9682 81.0203 62.2221 81.2948 64.4792 81.2948H65.7502C66.8419 81.2948 67.7287 80.3897 67.7287 79.2754V72.2042C67.7287 71.0899 66.8419 70.1848 65.7502 70.1848Z" fill="#1476FF"/>
<path d="M67.2847 22.269H35.7904C29.6578 22.269 26.5234 25.445 26.5234 31.7275V92.8568C27.2787 93.3424 28.0566 93.8203 28.8496 94.2674V36.3253C28.8496 35.2207 29.7451 34.3253 30.8496 34.3253H72.014C73.1186 34.3253 74.014 35.2207 74.014 36.3253V94.2212C74.8825 93.7433 75.7284 93.2037 76.5592 92.664V31.7275C76.5592 25.445 73.4476 22.269 67.2847 22.269Z" fill="#1476FF"/>
<path opacity="0.4" d="M57.413 29.3539C57.413 29.9706 56.9221 30.4562 56.3405 30.4562H46.7639C46.1597 30.4562 45.6914 29.9552 45.6914 29.3539C45.6914 28.7449 46.1823 28.2593 46.7639 28.2593H56.3405C56.9221 28.2593 57.413 28.7449 57.413 29.3539Z" fill="white"/>
</g>
<path d="M82.2926 35.1406C83.5814 35.1406 84.6262 34.0742 84.6262 32.7588C84.6262 31.4433 83.5814 30.377 82.2926 30.377C81.0038 30.377 79.959 31.4433 79.959 32.7588C79.959 34.0742 81.0038 35.1406 82.2926 35.1406Z" fill="#1476FF"/>
<path d="M99.3763 61.8657C101.378 61.8657 103.001 60.2095 103.001 58.1665C103.001 56.1235 101.378 54.4673 99.3763 54.4673C97.3746 54.4673 95.752 56.1235 95.752 58.1665C95.752 60.2095 97.3746 61.8657 99.3763 61.8657Z" fill="#1476FF"/>
<path d="M82.2011 26.659C83.0813 26.659 83.7948 25.9307 83.7948 25.0324C83.7948 24.134 83.0813 23.4058 82.2011 23.4058C81.3209 23.4058 80.6074 24.134 80.6074 25.0324C80.6074 25.9307 81.3209 26.659 82.2011 26.659Z" fill="#1476FF"/>
<path d="M17.6581 32.0042C18.5383 32.0042 19.2518 31.2759 19.2518 30.3776C19.2518 29.4792 18.5383 28.751 17.6581 28.751C16.778 28.751 16.0645 29.4792 16.0645 30.3776C16.0645 31.2759 16.778 32.0042 17.6581 32.0042Z" fill="#1476FF"/>
<path d="M3.79026 55.806C5.88356 55.806 7.58052 54.074 7.58052 51.9374C7.58052 49.8009 5.88356 48.0688 3.79026 48.0688C1.69696 48.0688 0 49.8009 0 51.9374C0 54.074 1.69696 55.806 3.79026 55.806Z" fill="#1476FF"/>
<defs>
<filter id="filter0_d_77_44800" x="16.5234" y="14.1108" width="70.0352" height="91.9985" filterUnits="userSpaceOnUse" color-interpolation-filters="sRGB">
<feFlood flood-opacity="0" result="BackgroundImageFix"/>
<feColorMatrix in="SourceAlpha" type="matrix" values="0 0 0 0 0 0 0 0 0 0 0 0 0 0 0 0 0 0 127 0" result="hardAlpha"/>
<feOffset dy="1"/>
<feGaussianBlur stdDeviation="5"/>
<feComposite in2="hardAlpha" operator="out"/>
<feColorMatrix type="matrix" values="0 0 0 0 0 0 0 0 0 0.204861 0 0 0 0 0.491667 0 0 0 0.51 0"/>
<feBlend mode="normal" in2="BackgroundImageFix" result="effect1_dropShadow_77_44800"/>
<feBlend mode="normal" in="SourceGraphic" in2="effect1_dropShadow_77_44800" result="shape"/>
</filter>
<filter id="filter1_d_77_44800" x="28.9941" y="43.9253" width="46.7344" height="47.3696" filterUnits="userSpaceOnUse" color-interpolation-filters="sRGB">
<feFlood flood-opacity="0" result="BackgroundImageFix"/>
<feColorMatrix in="SourceAlpha" type="matrix" values="0 0 0 0 0 0 0 0 0 0 0 0 0 0 0 0 0 0 127 0" result="hardAlpha"/>
<feOffset dy="2"/>
<feGaussianBlur stdDeviation="4"/>
<feComposite in2="hardAlpha" operator="out"/>
<feColorMatrix type="matrix" values="0 0 0 0 0.0791667 0 0 0 0 0.462847 0 0 0 0 1 0 0 0 0.35 0"/>
<feBlend mode="normal" in2="BackgroundImageFix" result="effect1_dropShadow_77_44800"/>
<feBlend mode="normal" in="SourceGraphic" in2="effect1_dropShadow_77_44800" result="shape"/>
</filter>
</defs>
</svg>
