<svg width="104" height="99" viewBox="0 0 104 99" fill="none" xmlns="http://www.w3.org/2000/svg">
<path opacity="0.06" d="M52.4943 98.8506C78.177 98.8506 98.9984 76.8171 98.9984 49.5422C98.9984 22.2673 78.0853 0.233887 52.4943 0.233887C26.8116 0.233887 5.99023 22.2673 5.99023 49.5422C5.99023 76.8171 26.8116 98.8506 52.4943 98.8506Z" fill="#0257FB"/>
<g filter="url(#filter0_d_77_44826)">
<path fill-rule="evenodd" clip-rule="evenodd" d="M69.0948 63.2357C72.3499 63.2357 75.0022 60.4655 75.0022 57.0027V29.3914C75.0022 25.9468 72.3499 23.1401 69.0948 23.1401H24.3245C21.0695 23.1401 18.4258 25.9468 18.4258 29.3914V57.0027C18.4258 60.289 20.8449 62.9917 23.9043 63.2201L23.954 71.6468C24.4276 72.1298 25.1854 72.1298 25.6332 71.6468L36.8398 63.2357H69.0948Z" fill="#1476FF"/>
</g>
<g filter="url(#filter1_d_77_44826)">
<path fill-rule="evenodd" clip-rule="evenodd" d="M37.5871 71.1576C34.332 71.1576 31.6797 68.36 31.6797 64.9155V37.3042C31.6797 33.8596 34.332 31.062 37.5871 31.062H82.366C85.6124 31.062 88.2561 33.8596 88.2561 37.3042V64.9155C88.2561 68.2016 85.8372 70.9125 82.7856 71.1419L82.7287 79.5862C82.2551 80.0874 81.5231 80.0874 81.0495 79.5862L69.8196 71.1576H37.5871Z" fill="url(#paint0_linear_77_44826)"/>
</g>
<path fill-rule="evenodd" clip-rule="evenodd" d="M37.5871 71.1576C34.332 71.1576 31.6797 68.36 31.6797 64.9155V37.3042C31.6797 33.8596 34.332 31.062 37.5871 31.062H82.366C85.6124 31.062 88.2561 33.8596 88.2561 37.3042V64.9155C88.2561 68.2016 85.8372 70.9125 82.7856 71.1419L82.7287 79.5862C82.2551 80.0874 81.5231 80.0874 81.0495 79.5862L69.8196 71.1576H37.5871Z" fill="url(#paint1_linear_77_44826)"/>
<g opacity="0.4">
<path d="M68.2351 51.6279C68.2351 53.8696 69.966 55.6921 72.0671 55.6921C74.2028 55.6921 75.9078 53.8696 75.9078 51.6279C75.9078 49.3953 74.1855 47.5728 72.0671 47.5728C69.966 47.5819 68.2351 49.4044 68.2351 51.6279ZM56.2051 51.6279C56.2051 53.8696 57.9273 55.6921 60.0371 55.6921C62.1469 55.6921 63.8692 53.8696 63.8692 51.6279C63.8692 49.3953 62.1469 47.5728 60.0371 47.5728C57.9273 47.5819 56.2051 49.4044 56.2051 51.6279Z" fill="#1476FF"/>
<path d="M44.4512 51.6279C44.4512 53.8696 46.1734 55.6921 48.2832 55.6921C50.4188 55.6921 52.1153 53.8696 52.1153 51.6279C52.1153 49.3953 50.393 47.5728 48.2832 47.5728C46.1734 47.5819 44.4512 49.4044 44.4512 51.6279Z" fill="#1476FF"/>
</g>
<path d="M89.8797 24.6445C91.1228 24.6445 92.1305 23.5781 92.1305 22.2627C92.1305 20.9472 91.1228 19.8809 89.8797 19.8809C88.6366 19.8809 87.6289 20.9472 87.6289 22.2627C87.6289 23.5781 88.6366 24.6445 89.8797 24.6445Z" fill="#1476FF"/>
<path d="M99.5055 61.478C101.436 61.478 103.001 59.8218 103.001 57.7788C103.001 55.7358 101.436 54.0796 99.5055 54.0796C97.5748 54.0796 96.0098 55.7358 96.0098 57.7788C96.0098 59.8218 97.5748 61.478 99.5055 61.478Z" fill="#1476FF"/>
<path d="M89.793 16.1629C90.6419 16.1629 91.3301 15.4346 91.3301 14.5363C91.3301 13.6379 90.6419 12.9097 89.793 12.9097C88.9441 12.9097 88.2559 13.6379 88.2559 14.5363C88.2559 15.4346 88.9441 16.1629 89.793 16.1629Z" fill="#1476FF"/>
<path d="M8.84766 19.6848C9.69659 19.6848 10.3848 18.9566 10.3848 18.0582C10.3848 17.1599 9.69659 16.4316 8.84766 16.4316C7.99874 16.4316 7.31055 17.1599 7.31055 18.0582C7.31055 18.9566 7.99874 19.6848 8.84766 19.6848Z" fill="#1476FF"/>
<path d="M3.65574 55.4183C5.67476 55.4183 7.31149 53.6863 7.31149 51.5497C7.31149 49.4132 5.67476 47.6812 3.65574 47.6812C1.63673 47.6812 0 49.4132 0 51.5497C0 53.6863 1.63673 55.4183 3.65574 55.4183Z" fill="#1476FF"/>
<defs>
<filter id="filter0_d_77_44826" x="12.4258" y="19.1401" width="68.5762" height="60.8691" filterUnits="userSpaceOnUse" color-interpolation-filters="sRGB">
<feFlood flood-opacity="0" result="BackgroundImageFix"/>
<feColorMatrix in="SourceAlpha" type="matrix" values="0 0 0 0 0 0 0 0 0 0 0 0 0 0 0 0 0 0 127 0" result="hardAlpha"/>
<feOffset dy="2"/>
<feGaussianBlur stdDeviation="3"/>
<feComposite in2="hardAlpha" operator="out"/>
<feColorMatrix type="matrix" values="0 0 0 0 0.0791667 0 0 0 0 0.462847 0 0 0 0 1 0 0 0 0.15 0"/>
<feBlend mode="normal" in2="BackgroundImageFix" result="effect1_dropShadow_77_44826"/>
<feBlend mode="normal" in="SourceGraphic" in2="effect1_dropShadow_77_44826" result="shape"/>
</filter>
<filter id="filter1_d_77_44826" x="24.6797" y="26.062" width="70.5762" height="62.8999" filterUnits="userSpaceOnUse" color-interpolation-filters="sRGB">
<feFlood flood-opacity="0" result="BackgroundImageFix"/>
<feColorMatrix in="SourceAlpha" type="matrix" values="0 0 0 0 0 0 0 0 0 0 0 0 0 0 0 0 0 0 127 0" result="hardAlpha"/>
<feOffset dy="2"/>
<feGaussianBlur stdDeviation="3.5"/>
<feComposite in2="hardAlpha" operator="out"/>
<feColorMatrix type="matrix" values="0 0 0 0 0.0375 0 0 0 0 0.209375 0 0 0 0 0.45 0 0 0 0.16 0"/>
<feBlend mode="normal" in2="BackgroundImageFix" result="effect1_dropShadow_77_44826"/>
<feBlend mode="normal" in="SourceGraphic" in2="effect1_dropShadow_77_44826" result="shape"/>
</filter>
<linearGradient id="paint0_linear_77_44826" x1="59.9495" y1="29.9309" x2="59.97" y2="91.2884" gradientUnits="userSpaceOnUse">
<stop stop-color="white"/>
<stop offset="0.9964" stop-color="#ECF0F5"/>
</linearGradient>
<linearGradient id="paint1_linear_77_44826" x1="59.9495" y1="29.9309" x2="59.97" y2="91.2884" gradientUnits="userSpaceOnUse">
<stop stop-color="white"/>
<stop offset="0.9964" stop-color="#ECF0F5"/>
</linearGradient>
</defs>
</svg>
