
    <svg width="18" height="18" viewBox="0 0 18 18" fill="none" xmlns="http://www.w3.org/2000/svg">
      <path
        fillRule="evenodd"
        clipRule="evenodd"
        d="M1.5 9C1.5 4.86 4.8525 1.5 9 1.5C13.14 1.5 16.5 4.86 16.5 9C16.5 13.1475 13.14 16.5 9 16.5C4.8525 16.5 1.5 13.1475 1.5 9ZM10.6725 10.3723L11.8875 6.53227C11.97 6.26977 11.73 6.02227 11.4675 6.10477L7.62746 7.30477C7.46996 7.35727 7.34246 7.47727 7.29746 7.63477L6.09746 11.4823C6.01496 11.7373 6.26246 11.9848 6.51746 11.9023L10.3425 10.7023C10.5 10.6573 10.6275 10.5298 10.6725 10.3723Z"
        fill="#547EFF"
      />
    </svg>
