    <svg
      width="27"
      height="28"
      viewBox="0 0 27 28"
      fill="none"
      xmlns="http://www.w3.org/2000/svg"
    >
      <path
        d="M25.6828 7.55143C25.6828 7.08338 25.3921 6.68592 24.9798 6.52118L14.3143 1.10583H14.2932C13.9893 0.951557 13.6484 0.857422 13.2811 0.857422C12.9138 0.857422 12.5729 0.951557 12.269 1.10583H12.2478L1.58232 6.52118C1.17008 6.68592 0.879395 7.08338 0.879395 7.55143C0.879395 8.01426 1.16479 8.41172 1.5744 8.58168V8.6026L12.2558 14.0023L12.2663 13.997C12.5729 14.1513 12.9138 14.2454 13.2811 14.2454C13.6484 14.2454 13.9893 14.1513 14.2958 13.997L14.3064 14.0023L24.9878 8.6026V8.58168C25.3974 8.41172 25.6828 8.01426 25.6828 7.55143Z"
        fill="#1476FF"
      />
      <path
        d="M24.9798 13.2159L22.8922 12.1543C19.6154 13.8147 15.1467 16.0713 15.0939 16.0923C14.5125 16.3485 13.9047 16.4766 13.2811 16.4766C12.6548 16.4766 12.0443 16.3459 11.463 16.0896C11.4128 16.0713 6.94679 13.8147 3.66997 12.1543L1.58232 13.2159C1.17008 13.3807 0.879395 13.7781 0.879395 14.2462C0.879395 14.709 1.16479 15.1065 1.5744 15.2764V15.2973L12.2558 20.697L12.2663 20.6918C12.5729 20.8461 12.9138 20.9402 13.2811 20.9402C13.6484 20.9402 13.9893 20.8461 14.2958 20.6918L14.3064 20.697L24.9878 15.2973V15.2764C25.3974 15.1065 25.6828 14.709 25.6828 14.2462C25.6828 13.7781 25.3921 13.3807 24.9798 13.2159Z"
        fill="#2FA8FF"
      />
      <path
        d="M24.9798 19.9093L22.8922 18.8477C19.6154 20.5081 15.1467 22.7647 15.0939 22.7856C14.5125 23.0419 13.9047 23.17 13.2811 23.17C12.6548 23.17 12.0443 23.0393 11.463 22.783C11.4128 22.7647 6.94679 20.5081 3.66997 18.8477L1.58232 19.9093C1.17008 20.074 0.879395 20.4715 0.879395 20.9395C0.879395 21.4024 1.16479 21.7998 1.5744 21.9698V21.9907L12.2558 27.3904L12.2663 27.3851C12.5729 27.5394 12.9138 27.6335 13.2811 27.6335C13.6484 27.6335 13.9893 27.5394 14.2958 27.3851L14.3064 27.3904L24.9878 21.9907V21.9698C25.3974 21.7998 25.6828 21.4024 25.6828 20.9395C25.6828 20.4715 25.3921 20.074 24.9798 19.9093Z"
        fill="#3CD0FF"
      />
    </svg>
