<svg width="58" height="58" viewBox="0 0 58 58" fill="none" xmlns="http://www.w3.org/2000/svg">
<g filter="url(#filter0_d_76_38821)">
<rect x="3" y="1.78467" width="52" height="52" rx="12" fill="#1D9BF0"/>
<path d="M32.6319 15.9647V15.9595H33.9988L34.4982 16.0592C34.8312 16.124 35.1335 16.2089 35.4051 16.3139C35.6768 16.4189 35.9396 16.5414 36.1937 16.6814C36.4478 16.8214 36.6783 16.964 36.8851 17.1092C37.0901 17.2528 37.2741 17.405 37.4371 17.566C37.5983 17.7288 37.8498 17.7708 38.1915 17.692C38.5332 17.6133 38.9013 17.5039 39.2956 17.3639C39.6899 17.2239 40.0798 17.0664 40.4653 16.8914C40.8509 16.7164 41.0857 16.6052 41.1698 16.558C41.2522 16.509 41.296 16.4827 41.3013 16.4792L41.3065 16.4714L41.3328 16.4582L41.3591 16.4451L41.3854 16.432L41.4116 16.4189L41.4169 16.411L41.4248 16.4057L41.4327 16.4005L41.4379 16.3926L41.4642 16.3847L41.4905 16.3795L41.4853 16.4189L41.4774 16.4582L41.4642 16.4976L41.4511 16.537L41.4379 16.5632L41.4248 16.5895L41.4116 16.6289C41.4029 16.6551 41.3941 16.6901 41.3854 16.7339C41.3766 16.7776 41.2934 16.9526 41.1356 17.2589C40.9779 17.5651 40.7808 17.8758 40.5442 18.1908C40.3076 18.5058 40.0956 18.7438 39.9081 18.9048C39.7188 19.0675 39.5935 19.1813 39.5321 19.246C39.4708 19.3125 39.3963 19.3738 39.3087 19.4298L39.1773 19.5164L39.151 19.5295L39.1247 19.5427L39.1195 19.5505L39.1116 19.5558L39.1037 19.561L39.0984 19.5689L39.0721 19.582L39.0458 19.5952L39.0406 19.603L39.0327 19.6083L39.0248 19.6135L39.0195 19.6214L39.0143 19.6293L39.0064 19.6345L38.9985 19.6398L38.9933 19.6477H39.1247L39.8607 19.4902C40.3514 19.3852 40.8202 19.2583 41.2671 19.1095L41.9768 18.8733L42.0557 18.847L42.0951 18.8339L42.1214 18.8208L42.1477 18.8077L42.174 18.7945L42.2003 18.7814L42.2528 18.7735L42.3054 18.7683V18.8208L42.2923 18.826L42.2791 18.8339L42.2739 18.8418L42.266 18.847L42.2581 18.8523L42.2528 18.8602L42.2476 18.868L42.2397 18.8733L42.2318 18.8785L42.2265 18.8864L42.2213 18.8943L42.2134 18.8995L42.2003 18.9258L42.1871 18.952L42.1792 18.9573C42.1757 18.9625 42.0645 19.1113 41.8454 19.4035C41.6263 19.6975 41.508 19.8463 41.4905 19.8498C41.473 19.855 41.4484 19.8813 41.4169 19.9285C41.3871 19.9775 41.2014 20.1727 40.8596 20.5139C40.5179 20.8552 40.1832 21.1588 39.8555 21.4248C39.526 21.6926 39.3595 22.0216 39.356 22.4118C39.3508 22.8003 39.3306 23.2396 39.2956 23.7296C39.2605 24.2196 39.1948 24.749 39.0984 25.3178C39.002 25.8865 38.8531 26.5297 38.6515 27.2472C38.45 27.9647 38.2047 28.6647 37.9155 29.3472C37.6263 30.0297 37.324 30.6422 37.0086 31.1848C36.6932 31.7273 36.404 32.1867 36.1411 32.5629C35.8783 32.9392 35.611 33.2935 35.3394 33.626C35.0678 33.9586 34.7243 34.3331 34.309 34.7496C33.8919 35.1643 33.6641 35.3918 33.6255 35.4321C33.5852 35.4706 33.4135 35.6141 33.1103 35.8626C32.8089 36.1128 32.4846 36.3631 32.1377 36.6134C31.7924 36.8619 31.4752 37.0692 31.1861 37.2355C30.8969 37.4017 30.5482 37.5916 30.1399 37.8051C29.7333 38.0204 29.2934 38.2199 28.8203 38.4036C28.3471 38.5874 27.8477 38.758 27.3219 38.9155C26.7962 39.073 26.288 39.1955 25.7973 39.283C25.3066 39.3705 24.7502 39.4449 24.1281 39.5062L23.1949 39.598V39.6112H21.4862V39.598L21.2628 39.5849C21.1139 39.5762 20.9912 39.5674 20.8948 39.5587C20.7984 39.5499 20.4348 39.5018 19.8039 39.4143C19.173 39.3268 18.6779 39.2393 18.3187 39.1518C17.9594 39.0643 17.4249 38.898 16.7152 38.653C16.0054 38.408 15.3982 38.1604 14.8935 37.9101C14.3906 37.6616 14.0751 37.5041 13.9472 37.4376C13.821 37.3729 13.6791 37.2924 13.5213 37.1961L13.2848 37.0517L13.2795 37.0439L13.2716 37.0386L13.2637 37.0334L13.2585 37.0255L13.2322 37.0124L13.2059 36.9992L13.2007 36.9914L13.1928 36.9861L13.1849 36.9809L13.1796 36.973L13.1744 36.9651L13.1665 36.9599H13.1533V36.9074L13.1796 36.9126L13.2059 36.9205L13.3242 36.9336C13.403 36.9424 13.6177 36.9555 13.9682 36.973C14.3187 36.9905 14.6911 36.9905 15.0854 36.973C15.4797 36.9555 15.8828 36.9161 16.2946 36.8549C16.7064 36.7936 17.1927 36.6886 17.7535 36.5399C18.3143 36.3911 18.8295 36.2143 19.2992 36.0096C19.7671 35.8031 20.1001 35.6491 20.2981 35.5476C20.4944 35.4478 20.794 35.2623 21.1971 34.9911L21.8017 34.5842L21.8069 34.5763L21.8148 34.5711L21.8227 34.5658L21.828 34.5579L21.8332 34.5501L21.8411 34.5448L21.849 34.5396L21.8543 34.5317L21.8805 34.5238L21.9068 34.5186L21.9121 34.4923L21.92 34.4661L21.9279 34.4608L21.9331 34.4529L21.7228 34.4398C21.5826 34.4311 21.4468 34.4223 21.3154 34.4136C21.1839 34.4048 20.978 34.3654 20.6976 34.2954C20.4173 34.2254 20.115 34.1204 19.7907 33.9804C19.4665 33.8404 19.1511 33.6742 18.8444 33.4817C18.5378 33.2892 18.3161 33.129 18.1794 33.0013C18.0444 32.8753 17.8692 32.6968 17.6536 32.4658C17.4398 32.233 17.2541 31.9941 17.0963 31.7491C16.9386 31.5041 16.7879 31.2215 16.6442 30.9012L16.426 30.4235L16.4129 30.3841L16.3997 30.3447L16.3919 30.3185L16.3866 30.2922L16.426 30.2975L16.4655 30.3054L16.7546 30.3447C16.9474 30.371 17.2497 30.3797 17.6615 30.371C18.0733 30.3622 18.3581 30.3447 18.5158 30.3185C18.6736 30.2922 18.7699 30.2747 18.805 30.266L18.8576 30.2529L18.9233 30.2397L18.989 30.2266L18.9943 30.2187L19.0021 30.2135L19.01 30.2082L19.0153 30.2004L18.9627 30.1872L18.9101 30.1741L18.8576 30.161L18.805 30.1479L18.7524 30.1347C18.7174 30.126 18.656 30.1085 18.5684 30.0822C18.4808 30.056 18.2442 29.9597 17.8587 29.7935C17.4731 29.6272 17.1664 29.4653 16.9386 29.3078C16.7102 29.1499 16.4925 28.9771 16.2867 28.7907C16.0817 28.6017 15.8565 28.3584 15.6111 28.0609C15.3658 27.7634 15.1468 27.4178 14.954 27.0241C14.7612 26.6303 14.6166 26.254 14.5202 25.8953C14.4242 25.5386 14.3609 25.174 14.331 24.8059L14.2837 24.2546L14.3099 24.2599L14.3362 24.2678L14.3625 24.2809L14.3888 24.294L14.4151 24.3071L14.4414 24.3203L14.8488 24.504C15.1205 24.6265 15.4578 24.7315 15.8609 24.819C16.2639 24.9065 16.5049 24.9546 16.5837 24.9634L16.702 24.9765H16.9386L16.9334 24.9686L16.9255 24.9634L16.9176 24.9581L16.9123 24.9503L16.9071 24.9424L16.8992 24.9371L16.8913 24.9319L16.886 24.924L16.8598 24.9109L16.8335 24.8978L16.8282 24.8899L16.8203 24.8846L16.8124 24.8794L16.8072 24.8715L16.7809 24.8584L16.7546 24.8453L16.7494 24.8374C16.7441 24.8339 16.6688 24.7779 16.5233 24.6694C16.3796 24.5591 16.2289 24.4165 16.0712 24.2415C15.9134 24.0665 15.7557 23.8827 15.598 23.6902C15.44 23.4973 15.2992 23.2909 15.1774 23.0734C15.0548 22.8546 14.9251 22.5763 14.7884 22.2386C14.6534 21.9026 14.5509 21.564 14.4808 21.2227C14.4107 20.8814 14.3713 20.5446 14.3625 20.2121C14.3538 19.8795 14.3625 19.5952 14.3888 19.3589C14.4151 19.1227 14.4677 18.8558 14.5465 18.5583C14.6254 18.2608 14.7393 17.9458 14.8883 17.6133L15.1117 17.1145L15.1248 17.0751L15.138 17.0357L15.1459 17.0305L15.1511 17.0226L15.1564 17.0147L15.1643 17.0095L15.1722 17.0147L15.1774 17.0226L15.1827 17.0305L15.1905 17.0357L15.1985 17.041L15.2037 17.0489L15.2089 17.0567L15.2168 17.062L15.23 17.0882L15.2431 17.1145L15.251 17.1197L15.2563 17.1276L15.6111 17.5214C15.8477 17.7839 16.1281 18.077 16.4523 18.4008C16.7765 18.7245 16.9562 18.8925 16.9912 18.9048C17.0263 18.9188 17.0701 18.959 17.1226 19.0255C17.1752 19.0903 17.3505 19.2452 17.6484 19.4902C17.9463 19.7352 18.3362 20.0196 18.8181 20.3433C19.3001 20.6671 19.8346 20.9864 20.4216 21.3014C21.0087 21.6165 21.6396 21.9008 22.3143 22.1546C22.989 22.4084 23.4621 22.5746 23.7338 22.6533C24.0054 22.7321 24.4698 22.8327 25.127 22.9552C25.7841 23.0777 26.2792 23.1565 26.6122 23.1915C26.9451 23.2265 27.173 23.2466 27.2956 23.2519L27.4796 23.2571L27.4744 23.2177L27.4665 23.1784L27.4139 22.8502C27.3789 22.6315 27.3613 22.3252 27.3613 21.9315C27.3613 21.5377 27.392 21.1746 27.4533 20.8421C27.5147 20.5095 27.6067 20.1727 27.7294 19.8314C27.852 19.4902 27.9721 19.2163 28.0895 19.0098C28.2087 18.805 28.3646 18.5714 28.5574 18.3089C28.7502 18.0464 28.9999 17.7751 29.3066 17.4951C29.6133 17.2151 29.9637 16.9657 30.358 16.747C30.7523 16.5282 31.116 16.362 31.4489 16.2482C31.7819 16.1345 32.0623 16.0601 32.2901 16.0251C32.518 15.9901 32.6319 15.97 32.6319 15.9647Z" fill="white"/>
</g>
<defs>
<filter id="filter0_d_76_38821" x="0.6" y="0.984668" width="56.8" height="56.8" filterUnits="userSpaceOnUse" color-interpolation-filters="sRGB">
<feFlood flood-opacity="0" result="BackgroundImageFix"/>
<feColorMatrix in="SourceAlpha" type="matrix" values="0 0 0 0 0 0 0 0 0 0 0 0 0 0 0 0 0 0 127 0" result="hardAlpha"/>
<feOffset dy="1.6"/>
<feGaussianBlur stdDeviation="1.2"/>
<feComposite in2="hardAlpha" operator="out"/>
<feColorMatrix type="matrix" values="0 0 0 0 0.0441319 0 0 0 0 0.0872104 0 0 0 0 0.170833 0 0 0 0.05 0"/>
<feBlend mode="normal" in2="BackgroundImageFix" result="effect1_dropShadow_76_38821"/>
<feBlend mode="normal" in="SourceGraphic" in2="effect1_dropShadow_76_38821" result="shape"/>
</filter>
</defs>
</svg>
