<svg width="18" height="18" viewBox="0 0 18 18" fill="none" xmlns="http://www.w3.org/2000/svg">
  <path
    fill-rule="evenodd"
    clip-rule="evenodd"
    d="M8.02831 2.63892C7.52556 2.63892 7.09784 2.98828 6.97778 3.45917H11.0148C10.8947 2.98828 10.467 2.63892 9.96428 2.63892H8.02831ZM12.1553 3.45948H13.6411C15.2169 3.45948 16.5 4.75821 16.5 6.35314C16.5 6.35314 16.455 7.02833 16.44 7.96858C16.4385 8.04301 16.4025 8.11592 16.3432 8.15997C15.9822 8.42655 15.6521 8.6468 15.6221 8.66199C14.3764 9.49743 12.929 10.0853 11.3869 10.3777C11.2864 10.3974 11.1873 10.345 11.1363 10.2554C10.7041 9.50654 9.8967 9.01895 8.99625 9.01895C8.1018 9.01895 7.28689 9.50123 6.84192 10.2508C6.79015 10.3389 6.6926 10.3898 6.5928 10.3708C5.06353 10.0777 3.61606 9.49059 2.37794 8.66958L1.65758 8.16832C1.59755 8.13035 1.56003 8.06199 1.56003 7.98604C1.53752 7.5987 1.5 6.35314 1.5 6.35314C1.5 4.75821 2.78314 3.45948 4.35893 3.45948H5.83717C5.97974 2.35822 6.9027 1.5 8.02826 1.5H9.96423C11.0898 1.5 12.0128 2.35822 12.1553 3.45948ZM16.2445 9.61112L16.2145 9.62631C14.6988 10.644 12.8754 11.32 10.9619 11.601C10.6918 11.639 10.4216 11.4643 10.3466 11.1909C10.1815 10.5681 9.64874 10.1579 9.01092 10.1579H9.00342H8.98841C8.35059 10.1579 7.81783 10.5681 7.65275 11.1909C7.57771 11.4643 7.30757 11.639 7.03744 11.601C5.12398 11.32 3.30057 10.644 1.78481 9.62631C1.77731 9.61871 1.70227 9.57314 1.64224 9.61112C1.57471 9.64909 1.57471 9.74023 1.57471 9.74023L1.62723 13.6136C1.62723 15.2086 2.90287 16.4997 4.47866 16.4997H13.5132C15.089 16.4997 16.3646 15.2086 16.3646 13.6136L16.4246 9.74023C16.4246 9.74023 16.4246 9.64909 16.3571 9.61112C16.3196 9.58833 16.2746 9.59593 16.2445 9.61112ZM9.5587 12.7934C9.5587 13.1124 9.31107 13.363 8.99592 13.363C8.68826 13.363 8.43314 13.1124 8.43314 12.7934V11.8136C8.43314 11.5022 8.68826 11.244 8.99592 11.244C9.31107 11.244 9.5587 11.5022 9.5587 11.8136V12.7934Z"
    fill="#547EFF"
  />
  <path
    fill-rule="evenodd"
    clip-rule="evenodd"
    d="M8.02831 2.63892C7.52556 2.63892 7.09784 2.98828 6.97778 3.45917H11.0148C10.8947 2.98828 10.467 2.63892 9.96428 2.63892H8.02831ZM12.1553 3.45948H13.6411C15.2169 3.45948 16.5 4.75821 16.5 6.35314C16.5 6.35314 16.455 7.02833 16.44 7.96858C16.4385 8.04301 16.4025 8.11592 16.3432 8.15997C15.9822 8.42655 15.6521 8.6468 15.6221 8.66199C14.3764 9.49743 12.929 10.0853 11.3869 10.3777C11.2864 10.3974 11.1873 10.345 11.1363 10.2554C10.7041 9.50654 9.8967 9.01895 8.99625 9.01895C8.1018 9.01895 7.28689 9.50123 6.84192 10.2508C6.79015 10.3389 6.6926 10.3898 6.5928 10.3708C5.06353 10.0777 3.61606 9.49059 2.37794 8.66958L1.65758 8.16832C1.59755 8.13035 1.56003 8.06199 1.56003 7.98604C1.53752 7.5987 1.5 6.35314 1.5 6.35314C1.5 4.75821 2.78314 3.45948 4.35893 3.45948H5.83717C5.97974 2.35822 6.9027 1.5 8.02826 1.5H9.96423C11.0898 1.5 12.0128 2.35822 12.1553 3.45948ZM16.2445 9.61112L16.2145 9.62631C14.6988 10.644 12.8754 11.32 10.9619 11.601C10.6918 11.639 10.4216 11.4643 10.3466 11.1909C10.1815 10.5681 9.64874 10.1579 9.01092 10.1579H9.00342H8.98841C8.35059 10.1579 7.81783 10.5681 7.65275 11.1909C7.57771 11.4643 7.30757 11.639 7.03744 11.601C5.12398 11.32 3.30057 10.644 1.78481 9.62631C1.77731 9.61871 1.70227 9.57314 1.64224 9.61112C1.57471 9.64909 1.57471 9.74023 1.57471 9.74023L1.62723 13.6136C1.62723 15.2086 2.90287 16.4997 4.47866 16.4997H13.5132C15.089 16.4997 16.3646 15.2086 16.3646 13.6136L16.4246 9.74023C16.4246 9.74023 16.4246 9.64909 16.3571 9.61112C16.3196 9.58833 16.2746 9.59593 16.2445 9.61112ZM9.5587 12.7934C9.5587 13.1124 9.31107 13.363 8.99592 13.363C8.68826 13.363 8.43314 13.1124 8.43314 12.7934V11.8136C8.43314 11.5022 8.68826 11.244 8.99592 11.244C9.31107 11.244 9.5587 11.5022 9.5587 11.8136V12.7934Z"
    fill="#547EFF"
  />
</svg>

