<svg width="105" height="32" viewBox="0 0 105 32" fill="none" xmlns="http://www.w3.org/2000/svg">
<rect width="105" height="32" rx="6" fill="#4170FF"/>
<rect width="105" height="32" rx="6" fill="white" fill-opacity="0.9"/>
<path fill-rule="evenodd" clip-rule="evenodd" d="M9.5 15C9.5 10.86 12.8525 7.5 17 7.5C21.14 7.5 24.5 10.86 24.5 15C24.5 19.1475 21.14 22.5 17 22.5C12.8525 22.5 9.5 19.1475 9.5 15ZM18.6725 16.3723L19.8875 12.5323C19.97 12.2698 19.73 12.0223 19.4675 12.1048L15.6275 13.3048C15.47 13.3573 15.3425 13.4773 15.2975 13.6348L14.0975 17.4823C14.015 17.7373 14.2625 17.9848 14.5175 17.9023L18.3425 16.7023C18.5 16.6573 18.6275 16.5298 18.6725 16.3723Z" fill="#547EFF"/>
<path d="M37.1122 21L34.2884 10.8182H35.9041L37.8878 18.7031H37.9822L40.0455 10.8182H41.6463L43.7095 18.7081H43.804L45.7827 10.8182H47.4034L44.5746 21H43.0284L40.8857 13.3736H40.8061L38.6634 21H37.1122ZM51.2241 21.1541C50.4717 21.1541 49.8237 20.9934 49.2802 20.6719C48.7399 20.3471 48.3223 19.8913 48.0273 19.3047C47.7357 18.7147 47.5898 18.0237 47.5898 17.2315C47.5898 16.4493 47.7357 15.7599 48.0273 15.1634C48.3223 14.5668 48.7333 14.1011 49.2603 13.7663C49.7906 13.4316 50.4104 13.2642 51.1197 13.2642C51.5505 13.2642 51.9682 13.3355 52.3725 13.478C52.7769 13.6205 53.1398 13.8442 53.4613 14.1491C53.7828 14.4541 54.0363 14.8501 54.2219 15.3374C54.4076 15.8213 54.5004 16.4096 54.5004 17.1023V17.6293H48.43V16.5156H53.0437C53.0437 16.1245 52.9641 15.7782 52.805 15.4766C52.646 15.1716 52.4222 14.9313 52.1339 14.7557C51.8488 14.58 51.5141 14.4922 51.1296 14.4922C50.712 14.4922 50.3474 14.5949 50.0359 14.8004C49.7276 15.0026 49.489 15.2678 49.32 15.5959C49.1542 15.9207 49.0714 16.2737 49.0714 16.6548V17.5249C49.0714 18.0353 49.1609 18.4695 49.3398 18.8274C49.5221 19.1854 49.7757 19.4588 50.1005 19.6477C50.4253 19.8333 50.8048 19.9261 51.239 19.9261C51.5207 19.9261 51.7776 19.8864 52.0096 19.8068C52.2416 19.724 52.4421 19.6013 52.6112 19.4389C52.7802 19.2765 52.9094 19.076 52.9989 18.8374L54.4059 19.0909C54.2932 19.5052 54.091 19.8681 53.7994 20.1797C53.511 20.4879 53.1481 20.7282 52.7106 20.9006C52.2764 21.0696 51.7809 21.1541 51.2241 21.1541ZM56.269 21V10.8182H57.7555V14.6016H57.845C57.9312 14.4425 58.0555 14.2585 58.2179 14.0497C58.3803 13.8409 58.6056 13.6586 58.894 13.5028C59.1824 13.3438 59.5635 13.2642 60.0375 13.2642C60.6539 13.2642 61.2041 13.42 61.688 13.7315C62.1719 14.0431 62.5514 14.4922 62.8265 15.0788C63.1049 15.6655 63.2441 16.3714 63.2441 17.1967C63.2441 18.022 63.1066 18.7296 62.8315 19.3196C62.5564 19.9062 62.1786 20.3587 61.698 20.6768C61.2174 20.9917 60.6689 21.1491 60.0524 21.1491C59.5884 21.1491 59.2089 21.0713 58.9139 20.9155C58.6222 20.7597 58.3935 20.5774 58.2278 20.3686C58.0621 20.1598 57.9345 19.9742 57.845 19.8118H57.7207V21H56.269ZM57.7257 17.1818C57.7257 17.7187 57.8036 18.1894 57.9593 18.5938C58.1151 18.9981 58.3405 19.3146 58.6355 19.5433C58.9305 19.7687 59.2917 19.8814 59.7193 19.8814C60.1634 19.8814 60.5346 19.7637 60.8329 19.5284C61.1312 19.2898 61.3566 18.9666 61.5091 18.5589C61.6648 18.1513 61.7427 17.6922 61.7427 17.1818C61.7427 16.678 61.6665 16.2256 61.514 15.8246C61.3649 15.4235 61.1395 15.107 60.8379 14.875C60.5396 14.643 60.1667 14.527 59.7193 14.527C59.2884 14.527 58.9238 14.638 58.6255 14.8601C58.3306 15.0821 58.1068 15.392 57.9544 15.7898C57.8019 16.1875 57.7257 16.6515 57.7257 17.1818ZM64.9134 21V13.3636H66.3999V21H64.9134ZM65.6641 12.1854C65.4055 12.1854 65.1835 12.0992 64.9979 11.9268C64.8156 11.7512 64.7244 11.5424 64.7244 11.3004C64.7244 11.0552 64.8156 10.8464 64.9979 10.674C65.1835 10.4983 65.4055 10.4105 65.6641 10.4105C65.9226 10.4105 66.143 10.4983 66.3253 10.674C66.5109 10.8464 66.6037 11.0552 66.6037 11.3004C66.6037 11.5424 66.5109 11.7512 66.3253 11.9268C66.143 12.0992 65.9226 12.1854 65.6641 12.1854ZM69.8862 16.4659V21H68.3997V13.3636H69.8265V14.6065H69.921C70.0967 14.2022 70.3717 13.8774 70.7463 13.6321C71.1241 13.3868 71.5997 13.2642 72.1731 13.2642C72.6935 13.2642 73.1492 13.3736 73.5403 13.5923C73.9314 13.8078 74.2347 14.1293 74.4501 14.5568C74.6655 14.9844 74.7733 15.513 74.7733 16.1428V21H73.2868V16.3217C73.2868 15.7682 73.1426 15.3357 72.8542 15.0241C72.5659 14.7093 72.1698 14.5518 71.666 14.5518C71.3213 14.5518 71.0147 14.6264 70.7463 14.7756C70.4811 14.9247 70.2707 15.1435 70.1149 15.4318C69.9624 15.7169 69.8862 16.0616 69.8862 16.4659ZM78.9892 21.169C78.5053 21.169 78.0678 21.0795 77.6767 20.9006C77.2856 20.7183 76.9757 20.4548 76.747 20.1101C76.5216 19.7654 76.4089 19.3428 76.4089 18.8423C76.4089 18.4115 76.4918 18.0568 76.6575 17.7784C76.8232 17.5 77.0469 17.2796 77.3287 17.1172C77.6104 16.9548 77.9252 16.8321 78.2733 16.7493C78.6213 16.6664 78.9759 16.6035 79.3372 16.5604C79.7946 16.5073 80.1658 16.4643 80.4508 16.4311C80.7359 16.3946 80.943 16.3366 81.0723 16.2571C81.2015 16.1776 81.2662 16.0483 81.2662 15.8693V15.8345C81.2662 15.4003 81.1435 15.0639 80.8983 14.8253C80.6563 14.5866 80.295 14.4673 79.8145 14.4673C79.314 14.4673 78.9196 14.5784 78.6312 14.8004C78.3462 15.0192 78.149 15.2628 78.0396 15.5312L76.6426 15.2131C76.8083 14.7491 77.0502 14.3745 77.3684 14.0895C77.6899 13.8011 78.0595 13.5923 78.4771 13.4631C78.8947 13.3305 79.3339 13.2642 79.7946 13.2642C80.0995 13.2642 80.4226 13.3007 80.764 13.3736C81.1087 13.4432 81.4302 13.5724 81.7285 13.7614C82.0301 13.9503 82.277 14.2204 82.4693 14.5717C82.6615 14.9197 82.7576 15.3722 82.7576 15.929V21H81.3059V19.956H81.2463C81.1502 20.1482 81.006 20.3371 80.8137 20.5227C80.6215 20.7083 80.3746 20.8625 80.073 20.9851C79.7714 21.1077 79.4101 21.169 78.9892 21.169ZM79.3123 19.9759C79.7233 19.9759 80.0746 19.8946 80.3663 19.7322C80.6613 19.5698 80.885 19.3577 81.0375 19.0959C81.1932 18.8307 81.2711 18.5473 81.2711 18.2457V17.2614C81.2181 17.3144 81.1154 17.3641 80.9629 17.4105C80.8137 17.4536 80.6431 17.4917 80.4508 17.5249C80.2586 17.5547 80.0713 17.5829 79.889 17.6094C79.7067 17.6326 79.5543 17.6525 79.4316 17.669C79.1433 17.7055 78.8798 17.7668 78.6412 17.853C78.4058 17.9392 78.2169 18.0634 78.0744 18.2259C77.9352 18.3849 77.8656 18.5971 77.8656 18.8622C77.8656 19.2301 78.0015 19.5085 78.2733 19.6974C78.545 19.883 78.8914 19.9759 79.3123 19.9759ZM84.7376 21V13.3636H86.1744V14.5767H86.2539C86.3931 14.1657 86.6384 13.8426 86.9897 13.6072C87.3443 13.3686 87.7454 13.2493 88.1928 13.2493C88.2856 13.2493 88.395 13.2526 88.521 13.2592C88.6502 13.2659 88.7513 13.2741 88.8242 13.2841V14.706C88.7646 14.6894 88.6585 14.6712 88.506 14.6513C88.3536 14.6281 88.2011 14.6165 88.0487 14.6165C87.6973 14.6165 87.3841 14.6911 87.109 14.8402C86.8372 14.986 86.6218 15.1899 86.4627 15.4517C86.3036 15.7102 86.2241 16.0052 86.2241 16.3366V21H84.7376ZM95.8329 15.228L94.4856 15.4666C94.4293 15.2943 94.3398 15.1302 94.2172 14.9744C94.0978 14.8187 93.9354 14.6911 93.7299 14.5916C93.5244 14.4922 93.2676 14.4425 92.9593 14.4425C92.5384 14.4425 92.1871 14.5369 91.9054 14.7259C91.6236 14.9115 91.4828 15.1518 91.4828 15.4467C91.4828 15.7019 91.5772 15.9074 91.7662 16.0632C91.9551 16.219 92.26 16.3466 92.6809 16.446L93.894 16.7244C94.5967 16.8868 95.1203 17.1371 95.465 17.4751C95.8097 17.8132 95.9821 18.2524 95.9821 18.7926C95.9821 19.25 95.8495 19.6577 95.5843 20.0156C95.3225 20.3703 94.9563 20.6487 94.4856 20.8509C94.0183 21.053 93.4764 21.1541 92.8599 21.1541C92.0048 21.1541 91.3071 20.9718 90.7669 20.6072C90.2266 20.2393 89.8952 19.7173 89.7725 19.0412L91.2093 18.8224C91.2988 19.197 91.4828 19.4804 91.7612 19.6726C92.0396 19.8615 92.4025 19.956 92.85 19.956C93.3372 19.956 93.7266 19.8549 94.0183 19.6527C94.31 19.4472 94.4558 19.197 94.4558 18.902C94.4558 18.6634 94.3663 18.4628 94.1873 18.3004C94.0117 18.138 93.7415 18.0154 93.377 17.9325L92.0843 17.6491C91.3717 17.4867 90.8448 17.2282 90.5034 16.8736C90.1653 16.5189 89.9963 16.0698 89.9963 15.5263C89.9963 15.0755 90.1222 14.6811 90.3741 14.343C90.626 14.005 90.974 13.7415 91.4181 13.5526C91.8623 13.3603 92.371 13.2642 92.9444 13.2642C93.7697 13.2642 94.4193 13.4432 94.8933 13.8011C95.3672 14.1558 95.6805 14.6314 95.8329 15.228Z" fill="#3D474D"/>
</svg>