<svg width="100" height="32" viewBox="0 0 100 32" fill="none" xmlns="http://www.w3.org/2000/svg">
<rect width="100" height="32" rx="6" fill="#FFAB00"/>
<rect width="100" height="32" rx="6" fill="white" fill-opacity="0.9"/>
<path fill-rule="evenodd" clip-rule="evenodd" d="M13.8575 7.5H20.1432C22.46 7.5 23.75 8.835 23.75 11.1225V18.87C23.75 21.195 22.46 22.5 20.1432 22.5H13.8575C11.5775 22.5 10.25 21.195 10.25 18.87V11.1225C10.25 8.835 11.5775 7.5 13.8575 7.5ZM14.06 10.9953V10.9878H16.3017C16.625 10.9878 16.8875 11.2503 16.8875 11.572C16.8875 11.9028 16.625 12.1653 16.3017 12.1653H14.06C13.7367 12.1653 13.475 11.9028 13.475 11.5803C13.475 11.2578 13.7367 10.9953 14.06 10.9953ZM14.0599 15.5555H19.9399C20.2624 15.5555 20.5249 15.293 20.5249 14.9705C20.5249 14.648 20.2624 14.3848 19.9399 14.3848H14.0599C13.7366 14.3848 13.4749 14.648 13.4749 14.9705C13.4749 15.293 13.7366 15.5555 14.0599 15.5555ZM14.06 18.9828H19.94C20.2392 18.9528 20.465 18.697 20.465 18.3978C20.465 18.0903 20.2392 17.8353 19.94 17.8053H14.06C13.835 17.7828 13.6175 17.8878 13.4975 18.0828C13.3775 18.2703 13.3775 18.5178 13.4975 18.7128C13.6175 18.9003 13.835 19.0128 14.06 18.9828Z" fill="#FFAB00"/>
<path d="M35.1186 21V10.8182H38.7479C39.54 10.8182 40.1963 10.9624 40.7166 11.2507C41.237 11.5391 41.6264 11.9335 41.8849 12.4339C42.1435 12.9311 42.2727 13.4912 42.2727 14.1143C42.2727 14.7408 42.1418 15.3042 41.88 15.8047C41.6214 16.3018 41.2304 16.6963 40.7067 16.9879C40.1863 17.2763 39.5317 17.4205 38.7429 17.4205H36.2472V16.1179H38.6037C39.1042 16.1179 39.5102 16.0317 39.8217 15.8594C40.1333 15.6837 40.362 15.4451 40.5078 15.1435C40.6536 14.8419 40.7266 14.4988 40.7266 14.1143C40.7266 13.7299 40.6536 13.3885 40.5078 13.0902C40.362 12.7919 40.1316 12.5582 39.8168 12.3892C39.5052 12.2202 39.0942 12.1357 38.5838 12.1357H36.6548V21H35.1186ZM45.4409 10.8182V21H43.9544V10.8182H45.4409ZM49.663 21.169C49.1791 21.169 48.7416 21.0795 48.3505 20.9006C47.9594 20.7183 47.6495 20.4548 47.4208 20.1101C47.1954 19.7654 47.0827 19.3428 47.0827 18.8423C47.0827 18.4115 47.1656 18.0568 47.3313 17.7784C47.497 17.5 47.7208 17.2796 48.0025 17.1172C48.2842 16.9548 48.5991 16.8321 48.9471 16.7493C49.2951 16.6664 49.6497 16.6035 50.011 16.5604C50.4684 16.5073 50.8396 16.4643 51.1246 16.4311C51.4097 16.3946 51.6168 16.3366 51.7461 16.2571C51.8754 16.1776 51.94 16.0483 51.94 15.8693V15.8345C51.94 15.4003 51.8174 15.0639 51.5721 14.8253C51.3301 14.5866 50.9689 14.4673 50.4883 14.4673C49.9878 14.4673 49.5934 14.5784 49.305 14.8004C49.02 15.0192 48.8228 15.2628 48.7134 15.5312L47.3164 15.2131C47.4821 14.7491 47.7241 14.3745 48.0423 14.0895C48.3638 13.8011 48.7333 13.5923 49.1509 13.4631C49.5685 13.3305 50.0077 13.2642 50.4684 13.2642C50.7733 13.2642 51.0965 13.3007 51.4379 13.3736C51.7826 13.4432 52.104 13.5724 52.4023 13.7614C52.704 13.9503 52.9509 14.2204 53.1431 14.5717C53.3353 14.9197 53.4315 15.3722 53.4315 15.929V21H51.9798V19.956H51.9201C51.824 20.1482 51.6798 20.3371 51.4876 20.5227C51.2953 20.7083 51.0484 20.8625 50.7468 20.9851C50.4452 21.1077 50.0839 21.169 49.663 21.169ZM49.9862 19.9759C50.3971 19.9759 50.7485 19.8946 51.0401 19.7322C51.3351 19.5698 51.5588 19.3577 51.7113 19.0959C51.8671 18.8307 51.945 18.5473 51.945 18.2457V17.2614C51.8919 17.3144 51.7892 17.3641 51.6367 17.4105C51.4876 17.4536 51.3169 17.4917 51.1246 17.5249C50.9324 17.5547 50.7451 17.5829 50.5629 17.6094C50.3806 17.6326 50.2281 17.6525 50.1055 17.669C49.8171 17.7055 49.5536 17.7668 49.315 17.853C49.0797 17.9392 48.8907 18.0634 48.7482 18.2259C48.609 18.3849 48.5394 18.5971 48.5394 18.8622C48.5394 19.2301 48.6753 19.5085 48.9471 19.6974C49.2189 19.883 49.5652 19.9759 49.9862 19.9759ZM56.8979 16.4659V21H55.4114V13.3636H56.8382V14.6065H56.9327C57.1084 14.2022 57.3835 13.8774 57.758 13.6321C58.1358 13.3868 58.6114 13.2642 59.1848 13.2642C59.7052 13.2642 60.1609 13.3736 60.552 13.5923C60.9431 13.8078 61.2464 14.1293 61.4618 14.5568C61.6773 14.9844 61.785 15.513 61.785 16.1428V21H60.2985V16.3217C60.2985 15.7682 60.1543 15.3357 59.8659 15.0241C59.5776 14.7093 59.1815 14.5518 58.6777 14.5518C58.333 14.5518 58.0265 14.6264 57.758 14.7756C57.4928 14.9247 57.2824 15.1435 57.1266 15.4318C56.9741 15.7169 56.8979 16.0616 56.8979 16.4659ZM65.2651 16.4659V21H63.7786V13.3636H65.2054V14.6065H65.2999C65.4756 14.2022 65.7507 13.8774 66.1252 13.6321C66.503 13.3868 66.9786 13.2642 67.552 13.2642C68.0724 13.2642 68.5281 13.3736 68.9192 13.5923C69.3103 13.8078 69.6136 14.1293 69.829 14.5568C70.0444 14.9844 70.1522 15.513 70.1522 16.1428V21H68.6657V16.3217C68.6657 15.7682 68.5215 15.3357 68.2331 15.0241C67.9448 14.7093 67.5487 14.5518 67.0449 14.5518C66.7002 14.5518 66.3936 14.6264 66.1252 14.7756C65.86 14.9247 65.6496 15.1435 65.4938 15.4318C65.3413 15.7169 65.2651 16.0616 65.2651 16.4659ZM72.1458 21V13.3636H73.6323V21H72.1458ZM72.8965 12.1854C72.638 12.1854 72.4159 12.0992 72.2303 11.9268C72.048 11.7512 71.9569 11.5424 71.9569 11.3004C71.9569 11.0552 72.048 10.8464 72.2303 10.674C72.4159 10.4983 72.638 10.4105 72.8965 10.4105C73.155 10.4105 73.3754 10.4983 73.5577 10.674C73.7433 10.8464 73.8361 11.0552 73.8361 11.3004C73.8361 11.5424 73.7433 11.7512 73.5577 11.9268C73.3754 12.0992 73.155 12.1854 72.8965 12.1854ZM77.1186 16.4659V21H75.6321V13.3636H77.0589V14.6065H77.1534C77.3291 14.2022 77.6042 13.8774 77.9787 13.6321C78.3565 13.3868 78.8321 13.2642 79.4055 13.2642C79.9259 13.2642 80.3816 13.3736 80.7727 13.5923C81.1638 13.8078 81.4671 14.1293 81.6825 14.5568C81.898 14.9844 82.0057 15.513 82.0057 16.1428V21H80.5192V16.3217C80.5192 15.7682 80.375 15.3357 80.0866 15.0241C79.7983 14.7093 79.4022 14.5518 78.8984 14.5518C78.5537 14.5518 78.2472 14.6264 77.9787 14.7756C77.7135 14.9247 77.5031 15.1435 77.3473 15.4318C77.1948 15.7169 77.1186 16.0616 77.1186 16.4659ZM87.201 24.0227C86.5945 24.0227 86.0724 23.9432 85.6349 23.7841C85.2008 23.625 84.8461 23.4145 84.571 23.1527C84.2959 22.8909 84.0904 22.6042 83.9545 22.2926L85.2322 21.7656C85.3217 21.9115 85.4411 22.0656 85.5902 22.228C85.7427 22.3937 85.9482 22.5346 86.2067 22.6506C86.4685 22.7666 86.8049 22.8246 87.2159 22.8246C87.7794 22.8246 88.245 22.687 88.6129 22.4119C88.9808 22.1402 89.1648 21.706 89.1648 21.1094V19.608H89.0703C88.9808 19.7704 88.8516 19.951 88.6825 20.1499C88.5168 20.3487 88.2881 20.5211 87.9964 20.6669C87.7048 20.8127 87.3253 20.8857 86.858 20.8857C86.2547 20.8857 85.7112 20.7448 85.2273 20.4631C84.7467 20.178 84.3655 19.7588 84.0838 19.2053C83.8054 18.6484 83.6662 17.964 83.6662 17.152C83.6662 16.34 83.8037 15.6439 84.0788 15.0639C84.3572 14.4839 84.7384 14.0398 85.2223 13.7315C85.7062 13.42 86.2547 13.2642 86.8679 13.2642C87.3419 13.2642 87.7247 13.3438 88.0163 13.5028C88.308 13.6586 88.535 13.8409 88.6974 14.0497C88.8632 14.2585 88.9908 14.4425 89.0803 14.6016H89.1896V13.3636H90.6463V21.169C90.6463 21.8253 90.4938 22.3639 90.1889 22.7848C89.884 23.2057 89.4714 23.5173 88.951 23.7195C88.4339 23.9216 87.8506 24.0227 87.201 24.0227ZM87.1861 19.6527C87.6136 19.6527 87.9749 19.5533 88.2699 19.3544C88.5682 19.1522 88.7936 18.8639 88.946 18.4893C89.1018 18.1115 89.1797 17.6591 89.1797 17.1321C89.1797 16.6184 89.1035 16.166 88.951 15.7749C88.7985 15.3838 88.5748 15.0788 88.2798 14.8601C87.9848 14.638 87.6203 14.527 87.1861 14.527C86.7386 14.527 86.3658 14.643 86.0675 14.875C85.7692 15.1037 85.5438 15.4152 85.3913 15.8097C85.2422 16.2041 85.1676 16.6449 85.1676 17.1321C85.1676 17.6326 85.2438 18.0717 85.3963 18.4496C85.5488 18.8274 85.7741 19.1224 86.0724 19.3345C86.3741 19.5466 86.7453 19.6527 87.1861 19.6527Z" fill="#3D474D"/>
</svg>