        <svg width="135" height="32" viewBox="0 0 135 32" fill="none" xmlns="http://www.w3.org/2000/svg">
        <rect width="135" height="32" rx="6" fill="#3DCC3D"/>
        <rect width="135" height="32" rx="6" fill="white" fill-opacity="0.9"/>
        <path fill-rule="evenodd" clip-rule="evenodd" d="M9.5 15.0043C9.5 10.8647 12.8663 7.5 17 7.5C21.1337 7.5 24.5 10.8647 24.5 15.0043C24.5 19.1353 21.1337 22.5 17 22.5C12.8663 22.5 9.5 19.1353 9.5 15.0043ZM19.7513 15.7637C19.831 15.6841 19.9323 15.5611 19.954 15.5321C20.0699 15.3802 20.1278 15.192 20.1278 15.0046C20.1278 14.7941 20.0626 14.5987 19.9396 14.4395C19.9295 14.4294 19.9097 14.4079 19.884 14.3799C19.8358 14.3275 19.7667 14.2523 19.7007 14.1862C19.107 13.5495 17.5578 12.5075 16.747 12.1891C16.6239 12.1392 16.3126 12.0299 16.1461 12.0227C15.9868 12.0227 15.8348 12.0589 15.69 12.1312C15.509 12.2325 15.3643 12.3917 15.2846 12.5799C15.234 12.7101 15.1543 13.1009 15.1543 13.1081C15.0747 13.535 15.0312 14.2297 15.0312 14.9967C15.0312 15.7282 15.0747 16.3932 15.1398 16.8273C15.1416 16.8291 15.1479 16.8602 15.1575 16.9084C15.1869 17.0551 15.2482 17.3606 15.3136 17.4858C15.4729 17.7897 15.7841 17.9778 16.1172 17.9778H16.1461C16.3633 17.9706 16.8194 17.7825 16.8194 17.7752C17.5868 17.4569 19.0998 16.4655 19.7079 15.8071L19.7513 15.7637Z" fill="#3DCC3D"/>
        <path fill-rule="evenodd" clip-rule="evenodd" d="M9.5 15.0043C9.5 10.8647 12.8663 7.5 17 7.5C21.1337 7.5 24.5 10.8647 24.5 15.0043C24.5 19.1353 21.1337 22.5 17 22.5C12.8663 22.5 9.5 19.1353 9.5 15.0043ZM19.7513 15.7637C19.831 15.6841 19.9323 15.5611 19.954 15.5321C20.0699 15.3802 20.1278 15.192 20.1278 15.0046C20.1278 14.7941 20.0626 14.5987 19.9396 14.4395C19.9295 14.4294 19.9097 14.4079 19.884 14.3799C19.8358 14.3275 19.7667 14.2523 19.7007 14.1862C19.107 13.5495 17.5578 12.5075 16.747 12.1891C16.6239 12.1392 16.3126 12.0299 16.1461 12.0227C15.9868 12.0227 15.8348 12.0589 15.69 12.1312C15.509 12.2325 15.3643 12.3917 15.2846 12.5799C15.234 12.7101 15.1543 13.1009 15.1543 13.1081C15.0747 13.535 15.0312 14.2297 15.0312 14.9967C15.0312 15.7282 15.0747 16.3932 15.1398 16.8273C15.1416 16.8291 15.1479 16.8602 15.1575 16.9084C15.1869 17.0551 15.2482 17.3606 15.3136 17.4858C15.4729 17.7897 15.7841 17.9778 16.1172 17.9778H16.1461C16.3633 17.9706 16.8194 17.7825 16.8194 17.7752C17.5868 17.4569 19.0998 16.4655 19.7079 15.8071L19.7513 15.7637Z" fill="#3DCC3D"/>
        <path d="M35.1186 21V10.8182H38.7479C39.54 10.8182 40.1963 10.9624 40.7166 11.2507C41.237 11.5391 41.6264 11.9335 41.8849 12.4339C42.1435 12.9311 42.2727 13.4912 42.2727 14.1143C42.2727 14.7408 42.1418 15.3042 41.88 15.8047C41.6214 16.3018 41.2304 16.6963 40.7067 16.9879C40.1863 17.2763 39.5317 17.4205 38.7429 17.4205H36.2472V16.1179H38.6037C39.1042 16.1179 39.5102 16.0317 39.8217 15.8594C40.1333 15.6837 40.362 15.4451 40.5078 15.1435C40.6536 14.8419 40.7266 14.4988 40.7266 14.1143C40.7266 13.7299 40.6536 13.3885 40.5078 13.0902C40.362 12.7919 40.1316 12.5582 39.8168 12.3892C39.5052 12.2202 39.0942 12.1357 38.5838 12.1357H36.6548V21H35.1186ZM43.9544 21V13.3636H45.3912V14.5767H45.4707C45.6099 14.1657 45.8552 13.8426 46.2065 13.6072C46.5611 13.3686 46.9622 13.2493 47.4096 13.2493C47.5024 13.2493 47.6118 13.2526 47.7377 13.2592C47.867 13.2659 47.9681 13.2741 48.041 13.2841V14.706C47.9814 14.6894 47.8753 14.6712 47.7228 14.6513C47.5704 14.6281 47.4179 14.6165 47.2654 14.6165C46.9141 14.6165 46.6009 14.6911 46.3258 14.8402C46.054 14.986 45.8386 15.1899 45.6795 15.4517C45.5204 15.7102 45.4409 16.0052 45.4409 16.3366V21H43.9544ZM52.3452 21.1541C51.5928 21.1541 50.9448 20.9934 50.4013 20.6719C49.861 20.3471 49.4434 19.8913 49.1484 19.3047C48.8568 18.7147 48.7109 18.0237 48.7109 17.2315C48.7109 16.4493 48.8568 15.7599 49.1484 15.1634C49.4434 14.5668 49.8544 14.1011 50.3814 13.7663C50.9117 13.4316 51.5315 13.2642 52.2408 13.2642C52.6716 13.2642 53.0893 13.3355 53.4936 13.478C53.898 13.6205 54.2609 13.8442 54.5824 14.1491C54.9039 14.4541 55.1574 14.8501 55.343 15.3374C55.5286 15.8213 55.6214 16.4096 55.6214 17.1023V17.6293H49.5511V16.5156H54.1648C54.1648 16.1245 54.0852 15.7782 53.9261 15.4766C53.767 15.1716 53.5433 14.9313 53.255 14.7557C52.9699 14.58 52.6352 14.4922 52.2507 14.4922C51.8331 14.4922 51.4685 14.5949 51.157 14.8004C50.8487 15.0026 50.6101 15.2678 50.4411 15.5959C50.2753 15.9207 50.1925 16.2737 50.1925 16.6548V17.5249C50.1925 18.0353 50.282 18.4695 50.4609 18.8274C50.6432 19.1854 50.8968 19.4588 51.2216 19.6477C51.5464 19.8333 51.9259 19.9261 52.3601 19.9261C52.6418 19.9261 52.8987 19.8864 53.1307 19.8068C53.3627 19.724 53.5632 19.6013 53.7322 19.4389C53.9013 19.2765 54.0305 19.076 54.12 18.8374L55.527 19.0909C55.4143 19.5052 55.2121 19.8681 54.9205 20.1797C54.6321 20.4879 54.2692 20.7282 53.8317 20.9006C53.3975 21.0696 52.902 21.1541 52.3452 21.1541ZM62.9931 15.228L61.6458 15.4666C61.5894 15.2943 61.4999 15.1302 61.3773 14.9744C61.258 14.8187 61.0956 14.6911 60.8901 14.5916C60.6846 14.4922 60.4277 14.4425 60.1195 14.4425C59.6986 14.4425 59.3472 14.5369 59.0655 14.7259C58.7838 14.9115 58.6429 15.1518 58.6429 15.4467C58.6429 15.7019 58.7374 15.9074 58.9263 16.0632C59.1152 16.219 59.4202 16.3466 59.8411 16.446L61.0542 16.7244C61.7568 16.8868 62.2805 17.1371 62.6252 17.4751C62.9699 17.8132 63.1422 18.2524 63.1422 18.7926C63.1422 19.25 63.0096 19.6577 62.7445 20.0156C62.4827 20.3703 62.1164 20.6487 61.6458 20.8509C61.1784 21.053 60.6365 21.1541 60.0201 21.1541C59.165 21.1541 58.4673 20.9718 57.927 20.6072C57.3868 20.2393 57.0553 19.7173 56.9327 19.0412L58.3695 18.8224C58.459 19.197 58.6429 19.4804 58.9213 19.6726C59.1998 19.8615 59.5627 19.956 60.0101 19.956C60.4973 19.956 60.8868 19.8549 61.1784 19.6527C61.4701 19.4472 61.6159 19.197 61.6159 18.902C61.6159 18.6634 61.5265 18.4628 61.3475 18.3004C61.1718 18.138 60.9017 18.0154 60.5371 17.9325L59.2445 17.6491C58.5319 17.4867 58.0049 17.2282 57.6635 16.8736C57.3255 16.5189 57.1564 16.0698 57.1564 15.5263C57.1564 15.0755 57.2824 14.6811 57.5343 14.343C57.7862 14.005 58.1342 13.7415 58.5783 13.5526C59.0224 13.3603 59.5312 13.2642 60.1046 13.2642C60.9299 13.2642 61.5795 13.4432 62.0534 13.8011C62.5274 14.1558 62.8406 14.6314 62.9931 15.228ZM68.0678 21.1541C67.3155 21.1541 66.6675 20.9934 66.1239 20.6719C65.5837 20.3471 65.1661 19.8913 64.8711 19.3047C64.5794 18.7147 64.4336 18.0237 64.4336 17.2315C64.4336 16.4493 64.5794 15.7599 64.8711 15.1634C65.1661 14.5668 65.5771 14.1011 66.104 13.7663C66.6344 13.4316 67.2541 13.2642 67.9634 13.2642C68.3943 13.2642 68.8119 13.3355 69.2163 13.478C69.6206 13.6205 69.9835 13.8442 70.305 14.1491C70.6265 14.4541 70.8801 14.8501 71.0657 15.3374C71.2513 15.8213 71.3441 16.4096 71.3441 17.1023V17.6293H65.2738V16.5156H69.8874C69.8874 16.1245 69.8079 15.7782 69.6488 15.4766C69.4897 15.1716 69.266 14.9313 68.9776 14.7557C68.6926 14.58 68.3578 14.4922 67.9734 14.4922C67.5558 14.4922 67.1912 14.5949 66.8796 14.8004C66.5714 15.0026 66.3327 15.2678 66.1637 15.5959C65.998 15.9207 65.9151 16.2737 65.9151 16.6548V17.5249C65.9151 18.0353 66.0046 18.4695 66.1836 18.8274C66.3659 19.1854 66.6194 19.4588 66.9442 19.6477C67.2691 19.8333 67.6486 19.9261 68.0827 19.9261C68.3645 19.9261 68.6213 19.8864 68.8533 19.8068C69.0853 19.724 69.2859 19.6013 69.4549 19.4389C69.6239 19.2765 69.7532 19.076 69.8427 18.8374L71.2496 19.0909C71.137 19.5052 70.9348 19.8681 70.6431 20.1797C70.3548 20.4879 69.9918 20.7282 69.5543 20.9006C69.1201 21.0696 68.6246 21.1541 68.0678 21.1541ZM74.4799 16.4659V21H72.9934V13.3636H74.4203V14.6065H74.5147C74.6904 14.2022 74.9655 13.8774 75.34 13.6321C75.7179 13.3868 76.1935 13.2642 76.7669 13.2642C77.2872 13.2642 77.743 13.3736 78.1341 13.5923C78.5252 13.8078 78.8284 14.1293 79.0439 14.5568C79.2593 14.9844 79.367 15.513 79.367 16.1428V21H77.8805V16.3217C77.8805 15.7682 77.7363 15.3357 77.448 15.0241C77.1596 14.7093 76.7636 14.5518 76.2598 14.5518C75.9151 14.5518 75.6085 14.6264 75.34 14.7756C75.0749 14.9247 74.8644 15.1435 74.7086 15.4318C74.5562 15.7169 74.4799 16.0616 74.4799 16.4659ZM84.9252 13.3636V14.5568H80.7541V13.3636H84.9252ZM81.8727 11.5341H83.3592V18.7578C83.3592 19.0462 83.4023 19.2633 83.4885 19.4091C83.5746 19.5516 83.6857 19.6494 83.8216 19.7024C83.9608 19.7521 84.1116 19.777 84.274 19.777C84.3933 19.777 84.4977 19.7687 84.5872 19.7521C84.6767 19.7356 84.7463 19.7223 84.796 19.7124L85.0645 20.9403C84.9783 20.9735 84.8556 21.0066 84.6966 21.0398C84.5375 21.0762 84.3386 21.0961 84.1 21.0994C83.7089 21.1061 83.3443 21.0365 83.0062 20.8906C82.6681 20.7448 82.3947 20.5194 82.1859 20.2145C81.9771 19.9096 81.8727 19.5268 81.8727 19.0661V11.5341ZM88.7919 21.169C88.308 21.169 87.8705 21.0795 87.4794 20.9006C87.0883 20.7183 86.7784 20.4548 86.5497 20.1101C86.3243 19.7654 86.2116 19.3428 86.2116 18.8423C86.2116 18.4115 86.2945 18.0568 86.4602 17.7784C86.6259 17.5 86.8497 17.2796 87.1314 17.1172C87.4131 16.9548 87.728 16.8321 88.076 16.7493C88.424 16.6664 88.7786 16.6035 89.1399 16.5604C89.5973 16.5073 89.9685 16.4643 90.2536 16.4311C90.5386 16.3946 90.7457 16.3366 90.875 16.2571C91.0043 16.1776 91.0689 16.0483 91.0689 15.8693V15.8345C91.0689 15.4003 90.9463 15.0639 90.701 14.8253C90.459 14.5866 90.0978 14.4673 89.6172 14.4673C89.1167 14.4673 88.7223 14.5784 88.4339 14.8004C88.1489 15.0192 87.9517 15.2628 87.8423 15.5312L86.4453 15.2131C86.611 14.7491 86.853 14.3745 87.1712 14.0895C87.4927 13.8011 87.8622 13.5923 88.2798 13.4631C88.6974 13.3305 89.1366 13.2642 89.5973 13.2642C89.9022 13.2642 90.2254 13.3007 90.5668 13.3736C90.9115 13.4432 91.233 13.5724 91.5312 13.7614C91.8329 13.9503 92.0798 14.2204 92.272 14.5717C92.4643 14.9197 92.5604 15.3722 92.5604 15.929V21H91.1087V19.956H91.049C90.9529 20.1482 90.8087 20.3371 90.6165 20.5227C90.4242 20.7083 90.1773 20.8625 89.8757 20.9851C89.5741 21.1077 89.2128 21.169 88.7919 21.169ZM89.1151 19.9759C89.526 19.9759 89.8774 19.8946 90.169 19.7322C90.464 19.5698 90.6877 19.3577 90.8402 19.0959C90.996 18.8307 91.0739 18.5473 91.0739 18.2457V17.2614C91.0208 17.3144 90.9181 17.3641 90.7656 17.4105C90.6165 17.4536 90.4458 17.4917 90.2536 17.5249C90.0613 17.5547 89.8741 17.5829 89.6918 17.6094C89.5095 17.6326 89.357 17.6525 89.2344 17.669C88.946 17.7055 88.6825 17.7668 88.4439 17.853C88.2086 17.9392 88.0196 18.0634 87.8771 18.2259C87.7379 18.3849 87.6683 18.5971 87.6683 18.8622C87.6683 19.2301 87.8042 19.5085 88.076 19.6974C88.3478 19.883 88.6941 19.9759 89.1151 19.9759ZM98.1049 13.3636V14.5568H93.9338V13.3636H98.1049ZM95.0524 11.5341H96.5389V18.7578C96.5389 19.0462 96.582 19.2633 96.6681 19.4091C96.7543 19.5516 96.8654 19.6494 97.0012 19.7024C97.1404 19.7521 97.2913 19.777 97.4537 19.777C97.573 19.777 97.6774 19.7687 97.7669 19.7521C97.8564 19.7356 97.926 19.7223 97.9757 19.7124L98.2441 20.9403C98.158 20.9735 98.0353 21.0066 97.8762 21.0398C97.7172 21.0762 97.5183 21.0961 97.2797 21.0994C96.8886 21.1061 96.524 21.0365 96.1859 20.8906C95.8478 20.7448 95.5744 20.5194 95.3656 20.2145C95.1568 19.9096 95.0524 19.5268 95.0524 19.0661V11.5341ZM99.7493 21V13.3636H101.236V21H99.7493ZM100.5 12.1854C100.241 12.1854 100.019 12.0992 99.8338 11.9268C99.6515 11.7512 99.5604 11.5424 99.5604 11.3004C99.5604 11.0552 99.6515 10.8464 99.8338 10.674C100.019 10.4983 100.241 10.4105 100.5 10.4105C100.759 10.4105 100.979 10.4983 101.161 10.674C101.347 10.8464 101.44 11.0552 101.44 11.3004C101.44 11.5424 101.347 11.7512 101.161 11.9268C100.979 12.0992 100.759 12.1854 100.5 12.1854ZM106.452 21.1541C105.736 21.1541 105.112 20.9901 104.578 20.6619C104.044 20.3338 103.63 19.8748 103.335 19.2848C103.04 18.6948 102.893 18.0054 102.893 17.2166C102.893 16.4245 103.04 15.7318 103.335 15.1385C103.63 14.5452 104.044 14.0845 104.578 13.7564C105.112 13.4283 105.736 13.2642 106.452 13.2642C107.168 13.2642 107.793 13.4283 108.327 13.7564C108.86 14.0845 109.274 14.5452 109.569 15.1385C109.864 15.7318 110.012 16.4245 110.012 17.2166C110.012 18.0054 109.864 18.6948 109.569 19.2848C109.274 19.8748 108.86 20.3338 108.327 20.6619C107.793 20.9901 107.168 21.1541 106.452 21.1541ZM106.457 19.9062C106.921 19.9062 107.306 19.7836 107.611 19.5384C107.916 19.2931 108.141 18.9666 108.287 18.5589C108.436 18.1513 108.51 17.7022 108.51 17.2116C108.51 16.7244 108.436 16.277 108.287 15.8693C108.141 15.4583 107.916 15.1286 107.611 14.88C107.306 14.6314 106.921 14.5071 106.457 14.5071C105.99 14.5071 105.602 14.6314 105.294 14.88C104.989 15.1286 104.762 15.4583 104.613 15.8693C104.467 16.277 104.394 16.7244 104.394 17.2116C104.394 17.7022 104.467 18.1513 104.613 18.5589C104.762 18.9666 104.989 19.2931 105.294 19.5384C105.602 19.7836 105.99 19.9062 106.457 19.9062ZM113.158 16.4659V21H111.671V13.3636H113.098V14.6065H113.192C113.368 14.2022 113.643 13.8774 114.018 13.6321C114.396 13.3868 114.871 13.2642 115.445 13.2642C115.965 13.2642 116.421 13.3736 116.812 13.5923C117.203 13.8078 117.506 14.1293 117.722 14.5568C117.937 14.9844 118.045 15.513 118.045 16.1428V21H116.558V16.3217C116.558 15.7682 116.414 15.3357 116.126 15.0241C115.837 14.7093 115.441 14.5518 114.938 14.5518C114.593 14.5518 114.286 14.6264 114.018 14.7756C113.753 14.9247 113.542 15.1435 113.386 15.4318C113.234 15.7169 113.158 16.0616 113.158 16.4659ZM125.761 15.228L124.413 15.4666C124.357 15.2943 124.268 15.1302 124.145 14.9744C124.026 14.8187 123.863 14.6911 123.658 14.5916C123.452 14.4922 123.195 14.4425 122.887 14.4425C122.466 14.4425 122.115 14.5369 121.833 14.7259C121.551 14.9115 121.411 15.1518 121.411 15.4467C121.411 15.7019 121.505 15.9074 121.694 16.0632C121.883 16.219 122.188 16.3466 122.609 16.446L123.822 16.7244C124.524 16.8868 125.048 17.1371 125.393 17.4751C125.737 17.8132 125.91 18.2524 125.91 18.7926C125.91 19.25 125.777 19.6577 125.512 20.0156C125.25 20.3703 124.884 20.6487 124.413 20.8509C123.946 21.053 123.404 21.1541 122.788 21.1541C121.933 21.1541 121.235 20.9718 120.695 20.6072C120.154 20.2393 119.823 19.7173 119.7 19.0412L121.137 18.8224C121.227 19.197 121.411 19.4804 121.689 19.6726C121.967 19.8615 122.33 19.956 122.778 19.956C123.265 19.956 123.654 19.8549 123.946 19.6527C124.238 19.4472 124.384 19.197 124.384 18.902C124.384 18.6634 124.294 18.4628 124.115 18.3004C123.939 18.138 123.669 18.0154 123.305 17.9325L122.012 17.6491C121.299 17.4867 120.772 17.2282 120.431 16.8736C120.093 16.5189 119.924 16.0698 119.924 15.5263C119.924 15.0755 120.05 14.6811 120.302 14.343C120.554 14.005 120.902 13.7415 121.346 13.5526C121.79 13.3603 122.299 13.2642 122.872 13.2642C123.697 13.2642 124.347 13.4432 124.821 13.8011C125.295 14.1558 125.608 14.6314 125.761 15.228Z" fill="#3D474D"/>
        </svg>
