
    <svg width="18" height="18" viewBox="0 0 18 18" fill="none" xmlns="http://www.w3.org/2000/svg">
      <path
        fillRule="evenodd"
        clipRule="evenodd"
        d="M1.5 9.00434C1.5 4.86469 4.86631 1.5 9 1.5C13.1337 1.5 16.5 4.86469 16.5 9.00434C16.5 13.1353 13.1337 16.5 9 16.5C4.86631 16.5 1.5 13.1353 1.5 9.00434ZM11.7513 9.76366C11.831 9.68407 11.9323 9.56106 11.954 9.53211C12.0699 9.38016 12.1278 9.19202 12.1278 9.00462C12.1278 8.79405 12.0626 8.59868 11.9396 8.43949C11.9295 8.42941 11.9097 8.40792 11.884 8.3799C11.8358 8.32749 11.7667 8.25225 11.7007 8.18624C11.107 7.54948 9.55779 6.50751 8.74698 6.18913C8.62391 6.1392 8.31262 6.02994 8.14611 6.02271C7.98685 6.02271 7.83482 6.05888 7.69003 6.13124C7.50905 6.23255 7.36426 6.39174 7.28463 6.57987C7.23395 6.71011 7.15432 7.10085 7.15432 7.10809C7.07469 7.53501 7.03125 8.22965 7.03125 8.99666C7.03125 9.7282 7.07469 10.3932 7.13984 10.8273C7.14163 10.8291 7.14786 10.8602 7.15753 10.9084C7.18695 11.0551 7.24822 11.3606 7.31359 11.4858C7.47285 11.7897 7.78415 11.9778 8.11716 11.9778H8.14611C8.3633 11.9706 8.81938 11.7825 8.81938 11.7752C9.58675 11.4569 11.0998 10.4655 11.7079 9.80708L11.7513 9.76366Z"
        fill="#3DCC3D"
      />
      <path
        fillRule="evenodd"
        clipRule="evenodd"
        d="M1.5 9.00434C1.5 4.86469 4.86631 1.5 9 1.5C13.1337 1.5 16.5 4.86469 16.5 9.00434C16.5 13.1353 13.1337 16.5 9 16.5C4.86631 16.5 1.5 13.1353 1.5 9.00434ZM11.7513 9.76366C11.831 9.68407 11.9323 9.56106 11.954 9.53211C12.0699 9.38016 12.1278 9.19202 12.1278 9.00462C12.1278 8.79405 12.0626 8.59868 11.9396 8.43949C11.9295 8.42941 11.9097 8.40792 11.884 8.3799C11.8358 8.32749 11.7667 8.25225 11.7007 8.18624C11.107 7.54948 9.55779 6.50751 8.74698 6.18913C8.62391 6.1392 8.31262 6.02994 8.14611 6.02271C7.98685 6.02271 7.83482 6.05888 7.69003 6.13124C7.50905 6.23255 7.36426 6.39174 7.28463 6.57987C7.23395 6.71011 7.15432 7.10085 7.15432 7.10809C7.07469 7.53501 7.03125 8.22965 7.03125 8.99666C7.03125 9.7282 7.07469 10.3932 7.13984 10.8273C7.14163 10.8291 7.14786 10.8602 7.15753 10.9084C7.18695 11.0551 7.24822 11.3606 7.31359 11.4858C7.47285 11.7897 7.78415 11.9778 8.11716 11.9778H8.14611C8.3633 11.9706 8.81938 11.7825 8.81938 11.7752C9.58675 11.4569 11.0998 10.4655 11.7079 9.80708L11.7513 9.76366Z"
        fill="#3DCC3D"
      />
    </svg>
