    <svg width="18" height="18" viewBox="0 0 18 18" fill="none" xmlns="http://www.w3.org/2000/svg">
      <path
        fill-rule="evenodd"
        clip-rule="evenodd"
        d="M10.6593 5.82181C10.6593 7.80463 9.03671 9.39362 7.012 9.39362C4.98802 9.39362 3.36473 7.80463 3.36473 5.82181C3.36473 3.83899 4.98802 2.25 7.012 2.25C9.03671 2.25 10.6593 3.83899 10.6593 5.82181ZM1.5 13.4378C1.5 11.6023 4.03914 11.1431 7.012 11.1431C10.001 11.1431 12.524 11.6181 12.524 13.455C12.524 15.2905 9.98485 15.7498 7.012 15.7498C4.023 15.7498 1.5 15.2747 1.5 13.4378ZM12.1296 5.88691C12.1296 6.89665 11.8199 7.83883 11.2769 8.62147C11.2203 8.70196 11.2702 8.81048 11.3686 8.82773C11.5051 8.85001 11.6452 8.86366 11.7884 8.86654C13.212 8.90319 14.4897 8.00556 14.8427 6.65374C15.3659 4.64792 13.8307 2.84692 11.8749 2.84692C11.6629 2.84692 11.4596 2.86848 11.2614 2.90801C11.2343 2.91376 11.2049 2.9267 11.1903 2.94969C11.1712 2.97916 11.1851 3.01725 11.2042 3.0424C11.792 3.84947 12.1296 4.8319 12.1296 5.88691ZM14.4875 10.277C15.4444 10.4603 16.0733 10.8333 16.3338 11.3773C16.5547 11.8229 16.5547 12.3403 16.3338 12.7859C15.9354 13.6282 14.6496 13.8991 14.1499 13.9688C14.0464 13.9832 13.9635 13.897 13.9745 13.7949C14.2299 11.4607 12.1993 10.3539 11.6739 10.0995C11.6518 10.0873 11.6467 10.07 11.6489 10.0585C11.6504 10.0514 11.6599 10.0399 11.6768 10.0377C12.8135 10.0161 14.0361 10.1692 14.4875 10.277Z"
        fill="#FFAB00"
      />
    </svg>
