<svg width="106" height="32" viewBox="0 0 106 32" fill="none" xmlns="http://www.w3.org/2000/svg">
<rect width="106" height="32" rx="6" fill="#9E7AF2"/>
<rect width="106" height="32" rx="6" fill="white" fill-opacity="0.9"/>
<path fill-rule="evenodd" clip-rule="evenodd" d="M15.1248 15.4153C17.1907 15.4153 18.8468 13.7378 18.8468 11.6451C18.8468 9.55247 17.1907 7.875 15.1248 7.875C13.0589 7.875 11.4028 9.55247 11.4028 11.6451C11.4028 13.7378 13.0589 15.4153 15.1248 15.4153ZM15.125 17.2617C12.0907 17.2617 9.5 17.7469 9.5 19.6852C9.5 21.6227 12.0749 22.1253 15.125 22.1253C18.1586 22.1253 20.75 21.6402 20.75 19.7019C20.75 17.7636 18.1751 17.2617 15.125 17.2617ZM22.9235 13.1909H23.8258C24.1972 13.1909 24.5 13.498 24.5 13.8746C24.5 14.2512 24.1972 14.5583 23.8258 14.5583H22.9235V15.4413C22.9235 15.8179 22.6214 16.125 22.2492 16.125C21.8778 16.125 21.575 15.8179 21.575 15.4413V14.5583H20.6742C20.3021 14.5583 20 14.2512 20 13.8746C20 13.498 20.3021 13.1909 20.6742 13.1909H21.575V12.3087C21.575 11.9321 21.8778 11.625 22.2492 11.625C22.6214 11.625 22.9235 11.9321 22.9235 12.3087V13.1909Z" fill="#9E7AF2"/>
<path fill-rule="evenodd" clip-rule="evenodd" d="M15.1248 15.4153C17.1907 15.4153 18.8468 13.7378 18.8468 11.6451C18.8468 9.55247 17.1907 7.875 15.1248 7.875C13.0589 7.875 11.4028 9.55247 11.4028 11.6451C11.4028 13.7378 13.0589 15.4153 15.1248 15.4153ZM15.125 17.2617C12.0907 17.2617 9.5 17.7469 9.5 19.6852C9.5 21.6227 12.0749 22.1253 15.125 22.1253C18.1586 22.1253 20.75 21.6402 20.75 19.7019C20.75 17.7636 18.1751 17.2617 15.125 17.2617ZM22.9235 13.1909H23.8258C24.1972 13.1909 24.5 13.498 24.5 13.8746C24.5 14.2512 24.1972 14.5583 23.8258 14.5583H22.9235V15.4413C22.9235 15.8179 22.6214 16.125 22.2492 16.125C21.8778 16.125 21.575 15.8179 21.575 15.4413V14.5583H20.6742C20.3021 14.5583 20 14.2512 20 13.8746C20 13.498 20.3021 13.1909 20.6742 13.1909H21.575V12.3087C21.575 11.9321 21.8778 11.625 22.2492 11.625C22.6214 11.625 22.9235 11.9321 22.9235 12.3087V13.1909Z" fill="#9E7AF2"/>
<path d="M43.5753 14.1293H42.0241C41.9645 13.7978 41.8535 13.5062 41.6911 13.2543C41.5286 13.0024 41.3298 12.7886 41.0945 12.6129C40.8591 12.4373 40.5956 12.3047 40.304 12.2152C40.0156 12.1257 39.709 12.081 39.3842 12.081C38.7976 12.081 38.2723 12.2285 37.8082 12.5234C37.3475 12.8184 36.983 13.2509 36.7145 13.821C36.4493 14.3911 36.3168 15.0871 36.3168 15.9091C36.3168 16.7377 36.4493 17.437 36.7145 18.0071C36.983 18.5772 37.3492 19.008 37.8132 19.2997C38.2772 19.5914 38.7992 19.7372 39.3793 19.7372C39.7008 19.7372 40.0057 19.6941 40.294 19.608C40.5857 19.5185 40.8492 19.3875 41.0845 19.2152C41.3198 19.0429 41.5187 18.8324 41.6811 18.5838C41.8468 18.3319 41.9612 18.0436 42.0241 17.7188L43.5753 17.7237C43.4924 18.2242 43.3317 18.6849 43.093 19.1058C42.8577 19.5234 42.5545 19.8847 42.1832 20.1896C41.8153 20.4912 41.3944 20.7249 40.9205 20.8906C40.4465 21.0563 39.9295 21.1392 39.3693 21.1392C38.4877 21.1392 37.7022 20.9304 37.0128 20.5128C36.3234 20.0919 35.7798 19.4903 35.3821 18.7081C34.9877 17.9259 34.7905 16.9929 34.7905 15.9091C34.7905 14.822 34.9893 13.889 35.3871 13.1101C35.7848 12.3279 36.3284 11.728 37.0178 11.3104C37.7071 10.8894 38.491 10.679 39.3693 10.679C39.9096 10.679 40.4134 10.7569 40.8807 10.9126C41.3513 11.0651 41.7739 11.2905 42.1484 11.5888C42.523 11.8838 42.8329 12.245 43.0781 12.6726C43.3234 13.0968 43.4891 13.5824 43.5753 14.1293ZM46.7807 16.4659V21H45.2942V10.8182H46.7608V14.6065H46.8553C47.0343 14.1955 47.3077 13.8691 47.6756 13.6271C48.0435 13.3852 48.5241 13.2642 49.1174 13.2642C49.641 13.2642 50.0984 13.3719 50.4895 13.5874C50.8839 13.8028 51.1889 14.1243 51.4043 14.5518C51.623 14.9761 51.7324 15.5064 51.7324 16.1428V21H50.2459V16.3217C50.2459 15.7616 50.1017 15.3274 49.8134 15.0192C49.525 14.7076 49.124 14.5518 48.6103 14.5518C48.2589 14.5518 47.9441 14.6264 47.6657 14.7756C47.3906 14.9247 47.1735 15.1435 47.0144 15.4318C46.8586 15.7169 46.7807 16.0616 46.7807 16.4659ZM56.9327 21.1541C56.2168 21.1541 55.592 20.9901 55.0584 20.6619C54.5248 20.3338 54.1105 19.8748 53.8155 19.2848C53.5205 18.6948 53.373 18.0054 53.373 17.2166C53.373 16.4245 53.5205 15.7318 53.8155 15.1385C54.1105 14.5452 54.5248 14.0845 55.0584 13.7564C55.592 13.4283 56.2168 13.2642 56.9327 13.2642C57.6486 13.2642 58.2734 13.4283 58.807 13.7564C59.3406 14.0845 59.7549 14.5452 60.0499 15.1385C60.3449 15.7318 60.4924 16.4245 60.4924 17.2166C60.4924 18.0054 60.3449 18.6948 60.0499 19.2848C59.7549 19.8748 59.3406 20.3338 58.807 20.6619C58.2734 20.9901 57.6486 21.1541 56.9327 21.1541ZM56.9377 19.9062C57.4017 19.9062 57.7862 19.7836 58.0911 19.5384C58.396 19.2931 58.6214 18.9666 58.7672 18.5589C58.9164 18.1513 58.9909 17.7022 58.9909 17.2116C58.9909 16.7244 58.9164 16.277 58.7672 15.8693C58.6214 15.4583 58.396 15.1286 58.0911 14.88C57.7862 14.6314 57.4017 14.5071 56.9377 14.5071C56.4703 14.5071 56.0826 14.6314 55.7743 14.88C55.4694 15.1286 55.2424 15.4583 55.0932 15.8693C54.9474 16.277 54.8745 16.7244 54.8745 17.2116C54.8745 17.7022 54.9474 18.1513 55.0932 18.5589C55.2424 18.9666 55.4694 19.2931 55.7743 19.5384C56.0826 19.7836 56.4703 19.9062 56.9377 19.9062ZM64.3739 21.169C63.89 21.169 63.4525 21.0795 63.0614 20.9006C62.6703 20.7183 62.3604 20.4548 62.1317 20.1101C61.9064 19.7654 61.7937 19.3428 61.7937 18.8423C61.7937 18.4115 61.8765 18.0568 62.0423 17.7784C62.208 17.5 62.4317 17.2796 62.7134 17.1172C62.9951 16.9548 63.31 16.8321 63.658 16.7493C64.006 16.6664 64.3607 16.6035 64.7219 16.5604C65.1793 16.5073 65.5505 16.4643 65.8356 16.4311C66.1206 16.3946 66.3278 16.3366 66.457 16.2571C66.5863 16.1776 66.6509 16.0483 66.6509 15.8693V15.8345C66.6509 15.4003 66.5283 15.0639 66.283 14.8253C66.0411 14.5866 65.6798 14.4673 65.1992 14.4673C64.6987 14.4673 64.3043 14.5784 64.016 14.8004C63.7309 15.0192 63.5337 15.2628 63.4244 15.5312L62.0273 15.2131C62.1931 14.7491 62.435 14.3745 62.7532 14.0895C63.0747 13.8011 63.4442 13.5923 63.8619 13.4631C64.2795 13.3305 64.7186 13.2642 65.1793 13.2642C65.4843 13.2642 65.8074 13.3007 66.1488 13.3736C66.4935 13.4432 66.815 13.5724 67.1133 13.7614C67.4149 13.9503 67.6618 14.2204 67.854 14.5717C68.0463 14.9197 68.1424 15.3722 68.1424 15.929V21H66.6907V19.956H66.631C66.5349 20.1482 66.3907 20.3371 66.1985 20.5227C66.0063 20.7083 65.7594 20.8625 65.4577 20.9851C65.1561 21.1077 64.7949 21.169 64.3739 21.169ZM64.6971 19.9759C65.1081 19.9759 65.4594 19.8946 65.7511 19.7322C66.046 19.5698 66.2698 19.3577 66.4222 19.0959C66.578 18.8307 66.6559 18.5473 66.6559 18.2457V17.2614C66.6029 17.3144 66.5001 17.3641 66.3477 17.4105C66.1985 17.4536 66.0278 17.4917 65.8356 17.5249C65.6433 17.5547 65.4561 17.5829 65.2738 17.6094C65.0915 17.6326 64.939 17.6525 64.8164 17.669C64.5281 17.7055 64.2646 17.7668 64.0259 17.853C63.7906 17.9392 63.6017 18.0634 63.4592 18.2259C63.32 18.3849 63.2504 18.5971 63.2504 18.8622C63.2504 19.2301 63.3862 19.5085 63.658 19.6974C63.9298 19.883 64.2762 19.9759 64.6971 19.9759ZM73.339 21.1541C72.5998 21.1541 71.9635 20.9867 71.4299 20.652C70.8996 20.3139 70.4919 19.8482 70.2069 19.255C69.9218 18.6617 69.7793 17.9822 69.7793 17.2166C69.7793 16.4411 69.9251 15.7566 70.2168 15.1634C70.5085 14.5668 70.9194 14.1011 71.4498 13.7663C71.9801 13.4316 72.6048 13.2642 73.324 13.2642C73.9041 13.2642 74.4211 13.3719 74.8752 13.5874C75.3292 13.7995 75.6955 14.0978 75.9739 14.4822C76.2556 14.8667 76.423 15.3158 76.476 15.8295H75.0293C74.9498 15.4716 74.7675 15.1634 74.4824 14.9048C74.2007 14.6463 73.8229 14.517 73.3489 14.517C72.9346 14.517 72.5717 14.6264 72.2601 14.8452C71.9519 15.0606 71.7116 15.3688 71.5392 15.7699C71.3669 16.1676 71.2807 16.6383 71.2807 17.1818C71.2807 17.7386 71.3652 18.2192 71.5343 18.6236C71.7033 19.0279 71.9419 19.3411 72.2502 19.5632C72.5617 19.7853 72.928 19.8963 73.3489 19.8963C73.6306 19.8963 73.8858 19.8449 74.1145 19.7422C74.3465 19.6361 74.5404 19.4853 74.6962 19.2898C74.8553 19.0942 74.9663 18.8589 75.0293 18.5838H76.476C76.423 19.0777 76.2623 19.5185 75.9938 19.9062C75.7253 20.294 75.3657 20.599 74.915 20.821C74.4675 21.0431 73.9422 21.1541 73.339 21.1541ZM78.0657 21V13.3636H79.5522V21H78.0657ZM78.8164 12.1854C78.5579 12.1854 78.3358 12.0992 78.1502 11.9268C77.9679 11.7512 77.8768 11.5424 77.8768 11.3004C77.8768 11.0552 77.9679 10.8464 78.1502 10.674C78.3358 10.4983 78.5579 10.4105 78.8164 10.4105C79.0749 10.4105 79.2953 10.4983 79.4776 10.674C79.6632 10.8464 79.756 11.0552 79.756 11.3004C79.756 11.5424 79.6632 11.7512 79.4776 11.9268C79.2953 12.0992 79.0749 12.1854 78.8164 12.1854ZM83.0385 16.4659V21H81.552V13.3636H82.9789V14.6065H83.0733C83.249 14.2022 83.5241 13.8774 83.8986 13.6321C84.2765 13.3868 84.7521 13.2642 85.3255 13.2642C85.8458 13.2642 86.3016 13.3736 86.6926 13.5923C87.0837 13.8078 87.387 14.1293 87.6025 14.5568C87.8179 14.9844 87.9256 15.513 87.9256 16.1428V21H86.4391V16.3217C86.4391 15.7682 86.2949 15.3357 86.0066 15.0241C85.7182 14.7093 85.3221 14.5518 84.8184 14.5518C84.4737 14.5518 84.1671 14.6264 83.8986 14.7756C83.6335 14.9247 83.423 15.1435 83.2672 15.4318C83.1148 15.7169 83.0385 16.0616 83.0385 16.4659ZM93.1209 24.0227C92.5144 24.0227 91.9924 23.9432 91.5549 23.7841C91.1207 23.625 90.766 23.4145 90.4909 23.1527C90.2158 22.8909 90.0104 22.6042 89.8745 22.2926L91.1522 21.7656C91.2417 21.9115 91.361 22.0656 91.5101 22.228C91.6626 22.3937 91.8681 22.5346 92.1266 22.6506C92.3884 22.7666 92.7248 22.8246 93.1358 22.8246C93.6993 22.8246 94.165 22.687 94.5328 22.4119C94.9007 22.1402 95.0847 21.706 95.0847 21.1094V19.608H94.9902C94.9007 19.7704 94.7715 19.951 94.6025 20.1499C94.4367 20.3487 94.208 20.5211 93.9164 20.6669C93.6247 20.8127 93.2452 20.8857 92.7779 20.8857C92.1747 20.8857 91.6311 20.7448 91.1472 20.4631C90.6666 20.178 90.2855 19.7588 90.0037 19.2053C89.7253 18.6484 89.5861 17.964 89.5861 17.152C89.5861 16.34 89.7237 15.6439 89.9988 15.0639C90.2772 14.4839 90.6583 14.0398 91.1422 13.7315C91.6261 13.42 92.1747 13.2642 92.7878 13.2642C93.2618 13.2642 93.6446 13.3438 93.9363 13.5028C94.2279 13.6586 94.455 13.8409 94.6174 14.0497C94.7831 14.2585 94.9107 14.4425 95.0002 14.6016H95.1096V13.3636H96.5662V21.169C96.5662 21.8253 96.4138 22.3639 96.1088 22.7848C95.8039 23.2057 95.3913 23.5173 94.8709 23.7195C94.3539 23.9216 93.7705 24.0227 93.1209 24.0227ZM93.106 19.6527C93.5336 19.6527 93.8948 19.5533 94.1898 19.3544C94.4881 19.1522 94.7135 18.8639 94.8659 18.4893C95.0217 18.1115 95.0996 17.6591 95.0996 17.1321C95.0996 16.6184 95.0234 16.166 94.8709 15.7749C94.7185 15.3838 94.4947 15.0788 94.1998 14.8601C93.9048 14.638 93.5402 14.527 93.106 14.527C92.6586 14.527 92.2857 14.643 91.9874 14.875C91.6891 15.1037 91.4637 15.4152 91.3113 15.8097C91.1621 16.2041 91.0875 16.6449 91.0875 17.1321C91.0875 17.6326 91.1638 18.0717 91.3162 18.4496C91.4687 18.8274 91.6941 19.1224 91.9924 19.3345C92.294 19.5466 92.6652 19.6527 93.106 19.6527Z" fill="#3D474D"/>
</svg>
