<svg width="98" height="32" viewBox="0 0 98 32" fill="none" xmlns="http://www.w3.org/2000/svg">
<rect width="98" height="32" rx="6" fill="#F2F2FD"/>
<path fill-rule="evenodd" clip-rule="evenodd" d="M14.675 7.5H19.3025C21.335 7.5 22.9775 8.3025 23 10.3425V21.7275C23 21.855 22.97 21.9825 22.91 22.095C22.8125 22.275 22.6475 22.41 22.445 22.47C22.25 22.53 22.0325 22.5 21.8525 22.395L16.9925 19.965L12.125 22.395C12.0132 22.4542 11.885 22.4925 11.7575 22.4925C11.3375 22.4925 11 22.1475 11 21.7275V10.3425C11 8.3025 12.65 7.5 14.675 7.5ZM14.1653 13.215H19.8128C20.1353 13.215 20.3978 12.9518 20.3978 12.6225C20.3978 12.2925 20.1353 12.03 19.8128 12.03H14.1653C13.8428 12.03 13.5803 12.2925 13.5803 12.6225C13.5803 12.9518 13.8428 13.215 14.1653 13.215Z" fill="#3D474D"/>
<path d="M43.5753 14.1293H42.0241C41.9645 13.7978 41.8535 13.5062 41.6911 13.2543C41.5286 13.0024 41.3298 12.7886 41.0945 12.6129C40.8591 12.4373 40.5956 12.3047 40.304 12.2152C40.0156 12.1257 39.709 12.081 39.3842 12.081C38.7976 12.081 38.2723 12.2285 37.8082 12.5234C37.3475 12.8184 36.983 13.2509 36.7145 13.821C36.4493 14.3911 36.3168 15.0871 36.3168 15.9091C36.3168 16.7377 36.4493 17.437 36.7145 18.0071C36.983 18.5772 37.3492 19.008 37.8132 19.2997C38.2772 19.5914 38.7992 19.7372 39.3793 19.7372C39.7008 19.7372 40.0057 19.6941 40.294 19.608C40.5857 19.5185 40.8492 19.3875 41.0845 19.2152C41.3198 19.0429 41.5187 18.8324 41.6811 18.5838C41.8468 18.3319 41.9612 18.0436 42.0241 17.7188L43.5753 17.7237C43.4924 18.2242 43.3317 18.6849 43.093 19.1058C42.8577 19.5234 42.5545 19.8847 42.1832 20.1896C41.8153 20.4912 41.3944 20.7249 40.9205 20.8906C40.4465 21.0563 39.9295 21.1392 39.3693 21.1392C38.4877 21.1392 37.7022 20.9304 37.0128 20.5128C36.3234 20.0919 35.7798 19.4903 35.3821 18.7081C34.9877 17.9259 34.7905 16.9929 34.7905 15.9091C34.7905 14.822 34.9893 13.889 35.3871 13.1101C35.7848 12.3279 36.3284 11.728 37.0178 11.3104C37.7071 10.8894 38.491 10.679 39.3693 10.679C39.9096 10.679 40.4134 10.7569 40.8807 10.9126C41.3513 11.0651 41.7739 11.2905 42.1484 11.5888C42.523 11.8838 42.8329 12.245 43.0781 12.6726C43.3234 13.0968 43.4891 13.5824 43.5753 14.1293ZM48.5108 21.1541C47.7949 21.1541 47.1702 20.9901 46.6365 20.6619C46.1029 20.3338 45.6886 19.8748 45.3936 19.2848C45.0987 18.6948 44.9512 18.0054 44.9512 17.2166C44.9512 16.4245 45.0987 15.7318 45.3936 15.1385C45.6886 14.5452 46.1029 14.0845 46.6365 13.7564C47.1702 13.4283 47.7949 13.2642 48.5108 13.2642C49.2267 13.2642 49.8515 13.4283 50.3851 13.7564C50.9187 14.0845 51.333 14.5452 51.628 15.1385C51.923 15.7318 52.0705 16.4245 52.0705 17.2166C52.0705 18.0054 51.923 18.6948 51.628 19.2848C51.333 19.8748 50.9187 20.3338 50.3851 20.6619C49.8515 20.9901 49.2267 21.1541 48.5108 21.1541ZM48.5158 19.9062C48.9798 19.9062 49.3643 19.7836 49.6692 19.5384C49.9741 19.2931 50.1995 18.9666 50.3453 18.5589C50.4945 18.1513 50.5691 17.7022 50.5691 17.2116C50.5691 16.7244 50.4945 16.277 50.3453 15.8693C50.1995 15.4583 49.9741 15.1286 49.6692 14.88C49.3643 14.6314 48.9798 14.5071 48.5158 14.5071C48.0485 14.5071 47.6607 14.6314 47.3525 14.88C47.0475 15.1286 46.8205 15.4583 46.6713 15.8693C46.5255 16.277 46.4526 16.7244 46.4526 17.2116C46.4526 17.7022 46.5255 18.1513 46.6713 18.5589C46.8205 18.9666 47.0475 19.2931 47.3525 19.5384C47.6607 19.7836 48.0485 19.9062 48.5158 19.9062ZM58.5671 17.8331V13.3636H60.0586V21H58.5969V19.6776H58.5174C58.3417 20.0852 58.06 20.425 57.6722 20.6967C57.2878 20.9652 56.8088 21.0994 56.2354 21.0994C55.7449 21.0994 55.3107 20.9917 54.9329 20.7763C54.5584 20.5575 54.2634 20.2344 54.0479 19.8068C53.8358 19.3793 53.7298 18.8506 53.7298 18.2209V13.3636H55.2163V18.0419C55.2163 18.5623 55.3604 18.9766 55.6488 19.2848C55.9371 19.593 56.3117 19.7472 56.7724 19.7472C57.0508 19.7472 57.3275 19.6776 57.6026 19.5384C57.881 19.3991 58.1114 19.1887 58.2937 18.907C58.4793 18.6252 58.5704 18.2673 58.5671 17.8331ZM62.0559 21V13.3636H63.4927V14.5767H63.5723C63.7115 14.1657 63.9567 13.8426 64.3081 13.6072C64.6627 13.3686 65.0637 13.2493 65.5112 13.2493C65.604 13.2493 65.7134 13.2526 65.8393 13.2592C65.9686 13.2659 66.0697 13.2741 66.1426 13.2841V14.706C66.0829 14.6894 65.9769 14.6712 65.8244 14.6513C65.6719 14.6281 65.5195 14.6165 65.367 14.6165C65.0157 14.6165 64.7025 14.6911 64.4274 14.8402C64.1556 14.986 63.9402 15.1899 63.7811 15.4517C63.622 15.7102 63.5424 16.0052 63.5424 16.3366V21H62.0559ZM73.1513 15.228L71.804 15.4666C71.7476 15.2943 71.6581 15.1302 71.5355 14.9744C71.4162 14.8187 71.2538 14.6911 71.0483 14.5916C70.8428 14.4922 70.5859 14.4425 70.2777 14.4425C69.8568 14.4425 69.5054 14.5369 69.2237 14.7259C68.942 14.9115 68.8011 15.1518 68.8011 15.4467C68.8011 15.7019 68.8956 15.9074 69.0845 16.0632C69.2734 16.219 69.5784 16.3466 69.9993 16.446L71.2124 16.7244C71.915 16.8868 72.4387 17.1371 72.7834 17.4751C73.1281 17.8132 73.3004 18.2524 73.3004 18.7926C73.3004 19.25 73.1679 19.6577 72.9027 20.0156C72.6409 20.3703 72.2746 20.6487 71.804 20.8509C71.3366 21.053 70.7947 21.1541 70.1783 21.1541C69.3232 21.1541 68.6255 20.9718 68.0852 20.6072C67.545 20.2393 67.2135 19.7173 67.0909 19.0412L68.5277 18.8224C68.6172 19.197 68.8011 19.4804 69.0795 19.6726C69.358 19.8615 69.7209 19.956 70.1683 19.956C70.6555 19.956 71.045 19.8549 71.3366 19.6527C71.6283 19.4472 71.7741 19.197 71.7741 18.902C71.7741 18.6634 71.6847 18.4628 71.5057 18.3004C71.33 18.138 71.0599 18.0154 70.6953 17.9325L69.4027 17.6491C68.6901 17.4867 68.1631 17.2282 67.8217 16.8736C67.4837 16.5189 67.3146 16.0698 67.3146 15.5263C67.3146 15.0755 67.4406 14.6811 67.6925 14.343C67.9444 14.005 68.2924 13.7415 68.7365 13.5526C69.1806 13.3603 69.6894 13.2642 70.2628 13.2642C71.0881 13.2642 71.7377 13.4432 72.2116 13.8011C72.6856 14.1558 72.9988 14.6314 73.1513 15.228ZM78.226 21.1541C77.4737 21.1541 76.8257 20.9934 76.2821 20.6719C75.7419 20.3471 75.3243 19.8913 75.0293 19.3047C74.7376 18.7147 74.5918 18.0237 74.5918 17.2315C74.5918 16.4493 74.7376 15.7599 75.0293 15.1634C75.3243 14.5668 75.7353 14.1011 76.2623 13.7663C76.7926 13.4316 77.4123 13.2642 78.1216 13.2642C78.5525 13.2642 78.9701 13.3355 79.3745 13.478C79.7788 13.6205 80.1417 13.8442 80.4632 14.1491C80.7847 14.4541 81.0383 14.8501 81.2239 15.3374C81.4095 15.8213 81.5023 16.4096 81.5023 17.1023V17.6293H75.432V16.5156H80.0456C80.0456 16.1245 79.9661 15.7782 79.807 15.4766C79.6479 15.1716 79.4242 14.9313 79.1358 14.7557C78.8508 14.58 78.516 14.4922 78.1316 14.4922C77.714 14.4922 77.3494 14.5949 77.0378 14.8004C76.7296 15.0026 76.4909 15.2678 76.3219 15.5959C76.1562 15.9207 76.0733 16.2737 76.0733 16.6548V17.5249C76.0733 18.0353 76.1628 18.4695 76.3418 18.8274C76.5241 19.1854 76.7776 19.4588 77.1025 19.6477C77.4273 19.8333 77.8068 19.9261 78.2409 19.9261C78.5227 19.9261 78.7795 19.8864 79.0115 19.8068C79.2435 19.724 79.4441 19.6013 79.6131 19.4389C79.7821 19.2765 79.9114 19.076 80.0009 18.8374L81.4078 19.0909C81.2952 19.5052 81.093 19.8681 80.8013 20.1797C80.513 20.4879 80.15 20.7282 79.7125 20.9006C79.2783 21.0696 78.7828 21.1541 78.226 21.1541ZM88.8739 15.228L87.5266 15.4666C87.4703 15.2943 87.3808 15.1302 87.2582 14.9744C87.1388 14.8187 86.9764 14.6911 86.771 14.5916C86.5655 14.4922 86.3086 14.4425 86.0004 14.4425C85.5794 14.4425 85.2281 14.5369 84.9464 14.7259C84.6647 14.9115 84.5238 15.1518 84.5238 15.4467C84.5238 15.7019 84.6183 15.9074 84.8072 16.0632C84.9961 16.219 85.301 16.3466 85.7219 16.446L86.935 16.7244C87.6377 16.8868 88.1613 17.1371 88.506 17.4751C88.8507 17.8132 89.0231 18.2524 89.0231 18.7926C89.0231 19.25 88.8905 19.6577 88.6254 20.0156C88.3635 20.3703 87.9973 20.6487 87.5266 20.8509C87.0593 21.053 86.5174 21.1541 85.9009 21.1541C85.0458 21.1541 84.3481 20.9718 83.8079 20.6072C83.2676 20.2393 82.9362 19.7173 82.8136 19.0412L84.2504 18.8224C84.3398 19.197 84.5238 19.4804 84.8022 19.6726C85.0806 19.8615 85.4435 19.956 85.891 19.956C86.3782 19.956 86.7676 19.8549 87.0593 19.6527C87.351 19.4472 87.4968 19.197 87.4968 18.902C87.4968 18.6634 87.4073 18.4628 87.2283 18.3004C87.0527 18.138 86.7826 18.0154 86.418 17.9325L85.1254 17.6491C84.4128 17.4867 83.8858 17.2282 83.5444 16.8736C83.2063 16.5189 83.0373 16.0698 83.0373 15.5263C83.0373 15.0755 83.1632 14.6811 83.4151 14.343C83.667 14.005 84.015 13.7415 84.4592 13.5526C84.9033 13.3603 85.4121 13.2642 85.9854 13.2642C86.8107 13.2642 87.4603 13.4432 87.9343 13.8011C88.4083 14.1558 88.7215 14.6314 88.8739 15.228Z" fill="#3D474D"/>
</svg>
