<svg
  width="18"
  height="18"
  viewBox="0 0 18 18"
  fill="none"
  xmlns="http://www.w3.org/2000/svg"
>
  <path
    fill-rule="evenodd"
    clip-rule="evenodd"
    d="M5.8575 1.5H12.1432C14.46 1.5 15.75 2.835 15.75 5.1225V12.87C15.75 15.195 14.46 16.5 12.1432 16.5H5.8575C3.5775 16.5 2.25 15.195 2.25 12.87V5.1225C2.25 2.835 3.5775 1.5 5.8575 1.5ZM6.05997 4.99529V4.98779H8.30172C8.62497 4.98779 8.88747 5.25029 8.88747 5.57204C8.88747 5.90279 8.62497 6.16529 8.30172 6.16529H6.05997C5.73672 6.16529 5.47497 5.90279 5.47497 5.58029C5.47497 5.25779 5.73672 4.99529 6.05997 4.99529ZM6.05985 9.55552H11.9399C12.2624 9.55552 12.5249 9.29302 12.5249 8.97052C12.5249 8.64802 12.2624 8.38477 11.9399 8.38477H6.05985C5.7366 8.38477 5.47485 8.64802 5.47485 8.97052C5.47485 9.29302 5.7366 9.55552 6.05985 9.55552ZM6.05997 12.9828H11.94C12.2392 12.9528 12.465 12.697 12.465 12.3978C12.465 12.0903 12.2392 11.8353 11.94 11.8053H6.05997C5.83497 11.7828 5.61747 11.8878 5.49747 12.0828C5.37747 12.2703 5.37747 12.5178 5.49747 12.7128C5.61747 12.9003 5.83497 13.0128 6.05997 12.9828Z"
    fill="#FFAB00"
  />
</svg>
