
        <svg width="110" height="32" viewBox="0 0 110 32" fill="none" xmlns="http://www.w3.org/2000/svg">
        <rect width="110" height="32" rx="6" fill="#3DCC3D"/>
        <path fill-rule="evenodd" clip-rule="evenodd" d="M20.7043 8.25C21.71 8.25 22.6775 8.6475 23.3892 9.36075C24.1017 10.0725 24.5 11.0325 24.5 12.0375V17.9625C24.5 20.055 22.7975 21.75 20.7043 21.75H13.295C11.2018 21.75 9.5 20.055 9.5 17.9625V12.0375C9.5 9.945 11.1942 8.25 13.295 8.25H20.7043ZM21.8974 13.1552L21.9574 13.0952C22.1367 12.8777 22.1367 12.5627 21.9492 12.3452C21.8449 12.2335 21.7017 12.1652 21.5524 12.1502C21.3949 12.142 21.2449 12.1952 21.1317 12.3002L17.7499 15.0002C17.3149 15.361 16.6917 15.361 16.2499 15.0002L12.8749 12.3002C12.6417 12.1277 12.3192 12.1502 12.1249 12.3527C11.9224 12.5552 11.8999 12.8777 12.0717 13.1027L12.1699 13.2002L15.5824 15.8627C16.0024 16.1927 16.5117 16.3727 17.0449 16.3727C17.5767 16.3727 18.0949 16.1927 18.5142 15.8627L21.8974 13.1552Z" fill="white"/>
        <path d="M35.1186 21V10.8182H38.7479C39.5367 10.8182 40.1913 10.9541 40.7116 11.2259C41.2353 11.4976 41.6264 11.8738 41.8849 12.3544C42.1435 12.8317 42.2727 13.3835 42.2727 14.0099C42.2727 14.633 42.1418 15.1816 41.88 15.6555C41.6214 16.1262 41.2304 16.4924 40.7067 16.7543C40.1863 17.0161 39.5317 17.147 38.7429 17.147H35.9936V15.8246H38.6037C39.1009 15.8246 39.5052 15.7533 39.8168 15.6108C40.1316 15.4683 40.362 15.2611 40.5078 14.9893C40.6536 14.7176 40.7266 14.3911 40.7266 14.0099C40.7266 13.6255 40.652 13.2924 40.5028 13.0107C40.357 12.7289 40.1267 12.5135 39.8118 12.3643C39.5002 12.2119 39.0909 12.1357 38.5838 12.1357H36.6548V21H35.1186ZM40.1449 16.4062L42.6605 21H40.9105L38.4446 16.4062H40.1449ZM47.2182 21.1541C46.4658 21.1541 45.8179 20.9934 45.2743 20.6719C44.7341 20.3471 44.3165 19.8913 44.0215 19.3047C43.7298 18.7147 43.584 18.0237 43.584 17.2315C43.584 16.4493 43.7298 15.7599 44.0215 15.1634C44.3165 14.5668 44.7275 14.1011 45.2544 13.7663C45.7847 13.4316 46.4045 13.2642 47.1138 13.2642C47.5447 13.2642 47.9623 13.3355 48.3667 13.478C48.771 13.6205 49.1339 13.8442 49.4554 14.1491C49.7769 14.4541 50.0305 14.8501 50.2161 15.3374C50.4017 15.8213 50.4945 16.4096 50.4945 17.1023V17.6293H44.4242V16.5156H49.0378C49.0378 16.1245 48.9583 15.7782 48.7992 15.4766C48.6401 15.1716 48.4164 14.9313 48.128 14.7557C47.843 14.58 47.5082 14.4922 47.1238 14.4922C46.7061 14.4922 46.3416 14.5949 46.03 14.8004C45.7218 15.0026 45.4831 15.2678 45.3141 15.5959C45.1484 15.9207 45.0655 16.2737 45.0655 16.6548V17.5249C45.0655 18.0353 45.155 18.4695 45.334 18.8274C45.5163 19.1854 45.7698 19.4588 46.0946 19.6477C46.4194 19.8333 46.7989 19.9261 47.2331 19.9261C47.5149 19.9261 47.7717 19.8864 48.0037 19.8068C48.2357 19.724 48.4363 19.6013 48.6053 19.4389C48.7743 19.2765 48.9036 19.076 48.9931 18.8374L50.4 19.0909C50.2873 19.5052 50.0852 19.8681 49.7935 20.1797C49.5051 20.4879 49.1422 20.7282 48.7047 20.9006C48.2705 21.0696 47.775 21.1541 47.2182 21.1541ZM55.3604 21.1541C54.6213 21.1541 53.985 20.9867 53.4513 20.652C52.921 20.3139 52.5134 19.8482 52.2283 19.255C51.9433 18.6617 51.8008 17.9822 51.8008 17.2166C51.8008 16.4411 51.9466 15.7566 52.2383 15.1634C52.5299 14.5668 52.9409 14.1011 53.4712 13.7663C54.0015 13.4316 54.6263 13.2642 55.3455 13.2642C55.9255 13.2642 56.4426 13.3719 56.8967 13.5874C57.3507 13.7995 57.717 14.0978 57.9954 14.4822C58.2771 14.8667 58.4445 15.3158 58.4975 15.8295H57.0508C56.9712 15.4716 56.7889 15.1634 56.5039 14.9048C56.2222 14.6463 55.8443 14.517 55.3704 14.517C54.9561 14.517 54.5932 14.6264 54.2816 14.8452C53.9734 15.0606 53.7331 15.3688 53.5607 15.7699C53.3884 16.1676 53.3022 16.6383 53.3022 17.1818C53.3022 17.7386 53.3867 18.2192 53.5558 18.6236C53.7248 19.0279 53.9634 19.3411 54.2717 19.5632C54.5832 19.7853 54.9495 19.8963 55.3704 19.8963C55.6521 19.8963 55.9073 19.8449 56.136 19.7422C56.368 19.6361 56.5619 19.4853 56.7177 19.2898C56.8768 19.0942 56.9878 18.8589 57.0508 18.5838H58.4975C58.4445 19.0777 58.2837 19.5185 58.0153 19.9062C57.7468 20.294 57.3872 20.599 56.9364 20.821C56.489 21.0431 55.9637 21.1541 55.3604 21.1541ZM60.0872 21V13.3636H61.524V14.5767H61.6035C61.7427 14.1657 61.988 13.8426 62.3393 13.6072C62.694 13.3686 63.095 13.2493 63.5424 13.2493C63.6352 13.2493 63.7446 13.2526 63.8706 13.2592C63.9998 13.2659 64.1009 13.2741 64.1738 13.2841V14.706C64.1142 14.6894 64.0081 14.6712 63.8556 14.6513C63.7032 14.6281 63.5507 14.6165 63.3983 14.6165C63.0469 14.6165 62.7337 14.6911 62.4586 14.8402C62.1868 14.986 61.9714 15.1899 61.8123 15.4517C61.6532 15.7102 61.5737 16.0052 61.5737 16.3366V21H60.0872ZM70.2976 17.8331V13.3636H71.7891V21H70.3274V19.6776H70.2479C70.0722 20.0852 69.7905 20.425 69.4027 20.6967C69.0182 20.9652 68.5393 21.0994 67.9659 21.0994C67.4754 21.0994 67.0412 20.9917 66.6634 20.7763C66.2888 20.5575 65.9938 20.2344 65.7784 19.8068C65.5663 19.3793 65.4602 18.8506 65.4602 18.2209V13.3636H66.9467V18.0419C66.9467 18.5623 67.0909 18.9766 67.3793 19.2848C67.6676 19.593 68.0421 19.7472 68.5028 19.7472C68.7813 19.7472 69.058 19.6776 69.3331 19.5384C69.6115 19.3991 69.8419 19.1887 70.0241 18.907C70.2098 18.6252 70.3009 18.2673 70.2976 17.8331ZM73.7864 21V13.3636H75.2729V21H73.7864ZM74.5371 12.1854C74.2786 12.1854 74.0565 12.0992 73.8709 11.9268C73.6886 11.7512 73.5975 11.5424 73.5975 11.3004C73.5975 11.0552 73.6886 10.8464 73.8709 10.674C74.0565 10.4983 74.2786 10.4105 74.5371 10.4105C74.7956 10.4105 75.016 10.4983 75.1983 10.674C75.3839 10.8464 75.4767 11.0552 75.4767 11.3004C75.4767 11.5424 75.3839 11.7512 75.1983 11.9268C75.016 12.0992 74.7956 12.1854 74.5371 12.1854ZM80.8374 13.3636V14.5568H76.6662V13.3636H80.8374ZM77.7848 11.5341H79.2713V18.7578C79.2713 19.0462 79.3144 19.2633 79.4006 19.4091C79.4867 19.5516 79.5978 19.6494 79.7337 19.7024C79.8729 19.7521 80.0237 19.777 80.1861 19.777C80.3054 19.777 80.4098 19.7687 80.4993 19.7521C80.5888 19.7356 80.6584 19.7223 80.7081 19.7124L80.9766 20.9403C80.8904 20.9735 80.7678 21.0066 80.6087 21.0398C80.4496 21.0762 80.2507 21.0961 80.0121 21.0994C79.621 21.1061 79.2564 21.0365 78.9183 20.8906C78.5803 20.7448 78.3068 20.5194 78.098 20.2145C77.8892 19.9096 77.7848 19.5268 77.7848 19.0661V11.5341ZM82.4817 21V13.3636H83.9682V21H82.4817ZM83.2324 12.1854C82.9739 12.1854 82.7518 12.0992 82.5662 11.9268C82.3839 11.7512 82.2928 11.5424 82.2928 11.3004C82.2928 11.0552 82.3839 10.8464 82.5662 10.674C82.7518 10.4983 82.9739 10.4105 83.2324 10.4105C83.4909 10.4105 83.7114 10.4983 83.8936 10.674C84.0792 10.8464 84.1721 11.0552 84.1721 11.3004C84.1721 11.5424 84.0792 11.7512 83.8936 11.9268C83.7114 12.0992 83.4909 12.1854 83.2324 12.1854ZM87.4545 16.4659V21H85.968V13.3636H87.3949V14.6065H87.4893C87.665 14.2022 87.9401 13.8774 88.3146 13.6321C88.6925 13.3868 89.1681 13.2642 89.7415 13.2642C90.2618 13.2642 90.7176 13.3736 91.1087 13.5923C91.4998 13.8078 91.803 14.1293 92.0185 14.5568C92.2339 14.9844 92.3416 15.513 92.3416 16.1428V21H90.8551V16.3217C90.8551 15.7682 90.7109 15.3357 90.4226 15.0241C90.1342 14.7093 89.7382 14.5518 89.2344 14.5518C88.8897 14.5518 88.5831 14.6264 88.3146 14.7756C88.0495 14.9247 87.839 15.1435 87.6832 15.4318C87.5308 15.7169 87.4545 16.0616 87.4545 16.4659ZM97.5369 24.0227C96.9304 24.0227 96.4084 23.9432 95.9709 23.7841C95.5367 23.625 95.1821 23.4145 94.907 23.1527C94.6319 22.8909 94.4264 22.6042 94.2905 22.2926L95.5682 21.7656C95.6577 21.9115 95.777 22.0656 95.9261 22.228C96.0786 22.3937 96.2841 22.5346 96.5426 22.6506C96.8045 22.7666 97.1409 22.8246 97.5518 22.8246C98.1153 22.8246 98.581 22.687 98.9489 22.4119C99.3168 22.1402 99.5007 21.706 99.5007 21.1094V19.608H99.4062C99.3168 19.7704 99.1875 19.951 99.0185 20.1499C98.8527 20.3487 98.6241 20.5211 98.3324 20.6669C98.0407 20.8127 97.6612 20.8857 97.1939 20.8857C96.5907 20.8857 96.0471 20.7448 95.5632 20.4631C95.0826 20.178 94.7015 19.7588 94.4197 19.2053C94.1413 18.6484 94.0021 17.964 94.0021 17.152C94.0021 16.34 94.1397 15.6439 94.4148 15.0639C94.6932 14.4839 95.0743 14.0398 95.5582 13.7315C96.0421 13.42 96.5907 13.2642 97.2038 13.2642C97.6778 13.2642 98.0606 13.3438 98.3523 13.5028C98.6439 13.6586 98.871 13.8409 99.0334 14.0497C99.1991 14.2585 99.3267 14.4425 99.4162 14.6016H99.5256V13.3636H100.982V21.169C100.982 21.8253 100.83 22.3639 100.525 22.7848C100.22 23.2057 99.8073 23.5173 99.2869 23.7195C98.7699 23.9216 98.1866 24.0227 97.5369 24.0227ZM97.522 19.6527C97.9496 19.6527 98.3108 19.5533 98.6058 19.3544C98.9041 19.1522 99.1295 18.8639 99.282 18.4893C99.4377 18.1115 99.5156 17.6591 99.5156 17.1321C99.5156 16.6184 99.4394 16.166 99.2869 15.7749C99.1345 15.3838 98.9107 15.0788 98.6158 14.8601C98.3208 14.638 97.9562 14.527 97.522 14.527C97.0746 14.527 96.7017 14.643 96.4034 14.875C96.1051 15.1037 95.8797 15.4152 95.7273 15.8097C95.5781 16.2041 95.5036 16.6449 95.5036 17.1321C95.5036 17.6326 95.5798 18.0717 95.7322 18.4496C95.8847 18.8274 96.1101 19.1224 96.4084 19.3345C96.71 19.5466 97.0812 19.6527 97.522 19.6527Z" fill="white"/>
        </svg>
