        <svg width="145" height="32" viewBox="0 0 145 32" fill="none" xmlns="http://www.w3.org/2000/svg">
<rect width="145" height="32" rx="6" fill="#9E7AF2"/>
<rect width="145" height="32" rx="6" fill="white" fill-opacity="0.9"/>
<path fill-rule="evenodd" clip-rule="evenodd" d="M20.7043 8.25C21.71 8.25 22.6775 8.6475 23.3892 9.36075C24.1017 10.0725 24.5 11.0325 24.5 12.0375V17.9625C24.5 20.055 22.7975 21.75 20.7043 21.75H13.295C11.2018 21.75 9.5 20.055 9.5 17.9625V12.0375C9.5 9.945 11.1942 8.25 13.295 8.25H20.7043ZM21.8974 13.1552L21.9574 13.0952C22.1367 12.8777 22.1367 12.5627 21.9492 12.3452C21.8449 12.2335 21.7017 12.1652 21.5524 12.1502C21.3949 12.142 21.2449 12.1952 21.1317 12.3002L17.7499 15.0002C17.3149 15.361 16.6917 15.361 16.2499 15.0002L12.8749 12.3002C12.6417 12.1277 12.3192 12.1502 12.1249 12.3527C11.9224 12.5552 11.8999 12.8777 12.0717 13.1027L12.1699 13.2002L15.5824 15.8627C16.0024 16.1927 16.5117 16.3727 17.0449 16.3727C17.5767 16.3727 18.0949 16.1927 18.5142 15.8627L21.8974 13.1552Z" fill="#9E7AF2"/>
<path d="M34.6165 12.1406V10.8182H42.4964V12.1406H39.3196V21H37.7884V12.1406H34.6165ZM46.3022 21.1541C45.5498 21.1541 44.9019 20.9934 44.3583 20.6719C43.8181 20.3471 43.4004 19.8913 43.1055 19.3047C42.8138 18.7147 42.668 18.0237 42.668 17.2315C42.668 16.4493 42.8138 15.7599 43.1055 15.1634C43.4004 14.5668 43.8114 14.1011 44.3384 13.7663C44.8687 13.4316 45.4885 13.2642 46.1978 13.2642C46.6287 13.2642 47.0463 13.3355 47.4506 13.478C47.855 13.6205 48.2179 13.8442 48.5394 14.1491C48.8609 14.4541 49.1145 14.8501 49.3001 15.3374C49.4857 15.8213 49.5785 16.4096 49.5785 17.1023V17.6293H43.5082V16.5156H48.1218C48.1218 16.1245 48.0423 15.7782 47.8832 15.4766C47.7241 15.1716 47.5004 14.9313 47.212 14.7557C46.927 14.58 46.5922 14.4922 46.2077 14.4922C45.7901 14.4922 45.4255 14.5949 45.114 14.8004C44.8058 15.0026 44.5671 15.2678 44.3981 15.5959C44.2324 15.9207 44.1495 16.2737 44.1495 16.6548V17.5249C44.1495 18.0353 44.239 18.4695 44.418 18.8274C44.6003 19.1854 44.8538 19.4588 45.1786 19.6477C45.5034 19.8333 45.8829 19.9261 46.3171 19.9261C46.5988 19.9261 46.8557 19.8864 47.0877 19.8068C47.3197 19.724 47.5202 19.6013 47.6893 19.4389C47.8583 19.2765 47.9876 19.076 48.0771 18.8374L49.484 19.0909C49.3713 19.5052 49.1692 19.8681 48.8775 20.1797C48.5891 20.4879 48.2262 20.7282 47.7887 20.9006C47.3545 21.0696 46.859 21.1541 46.3022 21.1541ZM53.4501 21.169C52.9662 21.169 52.5287 21.0795 52.1376 20.9006C51.7465 20.7183 51.4366 20.4548 51.2079 20.1101C50.9825 19.7654 50.8699 19.3428 50.8699 18.8423C50.8699 18.4115 50.9527 18.0568 51.1184 17.7784C51.2842 17.5 51.5079 17.2796 51.7896 17.1172C52.0713 16.9548 52.3862 16.8321 52.7342 16.7493C53.0822 16.6664 53.4368 16.6035 53.7981 16.5604C54.2555 16.5073 54.6267 16.4643 54.9118 16.4311C55.1968 16.3946 55.4039 16.3366 55.5332 16.2571C55.6625 16.1776 55.7271 16.0483 55.7271 15.8693V15.8345C55.7271 15.4003 55.6045 15.0639 55.3592 14.8253C55.1172 14.5866 54.756 14.4673 54.2754 14.4673C53.7749 14.4673 53.3805 14.5784 53.0922 14.8004C52.8071 15.0192 52.6099 15.2628 52.5005 15.5312L51.1035 15.2131C51.2692 14.7491 51.5112 14.3745 51.8294 14.0895C52.1509 13.8011 52.5204 13.5923 52.938 13.4631C53.3556 13.3305 53.7948 13.2642 54.2555 13.2642C54.5604 13.2642 54.8836 13.3007 55.225 13.3736C55.5697 13.4432 55.8912 13.5724 56.1895 13.7614C56.4911 13.9503 56.738 14.2204 56.9302 14.5717C57.1225 14.9197 57.2186 15.3722 57.2186 15.929V21H55.7669V19.956H55.7072C55.6111 20.1482 55.4669 20.3371 55.2747 20.5227C55.0824 20.7083 54.8355 20.8625 54.5339 20.9851C54.2323 21.1077 53.871 21.169 53.4501 21.169ZM53.7733 19.9759C54.1842 19.9759 54.5356 19.8946 54.8272 19.7322C55.1222 19.5698 55.3459 19.3577 55.4984 19.0959C55.6542 18.8307 55.7321 18.5473 55.7321 18.2457V17.2614C55.679 17.3144 55.5763 17.3641 55.4238 17.4105C55.2747 17.4536 55.104 17.4917 54.9118 17.5249C54.7195 17.5547 54.5323 17.5829 54.35 17.6094C54.1677 17.6326 54.0152 17.6525 53.8926 17.669C53.6042 17.7055 53.3407 17.7668 53.1021 17.853C52.8668 17.9392 52.6779 18.0634 52.5353 18.2259C52.3961 18.3849 52.3265 18.5971 52.3265 18.8622C52.3265 19.2301 52.4624 19.5085 52.7342 19.6974C53.006 19.883 53.3523 19.9759 53.7733 19.9759ZM59.1985 21V13.3636H60.6254V14.6065H60.7198C60.8789 14.1856 61.1391 13.8575 61.5004 13.6222C61.8616 13.3835 62.2942 13.2642 62.7979 13.2642C63.3084 13.2642 63.7359 13.3835 64.0806 13.6222C64.4286 13.8608 64.6855 14.1889 64.8512 14.6065H64.9308C65.113 14.1989 65.4031 13.8741 65.8008 13.6321C66.1985 13.3868 66.6725 13.2642 67.2227 13.2642C67.9154 13.2642 68.4805 13.4813 68.918 13.9155C69.3588 14.3497 69.5792 15.0043 69.5792 15.8793V21H68.0927V16.0185C68.0927 15.5014 67.9518 15.1269 67.6701 14.8949C67.3884 14.6629 67.052 14.5469 66.6609 14.5469C66.177 14.5469 65.8008 14.696 65.5323 14.9943C65.2638 15.2893 65.1296 15.6688 65.1296 16.1328V21H63.6481V15.924C63.6481 15.5097 63.5188 15.1766 63.2603 14.9247C63.0018 14.6728 62.6654 14.5469 62.2511 14.5469C61.9693 14.5469 61.7092 14.6214 61.4705 14.7706C61.2352 14.9164 61.0446 15.1203 60.8988 15.3821C60.7563 15.6439 60.685 15.9472 60.685 16.2919V21H59.1985ZM75.396 10.8182H77.2603L80.5018 18.733H80.6211L83.8626 10.8182H85.7269V21H84.2653V13.6321H84.1708L81.168 20.9851H79.9549L76.9521 13.6271H76.8576V21H75.396V10.8182ZM91.1323 21.1541C90.3799 21.1541 89.7319 20.9934 89.1884 20.6719C88.6481 20.3471 88.2305 19.8913 87.9355 19.3047C87.6439 18.7147 87.498 18.0237 87.498 17.2315C87.498 16.4493 87.6439 15.7599 87.9355 15.1634C88.2305 14.5668 88.6415 14.1011 89.1685 13.7663C89.6988 13.4316 90.3186 13.2642 91.0279 13.2642C91.4587 13.2642 91.8764 13.3355 92.2807 13.478C92.6851 13.6205 93.048 13.8442 93.3695 14.1491C93.691 14.4541 93.9445 14.8501 94.1301 15.3374C94.3158 15.8213 94.4086 16.4096 94.4086 17.1023V17.6293H88.3382V16.5156H92.9519C92.9519 16.1245 92.8723 15.7782 92.7132 15.4766C92.5542 15.1716 92.3304 14.9313 92.0421 14.7557C91.757 14.58 91.4223 14.4922 91.0378 14.4922C90.6202 14.4922 90.2556 14.5949 89.9441 14.8004C89.6358 15.0026 89.3972 15.2678 89.2282 15.5959C89.0624 15.9207 88.9796 16.2737 88.9796 16.6548V17.5249C88.9796 18.0353 89.0691 18.4695 89.248 18.8274C89.4303 19.1854 89.6839 19.4588 90.0087 19.6477C90.3335 19.8333 90.713 19.9261 91.1472 19.9261C91.4289 19.9261 91.6858 19.8864 91.9178 19.8068C92.1498 19.724 92.3503 19.6013 92.5194 19.4389C92.6884 19.2765 92.8176 19.076 92.9071 18.8374L94.3141 19.0909C94.2014 19.5052 93.9992 19.8681 93.7076 20.1797C93.4192 20.4879 93.0563 20.7282 92.6188 20.9006C92.1846 21.0696 91.6891 21.1541 91.1323 21.1541ZM99.3491 21.1541C98.5967 21.1541 97.9487 20.9934 97.4052 20.6719C96.8649 20.3471 96.4473 19.8913 96.1523 19.3047C95.8607 18.7147 95.7148 18.0237 95.7148 17.2315C95.7148 16.4493 95.8607 15.7599 96.1523 15.1634C96.4473 14.5668 96.8583 14.1011 97.3853 13.7663C97.9156 13.4316 98.5354 13.2642 99.2447 13.2642C99.6755 13.2642 100.093 13.3355 100.498 13.478C100.902 13.6205 101.265 13.8442 101.586 14.1491C101.908 14.4541 102.161 14.8501 102.347 15.3374C102.533 15.8213 102.625 16.4096 102.625 17.1023V17.6293H96.555V16.5156H101.169C101.169 16.1245 101.089 15.7782 100.93 15.4766C100.771 15.1716 100.547 14.9313 100.259 14.7557C99.9738 14.58 99.6391 14.4922 99.2546 14.4922C98.837 14.4922 98.4724 14.5949 98.1609 14.8004C97.8526 15.0026 97.614 15.2678 97.445 15.5959C97.2792 15.9207 97.1964 16.2737 97.1964 16.6548V17.5249C97.1964 18.0353 97.2859 18.4695 97.4648 18.8274C97.6471 19.1854 97.9007 19.4588 98.2255 19.6477C98.5503 19.8333 98.9298 19.9261 99.364 19.9261C99.6457 19.9261 99.9026 19.8864 100.135 19.8068C100.367 19.724 100.567 19.6013 100.736 19.4389C100.905 19.2765 101.034 19.076 101.124 18.8374L102.531 19.0909C102.418 19.5052 102.216 19.8681 101.924 20.1797C101.636 20.4879 101.273 20.7282 100.836 20.9006C100.401 21.0696 99.9059 21.1541 99.3491 21.1541ZM107.839 13.3636V14.5568H103.668V13.3636H107.839ZM104.787 11.5341H106.273V18.7578C106.273 19.0462 106.316 19.2633 106.403 19.4091C106.489 19.5516 106.6 19.6494 106.736 19.7024C106.875 19.7521 107.026 19.777 107.188 19.777C107.307 19.777 107.412 19.7687 107.501 19.7521C107.591 19.7356 107.66 19.7223 107.71 19.7124L107.979 20.9403C107.892 20.9735 107.77 21.0066 107.611 21.0398C107.452 21.0762 107.253 21.0961 107.014 21.0994C106.623 21.1061 106.258 21.0365 105.92 20.8906C105.582 20.7448 105.309 20.5194 105.1 20.2145C104.891 19.9096 104.787 19.5268 104.787 19.0661V11.5341ZM109.484 21V13.3636H110.97V21H109.484ZM110.234 12.1854C109.976 12.1854 109.754 12.0992 109.568 11.9268C109.386 11.7512 109.295 11.5424 109.295 11.3004C109.295 11.0552 109.386 10.8464 109.568 10.674C109.754 10.4983 109.976 10.4105 110.234 10.4105C110.493 10.4105 110.713 10.4983 110.896 10.674C111.081 10.8464 111.174 11.0552 111.174 11.3004C111.174 11.5424 111.081 11.7512 110.896 11.9268C110.713 12.0992 110.493 12.1854 110.234 12.1854ZM114.456 16.4659V21H112.97V13.3636H114.397V14.6065H114.491C114.667 14.2022 114.942 13.8774 115.317 13.6321C115.694 13.3868 116.17 13.2642 116.743 13.2642C117.264 13.2642 117.72 13.3736 118.111 13.5923C118.502 13.8078 118.805 14.1293 119.02 14.5568C119.236 14.9844 119.344 15.513 119.344 16.1428V21H117.857V16.3217C117.857 15.7682 117.713 15.3357 117.425 15.0241C117.136 14.7093 116.74 14.5518 116.236 14.5518C115.892 14.5518 115.585 14.6264 115.317 14.7756C115.051 14.9247 114.841 15.1435 114.685 15.4318C114.533 15.7169 114.456 16.0616 114.456 16.4659ZM124.539 24.0227C123.932 24.0227 123.41 23.9432 122.973 23.7841C122.539 23.625 122.184 23.4145 121.909 23.1527C121.634 22.8909 121.428 22.6042 121.292 22.2926L122.57 21.7656C122.66 21.9115 122.779 22.0656 122.928 22.228C123.081 22.3937 123.286 22.5346 123.545 22.6506C123.806 22.7666 124.143 22.8246 124.554 22.8246C125.117 22.8246 125.583 22.687 125.951 22.4119C126.319 22.1402 126.503 21.706 126.503 21.1094V19.608H126.408C126.319 19.7704 126.189 19.951 126.02 20.1499C125.855 20.3487 125.626 20.5211 125.334 20.6669C125.043 20.8127 124.663 20.8857 124.196 20.8857C123.593 20.8857 123.049 20.7448 122.565 20.4631C122.085 20.178 121.703 19.7588 121.422 19.2053C121.143 18.6484 121.004 17.964 121.004 17.152C121.004 16.34 121.142 15.6439 121.417 15.0639C121.695 14.4839 122.076 14.0398 122.56 13.7315C123.044 13.42 123.593 13.2642 124.206 13.2642C124.68 13.2642 125.063 13.3438 125.354 13.5028C125.646 13.6586 125.873 13.8409 126.035 14.0497C126.201 14.2585 126.329 14.4425 126.418 14.6016H126.528V13.3636H127.984V21.169C127.984 21.8253 127.832 22.3639 127.527 22.7848C127.222 23.2057 126.809 23.5173 126.289 23.7195C125.772 23.9216 125.189 24.0227 124.539 24.0227ZM124.524 19.6527C124.952 19.6527 125.313 19.5533 125.608 19.3544C125.906 19.1522 126.131 18.8639 126.284 18.4893C126.44 18.1115 126.518 17.6591 126.518 17.1321C126.518 16.6184 126.441 16.166 126.289 15.7749C126.136 15.3838 125.913 15.0788 125.618 14.8601C125.323 14.638 124.958 14.527 124.524 14.527C124.077 14.527 123.704 14.643 123.405 14.875C123.107 15.1037 122.882 15.4152 122.729 15.8097C122.58 16.2041 122.506 16.6449 122.506 17.1321C122.506 17.6326 122.582 18.0717 122.734 18.4496C122.887 18.8274 123.112 19.1224 123.41 19.3345C123.712 19.5466 124.083 19.6527 124.524 19.6527ZM135.7 15.228L134.353 15.4666C134.296 15.2943 134.207 15.1302 134.084 14.9744C133.965 14.8187 133.803 14.6911 133.597 14.5916C133.392 14.4922 133.135 14.4425 132.827 14.4425C132.406 14.4425 132.054 14.5369 131.773 14.7259C131.491 14.9115 131.35 15.1518 131.35 15.4467C131.35 15.7019 131.444 15.9074 131.633 16.0632C131.822 16.219 132.127 16.3466 132.548 16.446L133.761 16.7244C134.464 16.8868 134.988 17.1371 135.332 17.4751C135.677 17.8132 135.849 18.2524 135.849 18.7926C135.849 19.25 135.717 19.6577 135.452 20.0156C135.19 20.3703 134.823 20.6487 134.353 20.8509C133.885 21.053 133.344 21.1541 132.727 21.1541C131.872 21.1541 131.174 20.9718 130.634 20.6072C130.094 20.2393 129.762 19.7173 129.64 19.0412L131.077 18.8224C131.166 19.197 131.35 19.4804 131.628 19.6726C131.907 19.8615 132.27 19.956 132.717 19.956C133.204 19.956 133.594 19.8549 133.885 19.6527C134.177 19.4472 134.323 19.197 134.323 18.902C134.323 18.6634 134.233 18.4628 134.055 18.3004C133.879 18.138 133.609 18.0154 133.244 17.9325L131.952 17.6491C131.239 17.4867 130.712 17.2282 130.371 16.8736C130.032 16.5189 129.863 16.0698 129.863 15.5263C129.863 15.0755 129.989 14.6811 130.241 14.343C130.493 14.005 130.841 13.7415 131.285 13.5526C131.729 13.3603 132.238 13.2642 132.812 13.2642C133.637 13.2642 134.287 13.4432 134.76 13.8011C135.234 14.1558 135.548 14.6314 135.7 15.228Z" fill="#3D474D"/>
</svg>
