
        <svg width="128" height="32" viewBox="0 0 128 32" fill="none" xmlns="http://www.w3.org/2000/svg">
        <rect width="128" height="32" rx="6" fill="#FFAB00"/>
        <rect width="128" height="32" rx="6" fill="white" fill-opacity="0.9"/>
        <path fill-rule="evenodd" clip-rule="evenodd" d="M18.6593 11.8218C18.6593 13.8046 17.0367 15.3936 15.012 15.3936C12.988 15.3936 11.3647 13.8046 11.3647 11.8218C11.3647 9.83899 12.988 8.25 15.012 8.25C17.0367 8.25 18.6593 9.83899 18.6593 11.8218ZM9.5 19.4378C9.5 17.6023 12.0391 17.1431 15.012 17.1431C18.001 17.1431 20.524 17.6181 20.524 19.455C20.524 21.2905 17.9849 21.7498 15.012 21.7498C12.023 21.7498 9.5 21.2747 9.5 19.4378ZM20.1296 11.8869C20.1296 12.8967 19.8199 13.8388 19.2769 14.6215C19.2203 14.702 19.2702 14.8105 19.3686 14.8277C19.5051 14.85 19.6452 14.8637 19.7884 14.8665C21.212 14.9032 22.4897 14.0056 22.8427 12.6537C23.3659 10.6479 21.8307 8.84692 19.8749 8.84692C19.6629 8.84692 19.4596 8.86848 19.2614 8.90801C19.2343 8.91376 19.2049 8.9267 19.1903 8.94969C19.1712 8.97916 19.1851 9.01725 19.2042 9.0424C19.792 9.84947 20.1296 10.8319 20.1296 11.8869ZM22.4875 16.277C23.4444 16.4603 24.0733 16.8333 24.3338 17.3773C24.5547 17.8229 24.5547 18.3403 24.3338 18.7859C23.9354 19.6282 22.6496 19.8991 22.1499 19.9688C22.0464 19.9832 21.9635 19.897 21.9745 19.7949C22.2299 17.4607 20.1993 16.3539 19.6739 16.0995C19.6518 16.0873 19.6467 16.07 19.6489 16.0585C19.6504 16.0514 19.6599 16.0399 19.6768 16.0377C20.8135 16.0161 22.0361 16.1692 22.4875 16.277Z" fill="#FFAB00"/>
        <path d="M43.5753 14.1293H42.0241C41.9645 13.7978 41.8535 13.5062 41.6911 13.2543C41.5286 13.0024 41.3298 12.7886 41.0945 12.6129C40.8591 12.4373 40.5956 12.3047 40.304 12.2152C40.0156 12.1257 39.709 12.081 39.3842 12.081C38.7976 12.081 38.2723 12.2285 37.8082 12.5234C37.3475 12.8184 36.983 13.2509 36.7145 13.821C36.4493 14.3911 36.3168 15.0871 36.3168 15.9091C36.3168 16.7377 36.4493 17.437 36.7145 18.0071C36.983 18.5772 37.3492 19.008 37.8132 19.2997C38.2772 19.5914 38.7992 19.7372 39.3793 19.7372C39.7008 19.7372 40.0057 19.6941 40.294 19.608C40.5857 19.5185 40.8492 19.3875 41.0845 19.2152C41.3198 19.0429 41.5187 18.8324 41.6811 18.5838C41.8468 18.3319 41.9612 18.0436 42.0241 17.7188L43.5753 17.7237C43.4924 18.2242 43.3317 18.6849 43.093 19.1058C42.8577 19.5234 42.5545 19.8847 42.1832 20.1896C41.8153 20.4912 41.3944 20.7249 40.9205 20.8906C40.4465 21.0563 39.9295 21.1392 39.3693 21.1392C38.4877 21.1392 37.7022 20.9304 37.0128 20.5128C36.3234 20.0919 35.7798 19.4903 35.3821 18.7081C34.9877 17.9259 34.7905 16.9929 34.7905 15.9091C34.7905 14.822 34.9893 13.889 35.3871 13.1101C35.7848 12.3279 36.3284 11.728 37.0178 11.3104C37.7071 10.8894 38.491 10.679 39.3693 10.679C39.9096 10.679 40.4134 10.7569 40.8807 10.9126C41.3513 11.0651 41.7739 11.2905 42.1484 11.5888C42.523 11.8838 42.8329 12.245 43.0781 12.6726C43.3234 13.0968 43.4891 13.5824 43.5753 14.1293ZM48.5108 21.1541C47.7949 21.1541 47.1702 20.9901 46.6365 20.6619C46.1029 20.3338 45.6886 19.8748 45.3936 19.2848C45.0987 18.6948 44.9512 18.0054 44.9512 17.2166C44.9512 16.4245 45.0987 15.7318 45.3936 15.1385C45.6886 14.5452 46.1029 14.0845 46.6365 13.7564C47.1702 13.4283 47.7949 13.2642 48.5108 13.2642C49.2267 13.2642 49.8515 13.4283 50.3851 13.7564C50.9187 14.0845 51.333 14.5452 51.628 15.1385C51.923 15.7318 52.0705 16.4245 52.0705 17.2166C52.0705 18.0054 51.923 18.6948 51.628 19.2848C51.333 19.8748 50.9187 20.3338 50.3851 20.6619C49.8515 20.9901 49.2267 21.1541 48.5108 21.1541ZM48.5158 19.9062C48.9798 19.9062 49.3643 19.7836 49.6692 19.5384C49.9741 19.2931 50.1995 18.9666 50.3453 18.5589C50.4945 18.1513 50.5691 17.7022 50.5691 17.2116C50.5691 16.7244 50.4945 16.277 50.3453 15.8693C50.1995 15.4583 49.9741 15.1286 49.6692 14.88C49.3643 14.6314 48.9798 14.5071 48.5158 14.5071C48.0485 14.5071 47.6607 14.6314 47.3525 14.88C47.0475 15.1286 46.8205 15.4583 46.6713 15.8693C46.5255 16.277 46.4526 16.7244 46.4526 17.2116C46.4526 17.7022 46.5255 18.1513 46.6713 18.5589C46.8205 18.9666 47.0475 19.2931 47.3525 19.5384C47.6607 19.7836 48.0485 19.9062 48.5158 19.9062ZM55.2163 16.4659V21H53.7298V13.3636H55.1566V14.6065H55.2511C55.4267 14.2022 55.7018 13.8774 56.0763 13.6321C56.4542 13.3868 56.9298 13.2642 57.5032 13.2642C58.0236 13.2642 58.4793 13.3736 58.8704 13.5923C59.2615 13.8078 59.5647 14.1293 59.7802 14.5568C59.9956 14.9844 60.1033 15.513 60.1033 16.1428V21H58.6168V16.3217C58.6168 15.7682 58.4727 15.3357 58.1843 15.0241C57.896 14.7093 57.4999 14.5518 56.9961 14.5518C56.6514 14.5518 56.3448 14.6264 56.0763 14.7756C55.8112 14.9247 55.6007 15.1435 55.445 15.4318C55.2925 15.7169 55.2163 16.0616 55.2163 16.4659ZM65.7312 13.3636V14.5568H61.4158V13.3636H65.7312ZM62.5991 21V12.4787C62.5991 12.0014 62.7035 11.6053 62.9123 11.2905C63.1211 10.9723 63.3978 10.7353 63.7425 10.5795C64.0872 10.4205 64.4618 10.3409 64.8661 10.3409C65.1644 10.3409 65.4196 10.3658 65.6317 10.4155C65.8439 10.4619 66.0013 10.505 66.104 10.5447L65.756 11.7479C65.6864 11.728 65.5969 11.7048 65.4876 11.6783C65.3782 11.6484 65.2456 11.6335 65.0898 11.6335C64.7286 11.6335 64.4701 11.723 64.3143 11.902C64.1618 12.081 64.0856 12.3395 64.0856 12.6776V21H62.5991ZM70.2553 21.1541C69.503 21.1541 68.855 20.9934 68.3114 20.6719C67.7712 20.3471 67.3536 19.8913 67.0586 19.3047C66.7669 18.7147 66.6211 18.0237 66.6211 17.2315C66.6211 16.4493 66.7669 15.7599 67.0586 15.1634C67.3536 14.5668 67.7646 14.1011 68.2915 13.7663C68.8219 13.4316 69.4416 13.2642 70.1509 13.2642C70.5818 13.2642 70.9994 13.3355 71.4038 13.478C71.8081 13.6205 72.171 13.8442 72.4925 14.1491C72.814 14.4541 73.0676 14.8501 73.2532 15.3374C73.4388 15.8213 73.5316 16.4096 73.5316 17.1023V17.6293H67.4613V16.5156H72.0749C72.0749 16.1245 71.9954 15.7782 71.8363 15.4766C71.6772 15.1716 71.4535 14.9313 71.1651 14.7557C70.8801 14.58 70.5453 14.4922 70.1609 14.4922C69.7433 14.4922 69.3787 14.5949 69.0671 14.8004C68.7589 15.0026 68.5202 15.2678 68.3512 15.5959C68.1855 15.9207 68.1026 16.2737 68.1026 16.6548V17.5249C68.1026 18.0353 68.1921 18.4695 68.3711 18.8274C68.5534 19.1854 68.8069 19.4588 69.1317 19.6477C69.4566 19.8333 69.8361 19.9261 70.2702 19.9261C70.552 19.9261 70.8088 19.8864 71.0408 19.8068C71.2728 19.724 71.4734 19.6013 71.6424 19.4389C71.8114 19.2765 71.9407 19.076 72.0302 18.8374L73.4371 19.0909C73.3245 19.5052 73.1223 19.8681 72.8306 20.1797C72.5423 20.4879 72.1793 20.7282 71.7418 20.9006C71.3076 21.0696 70.8121 21.1541 70.2553 21.1541ZM75.1809 21V13.3636H76.6177V14.5767H76.6973C76.8365 14.1657 77.0817 13.8426 77.4331 13.6072C77.7877 13.3686 78.1887 13.2493 78.6362 13.2493C78.729 13.2493 78.8384 13.2526 78.9643 13.2592C79.0936 13.2659 79.1947 13.2741 79.2676 13.2841V14.706C79.2079 14.6894 79.1019 14.6712 78.9494 14.6513C78.7969 14.6281 78.6445 14.6165 78.492 14.6165C78.1407 14.6165 77.8275 14.6911 77.5524 14.8402C77.2806 14.986 77.0652 15.1899 76.9061 15.4517C76.747 15.7102 76.6674 16.0052 76.6674 16.3366V21H75.1809ZM83.5717 21.1541C82.8194 21.1541 82.1714 20.9934 81.6278 20.6719C81.0876 20.3471 80.67 19.8913 80.375 19.3047C80.0833 18.7147 79.9375 18.0237 79.9375 17.2315C79.9375 16.4493 80.0833 15.7599 80.375 15.1634C80.67 14.5668 81.081 14.1011 81.608 13.7663C82.1383 13.4316 82.758 13.2642 83.4673 13.2642C83.8982 13.2642 84.3158 13.3355 84.7202 13.478C85.1245 13.6205 85.4875 13.8442 85.8089 14.1491C86.1304 14.4541 86.384 14.8501 86.5696 15.3374C86.7552 15.8213 86.848 16.4096 86.848 17.1023V17.6293H80.7777V16.5156H85.3913C85.3913 16.1245 85.3118 15.7782 85.1527 15.4766C84.9936 15.1716 84.7699 14.9313 84.4815 14.7557C84.1965 14.58 83.8617 14.4922 83.4773 14.4922C83.0597 14.4922 82.6951 14.5949 82.3835 14.8004C82.0753 15.0026 81.8366 15.2678 81.6676 15.5959C81.5019 15.9207 81.419 16.2737 81.419 16.6548V17.5249C81.419 18.0353 81.5085 18.4695 81.6875 18.8274C81.8698 19.1854 82.1233 19.4588 82.4482 19.6477C82.773 19.8333 83.1525 19.9261 83.5866 19.9261C83.8684 19.9261 84.1252 19.8864 84.3572 19.8068C84.5893 19.724 84.7898 19.6013 84.9588 19.4389C85.1278 19.2765 85.2571 19.076 85.3466 18.8374L86.7536 19.0909C86.6409 19.5052 86.4387 19.8681 86.147 20.1797C85.8587 20.4879 85.4957 20.7282 85.0582 20.9006C84.6241 21.0696 84.1286 21.1541 83.5717 21.1541ZM89.9838 16.4659V21H88.4973V13.3636H89.9242V14.6065H90.0186C90.1943 14.2022 90.4694 13.8774 90.8439 13.6321C91.2218 13.3868 91.6974 13.2642 92.2708 13.2642C92.7911 13.2642 93.2469 13.3736 93.638 13.5923C94.0291 13.8078 94.3323 14.1293 94.5478 14.5568C94.7632 14.9844 94.8709 15.513 94.8709 16.1428V21H93.3844V16.3217C93.3844 15.7682 93.2402 15.3357 92.9519 15.0241C92.6635 14.7093 92.2675 14.5518 91.7637 14.5518C91.419 14.5518 91.1124 14.6264 90.8439 14.7756C90.5788 14.9247 90.3683 15.1435 90.2125 15.4318C90.0601 15.7169 89.9838 16.0616 89.9838 16.4659ZM100.081 21.1541C99.342 21.1541 98.7057 20.9867 98.1721 20.652C97.6417 20.3139 97.2341 19.8482 96.949 19.255C96.664 18.6617 96.5215 17.9822 96.5215 17.2166C96.5215 16.4411 96.6673 15.7566 96.959 15.1634C97.2507 14.5668 97.6616 14.1011 98.1919 13.7663C98.7222 13.4316 99.347 13.2642 100.066 13.2642C100.646 13.2642 101.163 13.3719 101.617 13.5874C102.071 13.7995 102.438 14.0978 102.716 14.4822C102.998 14.8667 103.165 15.3158 103.218 15.8295H101.771C101.692 15.4716 101.51 15.1634 101.225 14.9048C100.943 14.6463 100.565 14.517 100.091 14.517C99.6768 14.517 99.3139 14.6264 99.0023 14.8452C98.6941 15.0606 98.4538 15.3688 98.2814 15.7699C98.1091 16.1676 98.0229 16.6383 98.0229 17.1818C98.0229 17.7386 98.1074 18.2192 98.2765 18.6236C98.4455 19.0279 98.6841 19.3411 98.9924 19.5632C99.3039 19.7853 99.6702 19.8963 100.091 19.8963C100.373 19.8963 100.628 19.8449 100.857 19.7422C101.089 19.6361 101.283 19.4853 101.438 19.2898C101.597 19.0942 101.709 18.8589 101.771 18.5838H103.218C103.165 19.0777 103.004 19.5185 102.736 19.9062C102.468 20.294 102.108 20.599 101.657 20.821C101.21 21.0431 100.684 21.1541 100.081 21.1541ZM108.099 21.1541C107.347 21.1541 106.699 20.9934 106.155 20.6719C105.615 20.3471 105.197 19.8913 104.902 19.3047C104.611 18.7147 104.465 18.0237 104.465 17.2315C104.465 16.4493 104.611 15.7599 104.902 15.1634C105.197 14.5668 105.608 14.1011 106.135 13.7663C106.666 13.4316 107.285 13.2642 107.995 13.2642C108.426 13.2642 108.843 13.3355 109.248 13.478C109.652 13.6205 110.015 13.8442 110.336 14.1491C110.658 14.4541 110.911 14.8501 111.097 15.3374C111.283 15.8213 111.375 16.4096 111.375 17.1023V17.6293H105.305V16.5156H109.919C109.919 16.1245 109.839 15.7782 109.68 15.4766C109.521 15.1716 109.297 14.9313 109.009 14.7557C108.724 14.58 108.389 14.4922 108.005 14.4922C107.587 14.4922 107.222 14.5949 106.911 14.8004C106.603 15.0026 106.364 15.2678 106.195 15.5959C106.029 15.9207 105.946 16.2737 105.946 16.6548V17.5249C105.946 18.0353 106.036 18.4695 106.215 18.8274C106.397 19.1854 106.651 19.4588 106.975 19.6477C107.3 19.8333 107.68 19.9261 108.114 19.9261C108.396 19.9261 108.653 19.8864 108.885 19.8068C109.117 19.724 109.317 19.6013 109.486 19.4389C109.655 19.2765 109.784 19.076 109.874 18.8374L111.281 19.0909C111.168 19.5052 110.966 19.8681 110.674 20.1797C110.386 20.4879 110.023 20.7282 109.586 20.9006C109.151 21.0696 108.656 21.1541 108.099 21.1541ZM118.747 15.228L117.4 15.4666C117.343 15.2943 117.254 15.1302 117.131 14.9744C117.012 14.8187 116.849 14.6911 116.644 14.5916C116.439 14.4922 116.182 14.4425 115.873 14.4425C115.452 14.4425 115.101 14.5369 114.819 14.7259C114.538 14.9115 114.397 15.1518 114.397 15.4467C114.397 15.7019 114.491 15.9074 114.68 16.0632C114.869 16.219 115.174 16.3466 115.595 16.446L116.808 16.7244C117.511 16.8868 118.034 17.1371 118.379 17.4751C118.724 17.8132 118.896 18.2524 118.896 18.7926C118.896 19.25 118.764 19.6577 118.498 20.0156C118.237 20.3703 117.87 20.6487 117.4 20.8509C116.932 21.053 116.39 21.1541 115.774 21.1541C114.919 21.1541 114.221 20.9718 113.681 20.6072C113.141 20.2393 112.809 19.7173 112.687 19.0412L114.123 18.8224C114.213 19.197 114.397 19.4804 114.675 19.6726C114.954 19.8615 115.317 19.956 115.764 19.956C116.251 19.956 116.641 19.8549 116.932 19.6527C117.224 19.4472 117.37 19.197 117.37 18.902C117.37 18.6634 117.28 18.4628 117.101 18.3004C116.926 18.138 116.656 18.0154 116.291 17.9325L114.998 17.6491C114.286 17.4867 113.759 17.2282 113.417 16.8736C113.079 16.5189 112.91 16.0698 112.91 15.5263C112.91 15.0755 113.036 14.6811 113.288 14.343C113.54 14.005 113.888 13.7415 114.332 13.5526C114.776 13.3603 115.285 13.2642 115.858 13.2642C116.684 13.2642 117.333 13.4432 117.807 13.8011C118.281 14.1558 118.595 14.6314 118.747 15.228Z" fill="#3D474D"/>
        </svg>