
        <svg width="118" height="32" viewBox="0 0 118 32" fill="none" xmlns="http://www.w3.org/2000/svg">
        <rect width="118" height="32" rx="6" fill="#4170FF"/>
        <rect width="118" height="32" rx="6" fill="white" fill-opacity="0.9"/>
        <path fill-rule="evenodd" clip-rule="evenodd" d="M16.0283 8.63892C15.5256 8.63892 15.0978 8.98828 14.9778 9.45917H19.0148C18.8947 8.98828 18.467 8.63892 17.9643 8.63892H16.0283ZM20.1553 9.45948H21.6411C23.2169 9.45948 24.5 10.7582 24.5 12.3531C24.5 12.3531 24.455 13.0283 24.44 13.9686C24.4385 14.043 24.4025 14.1159 24.3432 14.16C23.9822 14.4265 23.6521 14.6468 23.6221 14.662C22.3764 15.4974 20.929 16.0853 19.3869 16.3777C19.2864 16.3974 19.1873 16.345 19.1363 16.2554C18.7041 15.5065 17.8967 15.0189 16.9962 15.0189C16.1018 15.0189 15.2869 15.5012 14.8419 16.2508C14.7901 16.3389 14.6926 16.3898 14.5928 16.3708C13.0635 16.0777 11.6161 15.4906 10.3779 14.6696L9.65758 14.1683C9.59755 14.1303 9.56003 14.062 9.56003 13.986C9.53752 13.5987 9.5 12.3531 9.5 12.3531C9.5 10.7582 10.7831 9.45948 12.3589 9.45948H13.8372C13.9797 8.35822 14.9027 7.5 16.0283 7.5H17.9642C19.0898 7.5 20.0128 8.35822 20.1553 9.45948ZM24.2445 15.6111L24.2145 15.6263C22.6988 16.644 20.8754 17.32 18.9619 17.601C18.6918 17.639 18.4216 17.4643 18.3466 17.1909C18.1815 16.5681 17.6487 16.1579 17.0109 16.1579H17.0034H16.9884C16.3506 16.1579 15.8178 16.5681 15.6527 17.1909C15.5777 17.4643 15.3076 17.639 15.0374 17.601C13.124 17.32 11.3006 16.644 9.78481 15.6263C9.77731 15.6187 9.70227 15.5731 9.64224 15.6111C9.57471 15.6491 9.57471 15.7402 9.57471 15.7402L9.62723 19.6136C9.62723 21.2086 10.9029 22.4997 12.4787 22.4997H21.5132C23.089 22.4997 24.3646 21.2086 24.3646 19.6136L24.4246 15.7402C24.4246 15.7402 24.4246 15.6491 24.3571 15.6111C24.3196 15.5883 24.2746 15.5959 24.2445 15.6111ZM17.5587 18.7934C17.5587 19.1124 17.3111 19.363 16.9959 19.363C16.6883 19.363 16.4331 19.1124 16.4331 18.7934V17.8136C16.4331 17.5022 16.6883 17.244 16.9959 17.244C17.3111 17.244 17.5587 17.5022 17.5587 17.8136V18.7934Z" fill="#547EFF"/>
        <path fill-rule="evenodd" clip-rule="evenodd" d="M16.0283 8.63892C15.5256 8.63892 15.0978 8.98828 14.9778 9.45917H19.0148C18.8947 8.98828 18.467 8.63892 17.9643 8.63892H16.0283ZM20.1553 9.45948H21.6411C23.2169 9.45948 24.5 10.7582 24.5 12.3531C24.5 12.3531 24.455 13.0283 24.44 13.9686C24.4385 14.043 24.4025 14.1159 24.3432 14.16C23.9822 14.4265 23.6521 14.6468 23.6221 14.662C22.3764 15.4974 20.929 16.0853 19.3869 16.3777C19.2864 16.3974 19.1873 16.345 19.1363 16.2554C18.7041 15.5065 17.8967 15.0189 16.9962 15.0189C16.1018 15.0189 15.2869 15.5012 14.8419 16.2508C14.7901 16.3389 14.6926 16.3898 14.5928 16.3708C13.0635 16.0777 11.6161 15.4906 10.3779 14.6696L9.65758 14.1683C9.59755 14.1303 9.56003 14.062 9.56003 13.986C9.53752 13.5987 9.5 12.3531 9.5 12.3531C9.5 10.7582 10.7831 9.45948 12.3589 9.45948H13.8372C13.9797 8.35822 14.9027 7.5 16.0283 7.5H17.9642C19.0898 7.5 20.0128 8.35822 20.1553 9.45948ZM24.2445 15.6111L24.2145 15.6263C22.6988 16.644 20.8754 17.32 18.9619 17.601C18.6918 17.639 18.4216 17.4643 18.3466 17.1909C18.1815 16.5681 17.6487 16.1579 17.0109 16.1579H17.0034H16.9884C16.3506 16.1579 15.8178 16.5681 15.6527 17.1909C15.5777 17.4643 15.3076 17.639 15.0374 17.601C13.124 17.32 11.3006 16.644 9.78481 15.6263C9.77731 15.6187 9.70227 15.5731 9.64224 15.6111C9.57471 15.6491 9.57471 15.7402 9.57471 15.7402L9.62723 19.6136C9.62723 21.2086 10.9029 22.4997 12.4787 22.4997H21.5132C23.089 22.4997 24.3646 21.2086 24.3646 19.6136L24.4246 15.7402C24.4246 15.7402 24.4246 15.6491 24.3571 15.6111C24.3196 15.5883 24.2746 15.5959 24.2445 15.6111ZM17.5587 18.7934C17.5587 19.1124 17.3111 19.363 16.9959 19.363C16.6883 19.363 16.4331 19.1124 16.4331 18.7934V17.8136C16.4331 17.5022 16.6883 17.244 16.9959 17.244C17.3111 17.244 17.5587 17.5022 17.5587 17.8136V18.7934Z" fill="#547EFF"/>
        <path d="M37.1122 21L34.2884 10.8182H35.9041L37.8878 18.7031H37.9822L40.0455 10.8182H41.6463L43.7095 18.7081H43.804L45.7827 10.8182H47.4034L44.5746 21H43.0284L40.8857 13.3736H40.8061L38.6634 21H37.1122ZM51.1495 21.1541C50.4336 21.1541 49.8088 20.9901 49.2752 20.6619C48.7416 20.3338 48.3273 19.8748 48.0323 19.2848C47.7373 18.6948 47.5898 18.0054 47.5898 17.2166C47.5898 16.4245 47.7373 15.7318 48.0323 15.1385C48.3273 14.5452 48.7416 14.0845 49.2752 13.7564C49.8088 13.4283 50.4336 13.2642 51.1495 13.2642C51.8654 13.2642 52.4902 13.4283 53.0238 13.7564C53.5574 14.0845 53.9717 14.5452 54.2667 15.1385C54.5617 15.7318 54.7092 16.4245 54.7092 17.2166C54.7092 18.0054 54.5617 18.6948 54.2667 19.2848C53.9717 19.8748 53.5574 20.3338 53.0238 20.6619C52.4902 20.9901 51.8654 21.1541 51.1495 21.1541ZM51.1545 19.9062C51.6185 19.9062 52.003 19.7836 52.3079 19.5384C52.6128 19.2931 52.8382 18.9666 52.984 18.5589C53.1332 18.1513 53.2077 17.7022 53.2077 17.2116C53.2077 16.7244 53.1332 16.277 52.984 15.8693C52.8382 15.4583 52.6128 15.1286 52.3079 14.88C52.003 14.6314 51.6185 14.5071 51.1545 14.5071C50.6871 14.5071 50.2994 14.6314 49.9911 14.88C49.6862 15.1286 49.4592 15.4583 49.31 15.8693C49.1642 16.277 49.0913 16.7244 49.0913 17.2116C49.0913 17.7022 49.1642 18.1513 49.31 18.5589C49.4592 18.9666 49.6862 19.2931 49.9911 19.5384C50.2994 19.7836 50.6871 19.9062 51.1545 19.9062ZM56.3684 21V13.3636H57.8052V14.5767H57.8848C58.024 14.1657 58.2692 13.8426 58.6206 13.6072C58.9752 13.3686 59.3762 13.2493 59.8237 13.2493C59.9165 13.2493 60.0259 13.2526 60.1518 13.2592C60.2811 13.2659 60.3822 13.2741 60.4551 13.2841V14.706C60.3954 14.6894 60.2894 14.6712 60.1369 14.6513C59.9844 14.6281 59.832 14.6165 59.6795 14.6165C59.3282 14.6165 59.015 14.6911 58.7399 14.8402C58.4681 14.986 58.2527 15.1899 58.0936 15.4517C57.9345 15.7102 57.8549 16.0052 57.8549 16.3366V21H56.3684ZM63.1087 18.4098L63.0987 16.5952H63.3572L66.3999 13.3636H68.1797L64.7095 17.0426H64.4759L63.1087 18.4098ZM61.7415 21V10.8182H63.228V21H61.7415ZM66.5639 21L63.8295 17.3707L64.8537 16.3317L68.3885 21H66.5639ZM75.2567 15.228L73.9094 15.4666C73.8531 15.2943 73.7636 15.1302 73.641 14.9744C73.5217 14.8187 73.3593 14.6911 73.1538 14.5916C72.9483 14.4922 72.6914 14.4425 72.3832 14.4425C71.9622 14.4425 71.6109 14.5369 71.3292 14.7259C71.0475 14.9115 70.9066 15.1518 70.9066 15.4467C70.9066 15.7019 71.0011 15.9074 71.19 16.0632C71.3789 16.219 71.6838 16.3466 72.1048 16.446L73.3178 16.7244C74.0205 16.8868 74.5442 17.1371 74.8888 17.4751C75.2335 17.8132 75.4059 18.2524 75.4059 18.7926C75.4059 19.25 75.2733 19.6577 75.0082 20.0156C74.7463 20.3703 74.3801 20.6487 73.9094 20.8509C73.4421 21.053 72.9002 21.1541 72.2837 21.1541C71.4286 21.1541 70.7309 20.9718 70.1907 20.6072C69.6504 20.2393 69.319 19.7173 69.1964 19.0412L70.6332 18.8224C70.7227 19.197 70.9066 19.4804 71.185 19.6726C71.4634 19.8615 71.8263 19.956 72.2738 19.956C72.761 19.956 73.1504 19.8549 73.4421 19.6527C73.7338 19.4472 73.8796 19.197 73.8796 18.902C73.8796 18.6634 73.7901 18.4628 73.6112 18.3004C73.4355 18.138 73.1654 18.0154 72.8008 17.9325L71.5082 17.6491C70.7956 17.4867 70.2686 17.2282 69.9272 16.8736C69.5891 16.5189 69.4201 16.0698 69.4201 15.5263C69.4201 15.0755 69.546 14.6811 69.7979 14.343C70.0498 14.005 70.3978 13.7415 70.842 13.5526C71.2861 13.3603 71.7949 13.2642 72.3683 13.2642C73.1935 13.2642 73.8432 13.4432 74.3171 13.8011C74.7911 14.1558 75.1043 14.6314 75.2567 15.228ZM78.5268 16.4659V21H77.0403V10.8182H78.5069V14.6065H78.6014C78.7804 14.1955 79.0538 13.8691 79.4217 13.6271C79.7896 13.3852 80.2702 13.2642 80.8635 13.2642C81.3871 13.2642 81.8445 13.3719 82.2356 13.5874C82.63 13.8028 82.935 14.1243 83.1504 14.5518C83.3691 14.9761 83.4785 15.5064 83.4785 16.1428V21H81.992V16.3217C81.992 15.7616 81.8478 15.3274 81.5595 15.0192C81.2711 14.7076 80.8701 14.5518 80.3564 14.5518C80.005 14.5518 79.6902 14.6264 79.4118 14.7756C79.1367 14.9247 78.9196 15.1435 78.7605 15.4318C78.6047 15.7169 78.5268 16.0616 78.5268 16.4659ZM88.6788 21.1541C87.9629 21.1541 87.3381 20.9901 86.8045 20.6619C86.2709 20.3338 85.8566 19.8748 85.5616 19.2848C85.2666 18.6948 85.1191 18.0054 85.1191 17.2166C85.1191 16.4245 85.2666 15.7318 85.5616 15.1385C85.8566 14.5452 86.2709 14.0845 86.8045 13.7564C87.3381 13.4283 87.9629 13.2642 88.6788 13.2642C89.3947 13.2642 90.0195 13.4283 90.5531 13.7564C91.0867 14.0845 91.501 14.5452 91.796 15.1385C92.091 15.7318 92.2385 16.4245 92.2385 17.2166C92.2385 18.0054 92.091 18.6948 91.796 19.2848C91.501 19.8748 91.0867 20.3338 90.5531 20.6619C90.0195 20.9901 89.3947 21.1541 88.6788 21.1541ZM88.6838 19.9062C89.1478 19.9062 89.5323 19.7836 89.8372 19.5384C90.1421 19.2931 90.3675 18.9666 90.5133 18.5589C90.6625 18.1513 90.737 17.7022 90.737 17.2116C90.737 16.7244 90.6625 16.277 90.5133 15.8693C90.3675 15.4583 90.1421 15.1286 89.8372 14.88C89.5323 14.6314 89.1478 14.5071 88.6838 14.5071C88.2164 14.5071 87.8287 14.6314 87.5204 14.88C87.2155 15.1286 86.9885 15.4583 86.8393 15.8693C86.6935 16.277 86.6206 16.7244 86.6206 17.2116C86.6206 17.7022 86.6935 18.1513 86.8393 18.5589C86.9885 18.9666 87.2155 19.2931 87.5204 19.5384C87.8287 19.7836 88.2164 19.9062 88.6838 19.9062ZM93.8977 23.8636V13.3636H95.3494V14.6016H95.4737C95.5599 14.4425 95.6842 14.2585 95.8466 14.0497C96.009 13.8409 96.2344 13.6586 96.5227 13.5028C96.8111 13.3438 97.1922 13.2642 97.6662 13.2642C98.2827 13.2642 98.8329 13.42 99.3168 13.7315C99.8007 14.0431 100.18 14.4922 100.455 15.0788C100.734 15.6655 100.873 16.3714 100.873 17.1967C100.873 18.022 100.735 18.7296 100.46 19.3196C100.185 19.9062 99.8073 20.3587 99.3267 20.6768C98.8461 20.9917 98.2976 21.1491 97.6811 21.1491C97.2171 21.1491 96.8376 21.0713 96.5426 20.9155C96.2509 20.7597 96.0223 20.5774 95.8565 20.3686C95.6908 20.1598 95.5632 19.9742 95.4737 19.8118H95.3842V23.8636H93.8977ZM95.3544 17.1818C95.3544 17.7187 95.4323 18.1894 95.5881 18.5938C95.7438 18.9981 95.9692 19.3146 96.2642 19.5433C96.5592 19.7687 96.9205 19.8814 97.348 19.8814C97.7921 19.8814 98.1634 19.7637 98.4616 19.5284C98.7599 19.2898 98.9853 18.9666 99.1378 18.5589C99.2936 18.1513 99.3714 17.6922 99.3714 17.1818C99.3714 16.678 99.2952 16.2256 99.1428 15.8246C98.9936 15.4235 98.7682 15.107 98.4666 14.875C98.1683 14.643 97.7955 14.527 97.348 14.527C96.9171 14.527 96.5526 14.638 96.2543 14.8601C95.9593 15.0821 95.7356 15.392 95.5831 15.7898C95.4306 16.1875 95.3544 16.6515 95.3544 17.1818ZM108.261 15.228L106.913 15.4666C106.857 15.2943 106.768 15.1302 106.645 14.9744C106.526 14.8187 106.363 14.6911 106.158 14.5916C105.952 14.4922 105.695 14.4425 105.387 14.4425C104.966 14.4425 104.615 14.5369 104.333 14.7259C104.051 14.9115 103.911 15.1518 103.911 15.4467C103.911 15.7019 104.005 15.9074 104.194 16.0632C104.383 16.219 104.688 16.3466 105.109 16.446L106.322 16.7244C107.024 16.8868 107.548 17.1371 107.893 17.4751C108.237 17.8132 108.41 18.2524 108.41 18.7926C108.41 19.25 108.277 19.6577 108.012 20.0156C107.75 20.3703 107.384 20.6487 106.913 20.8509C106.446 21.053 105.904 21.1541 105.288 21.1541C104.433 21.1541 103.735 20.9718 103.195 20.6072C102.654 20.2393 102.323 19.7173 102.2 19.0412L103.637 18.8224C103.727 19.197 103.911 19.4804 104.189 19.6726C104.467 19.8615 104.83 19.956 105.278 19.956C105.765 19.956 106.154 19.8549 106.446 19.6527C106.738 19.4472 106.884 19.197 106.884 18.902C106.884 18.6634 106.794 18.4628 106.615 18.3004C106.439 18.138 106.169 18.0154 105.805 17.9325L104.512 17.6491C103.799 17.4867 103.272 17.2282 102.931 16.8736C102.593 16.5189 102.424 16.0698 102.424 15.5263C102.424 15.0755 102.55 14.6811 102.802 14.343C103.054 14.005 103.402 13.7415 103.846 13.5526C104.29 13.3603 104.799 13.2642 105.372 13.2642C106.197 13.2642 106.847 13.4432 107.321 13.8011C107.795 14.1558 108.108 14.6314 108.261 15.228Z" fill="#3D474D"/>
        </svg>
